<svg width="117" height="111" viewBox="0 0 117 111" fill="none" xmlns="http://www.w3.org/2000/svg">
<g clip-path="url(#clip0_258_1052)">
<path d="M81.405 23.6601C81.405 23.6601 83.3509 22.3176 90.83 28.5858C98.3091 34.854 98.6092 40.5235 98.6092 40.5235V15.7312C98.6092 15.7312 94.7173 4.97232 82.1552 0.809082L81.405 23.6601Z" fill="#D1D3D4"/>
<path d="M98.6091 40.7575C98.549 40.7588 98.4907 40.7365 98.4469 40.6954C98.4031 40.6543 98.3771 40.5977 98.3747 40.5377C98.3747 40.4815 97.9808 34.8822 90.6799 28.7637C83.5384 22.7808 81.569 23.8473 81.5315 23.8567C81.4946 23.8785 81.4525 23.89 81.4096 23.89C81.3667 23.89 81.3246 23.8785 81.2877 23.8567C81.2515 23.8359 81.2216 23.8058 81.201 23.7697C81.1804 23.7335 81.1699 23.6925 81.1704 23.6509L81.9207 0.818566C81.9209 0.78216 81.9298 0.746334 81.9467 0.714053C81.9636 0.681772 81.9879 0.653965 82.0177 0.632934C82.0475 0.611904 82.0819 0.598253 82.118 0.593115C82.1542 0.587976 82.191 0.591497 82.2255 0.603386C94.7547 4.76662 98.792 15.5723 98.8295 15.6659C98.8337 15.6922 98.8337 15.719 98.8295 15.7454V40.5377C98.8295 40.5989 98.8055 40.6577 98.7625 40.7014C98.7196 40.7452 98.6611 40.7703 98.5998 40.7716L98.6091 40.7575ZM82.0379 23.3187C83.1774 23.3187 85.7564 24.0485 90.98 28.4269C95.7629 32.4358 97.6385 36.178 98.3747 38.4093V15.7969C96.8662 12.3858 94.6659 9.32337 91.9123 6.80264C89.1587 4.28191 85.9116 2.3575 82.3755 1.15069L81.6487 23.3187C81.7781 23.3053 81.9085 23.3053 82.0379 23.3187Z" fill="#231F20"/>
<path d="M21.9708 32.0801V10.015C30.5632 7.03489 39.6685 5.8084 48.7455 6.4084V27.5801C48.7455 27.5801 32.3571 28.0292 21.9708 32.0801Z" fill="#D1D3D4"/>
<path d="M21.9755 32.3138C21.9274 32.3153 21.88 32.3022 21.8395 32.2764C21.8091 32.2534 21.7844 32.2237 21.7673 32.1897C21.7502 32.1556 21.7412 32.118 21.7411 32.08V10.0148C21.7403 9.96784 21.7538 9.92174 21.7798 9.88253C21.8057 9.84331 21.8429 9.8128 21.8864 9.79495C30.5205 6.81902 39.6623 5.58821 48.7783 6.17434C48.8372 6.17905 48.8921 6.20576 48.9321 6.24913C48.9721 6.29249 48.9942 6.34931 48.994 6.40823V27.5799C48.9941 27.6404 48.9706 27.6985 48.9287 27.7421C48.8867 27.7857 48.8295 27.8114 48.7689 27.8138C48.6048 27.8138 32.2868 28.3096 22.0412 32.2998C22.02 32.3072 21.9979 32.3119 21.9755 32.3138ZM22.21 10.1739V31.7385C31.8554 28.0804 46.5229 27.4209 48.5251 27.346V6.62809C39.6055 6.08717 30.6661 7.2917 22.21 10.1739Z" fill="#231F20"/>
<path d="M11.7017 44.3685C11.7017 44.3685 3.73023 47.671 0.715154 57.4289V37.8945C0.715154 37.8945 0.541658 28.436 11.7017 22.4297V44.3685Z" fill="#D1D3D4"/>
<path d="M0.691745 57.644H0.658921C0.602996 57.6352 0.552036 57.6068 0.515114 57.564C0.478191 57.5211 0.4577 57.4666 0.457291 57.4101V37.8944C0.457291 37.8008 0.457292 28.2301 11.5657 22.2238C11.6017 22.2042 11.642 22.1938 11.683 22.1938C11.7239 22.1938 11.7643 22.2042 11.8002 22.2238C11.8344 22.2451 11.8627 22.2748 11.8824 22.3099C11.9021 22.3451 11.9125 22.3847 11.9127 22.4249V44.3685C11.9125 44.4146 11.8986 44.4597 11.8727 44.498C11.8468 44.5363 11.8102 44.5661 11.7674 44.5836C9.17394 45.8796 6.87357 47.691 5.00761 49.9064C3.14166 52.1218 1.74955 54.6945 0.916822 57.4663C0.904355 57.5166 0.875484 57.5614 0.834744 57.5935C0.794004 57.6257 0.743703 57.6435 0.691745 57.644ZM11.4438 22.8506C0.916821 28.6979 0.916822 37.8196 0.916822 37.8897V56.0021C2.81487 50.8914 6.56889 46.6789 11.4344 44.2001L11.4438 22.8506Z" fill="#231F20"/>
<path d="M0.691681 37.8945C0.691681 37.8945 2.64703 46.38 10.173 49.1961V72.0284C10.173 72.0284 1.59667 66.1203 0.691681 57.4103V37.8945Z" fill="white"/>
<path d="M10.173 72.2625C10.1259 72.2628 10.0798 72.2481 10.0417 72.2204C9.95262 72.1596 1.36222 66.1393 0.461914 57.4339V37.8948C0.46265 37.8369 0.484463 37.7812 0.523286 37.7382C0.562109 37.6952 0.615293 37.6677 0.672925 37.6609C0.73041 37.6539 0.788432 37.6687 0.835382 37.7026C0.882332 37.7364 0.914743 37.7867 0.926132 37.8433C0.926132 37.9275 2.94713 46.2633 10.2621 48.9765C10.3065 48.9936 10.3447 49.0238 10.3715 49.063C10.3983 49.1023 10.4125 49.1488 10.4122 49.1963V72.0286C10.4118 72.0712 10.3998 72.1128 10.3775 72.1491C10.3552 72.1854 10.3234 72.2149 10.2855 72.2344C10.2513 72.2539 10.2124 72.2636 10.173 72.2625ZM0.916756 39.4151V57.4105C1.69045 64.8622 8.288 70.3165 9.92918 71.5655V49.3554C4.40544 47.2083 1.85457 41.9785 0.916756 39.4151Z" fill="#231F20"/>
<path d="M62.6392 48.3822C62.6392 48.3822 71.6985 78.9142 75.3607 80.4438C79.0229 81.9735 84.6638 77.8757 85.1374 75.2702C85.611 72.6647 78.2351 42.4648 78.2351 42.4648L62.6392 48.3822Z" fill="white"/>
<path d="M77.1284 81.0146C76.4855 81.0249 75.8472 80.9039 75.2528 80.6591C73.6679 79.9995 71.0326 74.3675 67.3845 63.9173C64.693 56.1755 62.4188 48.5227 62.3953 48.4478C62.3772 48.3914 62.3818 48.3301 62.408 48.2769C62.4342 48.2237 62.4801 48.1827 62.536 48.1625L78.1319 42.2498C78.1623 42.237 78.195 42.2305 78.228 42.2305C78.261 42.2305 78.2937 42.237 78.3242 42.2498C78.3538 42.2654 78.3797 42.2873 78.3999 42.314C78.4202 42.3407 78.4343 42.3714 78.4414 42.4041C78.7462 43.6391 85.8314 72.6741 85.3531 75.303C85.0811 76.7765 83.3227 78.6523 81.0767 79.8686C79.871 80.5592 78.5173 80.9522 77.1284 81.0146ZM62.9252 48.5227C63.305 49.7997 65.4057 56.7462 67.8488 63.7629C72.5378 77.2958 74.6339 79.8873 75.4544 80.2288C76.8893 80.8322 78.8681 80.5515 80.875 79.4663C82.971 78.3342 84.6685 76.5473 84.9076 75.2282C85.2734 73.2214 80.6312 53.28 78.0663 42.7784L62.9252 48.5227Z" fill="#231F20"/>
<path d="M78.2866 73.8389C77.9021 63.9454 93.3245 50.333 93.3245 50.333L101.765 55.675C101.765 55.675 95.4862 73.5208 89.3107 79.5318C86.2581 82.5115 78.4977 79.92 78.2866 73.8389Z" fill="white"/>
<path d="M85.9017 81.0197C84.8867 81.0097 83.8828 80.8081 82.9429 80.4256C80.6547 79.5181 78.1601 77.3148 78.0288 73.8533C77.8647 69.69 80.3733 64.4369 85.4563 58.2341C87.8238 55.3652 90.3937 52.6686 93.1464 50.1649C93.187 50.1346 93.2363 50.1182 93.287 50.1182C93.3378 50.1182 93.3871 50.1346 93.4277 50.1649L101.868 55.5023C101.914 55.5302 101.948 55.5728 101.966 55.623C101.984 55.6732 101.984 55.728 101.967 55.7783C101.901 55.956 95.6035 73.7457 89.4561 79.7473C88.4823 80.6166 87.2073 81.073 85.9017 81.0197ZM78.4977 73.8392C78.6196 77.0763 80.9641 79.1392 83.1164 79.9952C85.4141 80.9074 87.8383 80.6688 89.1419 79.3918C94.886 73.7784 100.804 57.6447 101.474 55.7783L93.3292 50.6327C91.8334 51.9846 78.1413 64.6661 78.4977 73.8346V73.8392Z" fill="#231F20"/>
<path d="M84.9545 79.2324C84.906 79.2321 84.8587 79.2175 84.8186 79.1903C84.7683 79.1537 84.7344 79.099 84.7239 79.0379C84.7134 78.9768 84.7272 78.914 84.7623 78.8628C84.8842 78.6944 96.9539 61.7561 99.1672 52.0684C99.1738 52.0383 99.1864 52.0097 99.2041 51.9844C99.2219 51.9591 99.2445 51.9376 99.2707 51.9211C99.2969 51.9045 99.326 51.8933 99.3565 51.8881C99.3871 51.8829 99.4183 51.8838 99.4485 51.8907C99.4786 51.8973 99.5071 51.9098 99.5323 51.9276C99.5574 51.9454 99.5788 51.9681 99.5949 51.9943C99.6111 52.0205 99.6219 52.0496 99.6265 52.0801C99.6312 52.1105 99.6296 52.1415 99.622 52.1713C97.3853 61.9479 85.2687 78.9657 85.1468 79.1341C85.1253 79.165 85.0965 79.1901 85.063 79.2072C85.0294 79.2243 84.9922 79.233 84.9545 79.2324Z" fill="#D1D3D4"/>
<path d="M65.7434 54.7722C72.6528 54.7722 78.2539 49.1846 78.2539 42.2919C78.2539 35.3992 72.6528 29.8115 65.7434 29.8115C58.8341 29.8115 53.2329 35.3992 53.2329 42.2919C53.2329 49.1846 58.8341 54.7722 65.7434 54.7722Z" fill="#231F20"/>
<path d="M65.7434 55.0056C63.2227 55.0056 60.7586 54.2599 58.6627 52.8629C56.5668 51.4658 54.9333 49.4801 53.9686 47.1569C53.004 44.8337 52.7516 42.2773 53.2434 39.811C53.7351 37.3446 54.949 35.0792 56.7314 33.3011C58.5138 31.5229 60.7847 30.312 63.257 29.8215C65.7293 29.3309 68.2919 29.5827 70.6207 30.545C72.9495 31.5073 74.94 33.1369 76.3404 35.2277C77.7409 37.3186 78.4883 39.7767 78.4883 42.2914C78.4846 45.6623 77.1407 48.894 74.7513 51.2776C72.362 53.6612 69.1224 55.0019 65.7434 55.0056ZM65.7434 30.0449C63.3154 30.0449 60.942 30.7632 58.9232 32.1088C56.9044 33.4545 55.331 35.3671 54.4018 37.6049C53.4727 39.8426 53.2296 42.305 53.7033 44.6806C54.1769 47.0561 55.3461 49.2382 57.063 50.9509C58.7798 52.6636 60.9672 53.83 63.3485 54.3025C65.7298 54.7751 68.1981 54.5325 70.4412 53.6056C72.6844 52.6787 74.6016 51.1091 75.9505 49.0952C77.2995 47.0812 78.0194 44.7135 78.0194 42.2914C78.0145 39.0449 76.7195 35.9329 74.4184 33.6373C72.1173 31.3417 68.9977 30.0499 65.7434 30.0449Z" fill="#231F20"/>
<path d="M47.9999 33.142C47.9999 33.142 30.2892 38.2455 26.8287 47.2502C23.3681 56.255 34.5422 101.98 34.5422 101.98C34.5422 101.98 53.7206 112.122 72.9927 101.466C72.9927 101.466 78.4086 62.7291 75.5529 52.9712C72.6973 43.2133 66.0951 33.6425 61.9968 32.2065C57.8985 30.7704 47.9999 33.142 47.9999 33.142Z" fill="white"/>
<path d="M53.941 106.504C47.1961 106.494 40.5356 105.007 34.4297 102.149C34.4004 102.134 34.3747 102.113 34.3544 102.087C34.3342 102.061 34.3199 102.031 34.3125 101.999C34.2843 101.887 31.499 90.4216 29.1545 78.0067C26.0175 61.3023 25.1594 50.9223 26.6083 47.1333C28.0572 43.3443 32.1039 39.7892 38.6077 36.5708C41.6154 35.0989 44.7338 33.8633 47.9343 32.8754C48.3375 32.7772 57.9314 30.5365 62.0578 31.9819C66.4749 33.5116 72.9974 43.4612 75.7499 52.8542C78.5915 62.5513 73.4054 99.8614 73.199 101.442C73.1954 101.479 73.1828 101.514 73.1623 101.544C73.1419 101.574 73.1142 101.599 73.0818 101.616C67.2273 104.855 60.6359 106.539 53.941 106.504ZM34.7439 101.784C36.2115 102.518 54.5552 111.285 72.7676 101.279C73.0912 98.9398 78.0522 62.3361 75.3185 52.9993C72.3456 42.8578 65.795 33.7782 61.9218 32.417C57.9595 31.0464 48.3469 33.259 48.0609 33.3245C47.667 33.4367 30.4065 38.5589 27.0491 47.2923C23.7339 55.9416 34.153 99.3421 34.7439 101.784Z" fill="#231F20"/>
<path d="M64.6461 104.38C64.5851 104.379 64.5269 104.354 64.4833 104.312C64.4397 104.269 64.4141 104.211 64.4117 104.151C64.4117 103.65 63.5208 54.2667 63.005 50.3561C62.4329 46.1461 53.247 42.5348 53.1579 42.4974C53.1008 42.4735 53.0553 42.4285 53.0308 42.3718C53.0063 42.3151 53.0048 42.2511 53.0266 42.1933C53.0375 42.1649 53.0539 42.1389 53.075 42.1169C53.096 42.0949 53.1212 42.0773 53.1491 42.0651C53.1771 42.0529 53.2072 42.0464 53.2376 42.0459C53.2681 42.0455 53.2984 42.051 53.3267 42.0623C53.7159 42.212 62.869 45.8046 63.4739 50.2953C63.9991 54.2152 64.8525 102.092 64.8806 104.127C64.8812 104.158 64.8758 104.189 64.8646 104.217C64.8534 104.246 64.8366 104.272 64.8153 104.294C64.7939 104.316 64.7684 104.334 64.7402 104.346C64.712 104.359 64.6816 104.365 64.6508 104.366L64.6461 104.38Z" fill="#D1D3D4"/>
<path d="M43.4843 32.2065L44.2345 43.0169C44.2345 43.0169 48.6985 47.7789 53.2329 47.2269C58.1658 46.6188 61.7061 43.0169 61.7061 43.0169L61.0168 35.4483L43.4843 32.2065Z" fill="#231F20"/>
<path d="M52.4967 47.5079C48.1921 47.5079 44.2627 43.3727 44.0892 43.1856C44.051 43.1464 44.0277 43.0951 44.0235 43.0406L43.278 32.2302C43.2746 32.1953 43.2797 32.1601 43.2927 32.1275C43.3058 32.095 43.3264 32.066 43.353 32.0431C43.3795 32.0181 43.4117 32 43.4469 31.9902C43.482 31.9804 43.519 31.9793 43.5546 31.9869L61.0871 35.2099C61.137 35.2199 61.1824 35.2459 61.2162 35.2839C61.25 35.3218 61.2706 35.3698 61.2747 35.4204L61.964 42.9891C61.9665 43.0231 61.962 43.0573 61.9507 43.0895C61.9394 43.1217 61.9216 43.1512 61.8983 43.1762C61.7483 43.3259 58.2408 46.853 53.2845 47.4611C53.0231 47.493 52.76 47.5086 52.4967 47.5079ZM44.4877 42.9236C45.0176 43.4616 49.1393 47.5032 53.2282 46.998C57.6266 46.4553 60.9464 43.4382 61.4857 42.9236L60.8245 35.6403L43.7656 32.5015L44.4877 42.9236Z" fill="#231F20"/>
<path d="M65.0072 55.7865C65.0072 55.7865 55.1038 58.9393 55.0007 71.691C54.8975 84.4426 63.6896 81.5143 68.7678 77.3043C73.8461 73.0943 74.6386 66.8729 74.1884 63.1166C73.7383 59.3603 71.3281 53.9855 65.0072 55.7865Z" fill="white"/>
<path d="M60.637 81.1498C59.8426 81.1671 59.0545 81.0073 58.3299 80.682C55.9244 79.5406 54.724 76.5234 54.7662 71.7147C54.8694 58.935 64.8337 55.6137 64.9369 55.581C67.2064 54.9354 69.157 55.1413 70.7607 56.1984C73.6023 58.0696 74.2775 61.9849 74.4135 63.1356C74.934 67.4626 73.7664 73.5156 68.9132 77.5292C66.6718 79.3675 63.4504 81.1498 60.637 81.1498ZM65.0775 56.0113C64.8618 56.0815 55.3383 59.3419 55.2305 71.7006C55.1883 76.3129 56.2996 79.1851 58.5128 80.2423C61.4951 81.6456 65.809 79.4564 68.599 77.1503C73.2881 73.2583 74.4416 67.3784 73.9352 63.1683C73.8039 62.0691 73.1615 58.3455 70.4841 56.568C69.0304 55.595 67.2064 55.4032 65.0775 56.0113Z" fill="#231F20"/>
<path d="M71.7783 66.5977C71.5954 70.3399 67.7222 75.855 65.0119 76.8888C63.3567 77.525 61.1388 78.077 59.6945 76.4865C58.7801 75.4714 58.1753 73.5957 58.2362 70.3306C58.3863 61.9105 64.6509 59.595 66.4327 59.2208C67.2583 59.0922 68.1032 59.2472 68.8289 59.6605C70.4278 60.5259 71.9705 62.5841 71.7783 66.5977Z" fill="white"/>
<path d="M62.2031 77.773C61.7025 77.7884 61.2044 77.6956 60.7431 77.501C60.2818 77.3064 59.8681 77.0146 59.5303 76.6456C58.4659 75.4668 57.9548 73.3384 58.0111 70.3259C58.1799 60.8207 66.0622 59.0618 66.3952 58.9917C67.274 58.8577 68.1724 59.0224 68.946 59.4594C70.1933 60.1237 72.2284 61.9246 72.0221 66.5977C71.8298 70.5552 67.8394 76.0516 65.1057 77.1087C64.1869 77.5051 63.2032 77.7302 62.2031 77.773ZM66.9766 59.4173C66.819 59.4187 66.6619 59.436 66.5077 59.4688C66.1842 59.5343 58.6535 61.2136 58.4941 70.3493C58.4425 73.2449 58.9114 75.261 59.9008 76.3509C61.2841 77.8712 63.4504 77.2865 64.9603 76.6877C67.5393 75.6867 71.3984 70.2932 71.5766 66.5884C71.7876 62.1726 69.8979 60.5073 68.7632 59.8851C68.216 59.5831 67.6019 59.4223 66.9766 59.4173Z" fill="#231F20"/>
<path d="M71.7782 66.5983C71.5953 70.3405 67.7222 75.8556 65.0119 76.8894C63.3566 77.5256 61.1387 78.0776 59.6945 76.4871C61.2934 76.6602 63.6708 76.0802 66.2592 72.6326C69.7291 68.0157 70.0104 62.987 68.8241 59.6611C70.4278 60.5265 71.9705 62.5848 71.7782 66.5983Z" fill="#231F20"/>
<path d="M62.2032 77.7725C61.7025 77.7879 61.2045 77.6951 60.7431 77.5005C60.2818 77.3059 59.8681 77.0141 59.5304 76.6452C59.4974 76.6103 59.476 76.5662 59.4689 76.5187C59.4619 76.4713 59.4697 76.4229 59.4912 76.38C59.5127 76.3372 59.5468 76.3019 59.5891 76.279C59.6313 76.2562 59.6796 76.2468 59.7273 76.2522C61.2231 76.4113 63.5302 75.8874 66.0857 72.51C69.6213 67.8041 69.7104 62.8363 68.6178 59.7537C68.6024 59.7098 68.6004 59.6624 68.6121 59.6174C68.6237 59.5724 68.6486 59.5319 68.6835 59.5011C68.7188 59.4699 68.7628 59.45 68.8097 59.4442C68.8565 59.4383 68.9041 59.4468 68.9461 59.4683C70.1934 60.1326 72.2284 61.9335 72.0221 66.6066C71.8298 70.564 67.8394 76.0604 65.1057 77.1176C64.1863 77.5108 63.2026 77.7327 62.2032 77.7725ZM60.3275 76.7621C61.6967 77.7444 63.5724 77.2065 64.9228 76.6873C67.5018 75.6862 71.3609 70.2927 71.5391 66.5879C71.722 62.7989 70.3575 61.026 69.2415 60.2121C70.1558 63.4304 69.8651 68.2345 66.428 72.7907C64.1116 75.9061 61.9218 76.72 60.3322 76.7621H60.3275Z" fill="#231F20"/>
<path d="M19.5559 64.7968C19.5559 64.7968 20.611 96.6058 23.7761 99.0242C26.9412 101.443 33.4263 98.8745 34.561 96.4702C35.6958 94.0658 36.1647 62.9912 36.1647 62.9912L19.5559 64.7968Z" fill="white"/>
<path d="M27.0491 100.227C25.8289 100.272 24.6277 99.9151 23.6307 99.2118C22.2615 98.1734 21.1268 92.0548 20.2452 81.0292C19.5934 72.8618 19.3074 64.8815 19.3074 64.802C19.307 64.7433 19.3283 64.6865 19.3672 64.6425C19.4062 64.5985 19.46 64.5703 19.5184 64.5634L36.1037 62.7625C36.1364 62.7585 36.1696 62.7614 36.2011 62.7711C36.2327 62.7808 36.2618 62.7969 36.2866 62.8186C36.3114 62.8412 36.3313 62.8686 36.3451 62.8992C36.3588 62.9298 36.366 62.9629 36.3663 62.9964C36.3663 64.2687 35.8693 94.1505 34.7392 96.5736C34.1062 97.9301 31.9257 99.3054 29.4499 99.9182C28.6643 100.113 27.8586 100.217 27.0491 100.227ZM19.7998 65.0031C19.8467 66.3363 20.1233 73.5869 20.7376 80.9918C21.877 95.2684 23.2322 98.2997 23.9355 98.8376C25.1781 99.7732 27.1569 100.007 29.3749 99.4644C31.6913 98.8937 33.7826 97.5933 34.35 96.3724C35.2128 94.5247 35.7567 74.0593 35.9302 63.2536L19.7998 65.0031Z" fill="#231F20"/>
<path d="M30.8847 90.0853C37.6932 82.8768 58.2314 84.3129 58.2314 84.3129L60.3415 94.0707C60.3415 94.0707 43.1842 102.117 34.5516 101.943C30.3032 101.864 26.7067 94.5058 30.8847 90.0853Z" fill="white"/>
<path d="M34.8095 102.181H34.5375C32.4978 102.144 30.5049 100.511 29.4593 98.0317C28.5215 95.763 28.3339 92.4465 30.7113 89.9298C33.5763 86.8939 39.086 84.9901 47.0902 84.265C50.7996 83.9397 54.5275 83.8787 58.2456 84.0826C58.2968 84.0846 58.3458 84.1037 58.3849 84.1368C58.424 84.1698 58.4508 84.2149 58.4613 84.265L60.5713 94.0229C60.5826 94.0749 60.5758 94.1293 60.5519 94.1769C60.528 94.2245 60.4886 94.2626 60.4401 94.2848C60.2712 94.3597 43.489 102.181 34.8095 102.181ZM54.1332 84.4334C47.8077 84.4334 35.8458 85.1491 31.0536 90.2432C28.8309 92.5821 28.995 95.7162 29.8907 97.8446C30.8519 100.118 32.7041 101.676 34.5469 101.708C42.5653 101.886 58.269 94.7666 60.0743 93.934L58.0392 84.5316C57.5563 84.5036 56.1214 84.4334 54.1332 84.4334Z" fill="#231F20"/>
<path d="M32.3336 98.7625C32.2796 98.7625 32.2272 98.7439 32.1853 98.7098C32.1434 98.6757 32.1147 98.6282 32.1038 98.5754C32.0928 98.514 32.1062 98.4508 32.1413 98.3993C32.1763 98.3477 32.2302 98.3118 32.2914 98.2994C32.4884 98.262 52.2716 94.3279 58.4753 90.3471C58.5274 90.3175 58.589 90.3089 58.6473 90.3231C58.7056 90.3374 58.7562 90.3734 58.7886 90.4238C58.8211 90.4742 58.833 90.5351 58.8218 90.5939C58.8106 90.6528 58.7772 90.7051 58.7285 90.7401C52.4498 94.777 33.1964 98.6034 32.3805 98.7625H32.3336Z" fill="#D1D3D4"/>
<path d="M57.6829 85.8611C57.6829 85.8611 61.9875 81.8382 63.9006 80.2477C65.8138 78.6573 69.6213 76.454 69.5275 78.3766C69.4337 80.2992 65.8841 81.2441 65.7481 81.7586C65.7481 81.7586 72.9974 80.6406 76.3783 81.7586C79.7591 82.8766 80.6641 83.7794 79.6606 84.3314C78.6572 84.8834 74.9434 83.5783 73.2366 83.7794C71.5298 83.9806 69.9261 84.3314 69.9261 84.3314C69.9261 84.3314 75.8484 84.6823 77.7522 85.8798C79.6559 87.0773 80.4625 88.2842 79.2574 88.6864C78.0523 89.0887 74.3432 86.1838 70.7326 86.6844C70.7326 86.6844 78.4649 89.187 78.2586 91.1844C78.0523 93.1818 77.2129 92.8871 76.383 92.3866C75.553 91.8861 71.5251 90.1787 69.7198 89.8793C69.7198 89.8793 77.9632 96.4937 75.7499 96.896C73.5367 97.2983 68.871 92.293 68.871 92.293C68.871 92.293 59.9008 96.503 57.6923 93.9957C55.4837 91.4884 57.6829 85.8611 57.6829 85.8611Z" fill="#231F20"/>
<path d="M75.4732 97.1295C73.2787 97.1295 69.5181 93.3124 68.7913 92.5499C67.544 93.1206 59.6522 96.5728 57.4906 94.1264C55.2164 91.5442 57.3593 86.0104 57.4484 85.7765C57.4615 85.7439 57.4824 85.715 57.5093 85.6923C57.5515 85.6502 61.842 81.6413 63.7364 80.079C64.9978 79.0311 68.1488 76.9214 69.3117 77.5015C69.4666 77.5849 69.5914 77.7145 69.6687 77.8722C69.7461 78.0299 69.7721 78.2078 69.7431 78.3809C69.6681 79.7843 67.966 80.6917 66.8406 81.2858L66.6343 81.3934C68.7162 81.1315 73.7335 80.6403 76.4345 81.5337C80.1857 82.7687 80.2373 83.5312 80.2608 83.7838C80.2842 84.0364 80.2045 84.2843 79.7543 84.5322C79.1354 84.869 77.8271 84.6304 76.3125 84.3498C75.3085 84.1093 74.2784 83.9946 73.2459 84.0083C72.6832 84.0738 72.1299 84.158 71.6422 84.2375C73.5647 84.434 76.5658 84.8643 77.8599 85.6783C78.718 86.2209 80.1482 87.264 80.0357 88.1622C80.0075 88.4007 79.8575 88.7188 79.3136 88.9013C78.7696 89.0837 77.8693 88.7235 76.6549 88.2136C75.2856 87.6429 73.6491 86.9553 71.9658 86.8617C74.2071 87.6804 78.6477 89.5141 78.4742 91.2074C78.3757 92.143 78.1366 92.6903 77.7193 92.8961C77.3019 93.1019 76.7346 92.8961 76.2422 92.5827C74.4438 91.6722 72.5688 90.9209 70.6388 90.3373C76.3688 95.0479 76.3782 96.4185 76.3219 96.6664C76.2914 96.7929 76.2213 96.9063 76.1219 96.9904C76.0224 97.0745 75.8987 97.1249 75.7686 97.1342C75.6702 97.1423 75.5713 97.1407 75.4732 97.1295ZM68.8616 92.0354C68.8942 92.0349 68.9265 92.0413 68.9564 92.0542C68.9863 92.0671 69.0131 92.0862 69.0351 92.1102C70.3058 93.4761 73.9868 96.9564 75.6983 96.643C75.8624 96.6149 75.8765 96.5588 75.8811 96.5401C76.0875 95.7215 72.3128 92.2459 69.5649 90.0426C69.524 90.01 69.495 89.9649 69.4823 89.9142C69.4696 89.8635 69.4739 89.81 69.4946 89.762C69.5157 89.7145 69.5521 89.6755 69.5979 89.6509C69.6438 89.6263 69.6965 89.6177 69.7478 89.6263C71.5391 89.9257 75.6045 91.6331 76.4954 92.1664C76.8612 92.3862 77.2691 92.592 77.5223 92.4657C77.6958 92.3769 77.9256 92.0775 78.0194 91.1419C78.1554 89.8228 73.5741 87.8301 70.6528 86.8851C70.622 86.8824 70.5921 86.8736 70.5647 86.8593C70.5373 86.845 70.513 86.8254 70.4932 86.8017C70.4532 86.7539 70.4339 86.6922 70.4395 86.6302C70.4451 86.5682 70.4751 86.5109 70.5231 86.471C70.571 86.4311 70.6328 86.4118 70.695 86.4174C72.9176 86.1086 75.1919 87.0582 76.8518 87.7552C77.8881 88.1902 78.779 88.5645 79.1963 88.4288C79.4495 88.3446 79.5855 88.2277 79.6043 88.078C79.6465 87.7365 79.1354 87.0021 77.6442 86.0478C75.8108 84.8924 69.987 84.5322 69.926 84.5322C69.8699 84.5289 69.817 84.5051 69.7772 84.4655C69.7375 84.4258 69.7137 84.373 69.7103 84.317C69.7045 84.2604 69.72 84.2037 69.7538 84.1579C69.7876 84.1121 69.8373 84.0804 69.8932 84.0691C69.8932 84.0691 71.5297 83.7136 73.2271 83.5124C74.3053 83.4929 75.3816 83.6108 76.4298 83.8633C77.6771 84.0925 79.0885 84.3311 79.5621 84.0925C79.6887 84.0223 79.834 83.9147 79.8247 83.7978C79.8153 83.6808 79.5949 83.0306 76.3219 81.9501C73.0489 80.8695 65.87 81.9501 65.7996 81.9501C65.761 81.9546 65.722 81.9502 65.6854 81.9372C65.6488 81.9242 65.6157 81.903 65.5886 81.8752C65.5636 81.846 65.5458 81.8112 65.5369 81.7738C65.5279 81.7364 65.528 81.6974 65.537 81.66C65.6027 81.3981 65.9262 81.2203 66.653 80.8368C67.6846 80.2895 69.2461 79.4615 69.3071 78.3201C69.3071 77.9786 69.1898 77.9085 69.1382 77.8851C68.4161 77.5202 65.8231 78.9422 64.0693 80.4017C62.3156 81.8612 58.3393 85.5473 57.9032 85.973C57.6969 86.5203 55.8963 91.5442 57.8751 93.7942C58.7144 94.7298 60.8479 94.7298 64.0459 93.7942C65.6623 93.307 67.2444 92.7131 68.7819 92.0167C68.8095 92.0171 68.8367 92.0235 68.8616 92.0354Z" fill="#231F20"/>
<path d="M65.8091 11.7969C65.8091 11.7969 67.1126 24.31 66.8125 30.915C66.5124 37.52 63.9053 39.6204 58.3722 40.7384C52.8391 41.8564 44.122 37.0336 39.2079 30.7279C34.2937 24.4222 33.7404 21.1057 35.3675 11.7969H65.8091Z" fill="white"/>
<path d="M56.7544 41.0939C51.3244 41.0939 43.625 36.7529 39.039 30.8449C34.1577 24.6 33.4637 21.2039 35.1471 11.7548C35.1561 11.7007 35.1842 11.6516 35.2263 11.6164C35.2685 11.5812 35.3219 11.5623 35.3769 11.563H65.8184C65.8767 11.5627 65.9331 11.5841 65.9764 11.623C66.0198 11.662 66.047 11.7156 66.0529 11.7735C66.0529 11.8998 67.3564 24.3755 67.0563 30.9244C66.7328 37.9738 63.774 39.887 58.4425 40.9536C57.8856 41.0544 57.3203 41.1014 56.7544 41.0939ZM35.5644 12.0308C33.9467 21.2694 34.6266 24.4176 39.4048 30.5689C44.4174 36.9962 53.0875 41.543 58.3393 40.4951C63.4457 39.4754 66.2732 37.6464 66.578 30.9057C66.8547 24.8573 65.7668 13.6961 65.598 12.0308H35.5644Z" fill="#231F20"/>
<path d="M35.3675 11.797C35.3675 11.797 36.4132 16.1006 47.048 16.8023C57.6828 17.5039 65.8043 14.7019 65.8043 11.797C65.8043 8.89212 58.2362 6.18368 50.5836 5.99189C42.931 5.8001 35.8036 9.09327 35.3675 11.797Z" fill="white"/>
<path d="M50.4054 17.1487C49.3269 17.1487 48.2031 17.1113 47.034 17.0365C36.3475 16.3301 35.1846 12.0359 35.1471 11.8535C35.1401 11.8227 35.1401 11.7907 35.1471 11.7599C35.616 8.88775 42.8372 5.56184 50.6211 5.75831C57.9173 5.9501 66.0716 8.56498 66.0716 11.7973C66.0503 12.1489 65.956 12.4923 65.7945 12.8055C65.6331 13.1188 65.4081 13.3951 65.1338 13.617C63.1597 15.4273 57.8751 17.1487 50.4054 17.1487ZM35.616 11.7833C35.6864 11.9891 36.0568 12.906 37.4166 13.8836C38.8468 14.9127 41.679 16.2225 47.0715 16.5687C55.7744 17.1441 62.5689 15.3431 64.7868 13.2942C65.0144 13.1158 65.2027 12.8924 65.3398 12.638C65.477 12.3837 65.5601 12.1039 65.584 11.816C65.584 9.15438 58.2971 6.44594 50.5789 6.2448C43.2123 6.01091 36.1178 9.15906 35.616 11.7833Z" fill="#231F20"/>
<path d="M41.0694 30.4475C42.8466 31.1398 47.0246 31.3129 46.4197 25.6855C45.8148 20.0581 43.6062 16.9474 39.7706 16.938C35.9349 16.9286 35.888 21.4801 36.3382 23.2811C36.7883 25.082 37.2385 28.9319 41.0694 30.4475Z" fill="#231F20"/>
<path d="M42.9591 31.0228C42.2848 31.0205 41.6164 30.8985 40.985 30.6626C37.4447 29.2592 36.6991 25.9567 36.2537 23.9687C36.2068 23.7394 36.1552 23.5289 36.1083 23.3372C35.7801 22.0274 35.7285 19.5154 36.9289 17.9858C37.2626 17.5651 37.6917 17.2295 38.1808 17.0067C38.67 16.7839 39.2052 16.6801 39.7424 16.704C43.6202 16.704 46.0023 19.8101 46.6259 25.662C46.8604 27.8746 46.4056 29.4417 45.2614 30.3117C44.5922 30.7927 43.7837 31.0424 42.9591 31.0228ZM41.1585 30.2275C42.0072 30.5597 43.7797 30.8731 45.0082 29.9375C46.007 29.175 46.4149 27.753 46.1899 25.7275C45.585 20.0721 43.4233 17.1999 39.7705 17.1905C39.3017 17.1654 38.8336 17.2525 38.4054 17.4446C37.9771 17.6366 37.6011 17.928 37.3087 18.2945C36.2162 19.6978 36.2771 22.0695 36.5725 23.2436C36.6241 23.4354 36.671 23.6506 36.7226 23.8845C37.1446 25.7556 37.8574 28.9552 41.1678 30.2463L41.1585 30.2275Z" fill="#231F20"/>
<path d="M44.2345 27.0605C44.1165 27.3658 43.9274 27.6387 43.6828 27.8567C43.4382 28.0747 43.1451 28.2315 42.8278 28.3142C40.2676 28.9457 38.6545 25.9098 38.1997 24.3708C37.7448 22.8318 38.0121 18.8837 40.2723 19.1831C40.5704 19.1887 40.8636 19.2606 41.1304 19.3936C41.9472 19.7941 42.6477 20.3964 43.1654 21.1431C44.2955 22.64 44.9473 25.4139 44.2345 27.0605Z" fill="white"/>
<path d="M42.1385 28.6324C39.9956 28.6324 38.4857 26.2327 37.9558 24.4224C37.6417 23.3371 37.6088 20.7877 38.6686 19.5528C38.8592 19.3222 39.1057 19.144 39.3847 19.0351C39.6637 18.9262 39.966 18.8903 40.2629 18.9306C40.5886 18.9371 40.9089 19.0154 41.2007 19.1598C42.0558 19.575 42.7902 20.2014 43.3342 20.9795C44.4737 22.4717 45.2098 25.3626 44.4502 27.1355C44.3177 27.4787 44.1046 27.7853 43.8288 28.0294C43.5531 28.2736 43.2227 28.4483 42.8653 28.5388C42.6277 28.5989 42.3837 28.6303 42.1385 28.6324ZM40.0143 19.4031C39.8246 19.4009 39.6369 19.4418 39.4654 19.5229C39.294 19.604 39.1433 19.723 39.025 19.8709C38.1668 20.8672 38.0871 23.1921 38.406 24.2961C38.7764 25.5544 40.2816 28.6885 42.7528 28.0757C43.0388 28.0055 43.3034 27.8671 43.5239 27.6724C43.7444 27.4776 43.9143 27.2324 44.0188 26.9577C44.7222 25.3345 44.0188 22.6588 42.9591 21.2742C42.4627 20.5627 41.7952 19.9869 41.0178 19.5996C40.786 19.4829 40.5317 19.4175 40.2722 19.4078H40.2254L40.0143 19.4031Z" fill="#231F20"/>
<path d="M35.3675 11.7969C35.3675 11.7969 36.8539 2.44132 45.6835 1.03798C53.3267 -0.178241 63.155 3.37688 65.809 11.7969C65.809 11.7969 66.8125 17.5038 51.4604 17.4103C36.1084 17.3167 35.3675 11.7969 35.3675 11.7969Z" fill="#231F20"/>
<path d="M51.8543 17.6396H51.4604C36.0849 17.5367 35.1471 12.0636 35.1471 11.8297V11.7596C35.1471 11.666 36.7649 2.2356 45.6601 0.822908C53.5893 -0.43074 63.3848 3.30214 66.0482 11.7268C66.0854 12.1788 66.0251 12.6336 65.8715 13.0604C65.7178 13.4872 65.4743 13.8763 65.1573 14.2014C63.8256 15.7778 60.4354 17.6396 51.8543 17.6396ZM35.616 11.797C35.7145 12.2274 37.1681 17.0736 51.4745 17.1671H51.8684C60.2384 17.1671 63.5161 15.4036 64.7962 13.8927C65.0653 13.6191 65.2746 13.2929 65.411 12.9347C65.5474 12.5764 65.6079 12.1938 65.5887 11.811C63.563 5.41182 55.5775 -0.304439 45.7257 1.25794C37.4495 2.60047 35.7239 11.1561 35.616 11.797Z" fill="#231F20"/>
<path d="M28.6058 72.1873C35.5152 72.1873 41.1163 66.5996 41.1163 59.7069C41.1163 52.8142 35.5152 47.2266 28.6058 47.2266C21.6965 47.2266 16.0954 52.8142 16.0954 59.7069C16.0954 66.5996 21.6965 72.1873 28.6058 72.1873Z" fill="#231F20"/>
<path d="M28.6058 72.4353C26.0851 72.4353 23.621 71.6896 21.5251 70.2926C19.4292 68.8955 17.7957 66.9098 16.8311 64.5866C15.8664 62.2634 15.614 59.707 16.1058 57.2406C16.5976 54.7743 17.8114 52.5089 19.5938 50.7307C21.3762 48.9526 23.6472 47.7417 26.1194 47.2511C28.5917 46.7606 31.1543 47.0123 33.4831 47.9747C35.8119 48.937 37.8024 50.5666 39.2029 52.6574C40.6033 54.7483 41.3508 57.2064 41.3508 59.7211C41.347 63.092 40.0031 66.3237 37.6138 68.7073C35.2244 71.0909 31.9849 72.4316 28.6058 72.4353ZM28.6058 47.4746C26.1779 47.4746 23.8044 48.1929 21.7856 49.5385C19.7669 50.8842 18.1934 52.7968 17.2643 55.0346C16.3351 57.2723 16.092 59.7347 16.5657 62.1102C17.0394 64.4858 18.2085 66.6679 19.9254 68.3806C21.6422 70.0933 23.8296 71.2597 26.2109 71.7322C28.5922 72.2048 31.0605 71.9622 33.3037 71.0353C35.5468 70.1084 37.4641 68.5388 38.813 66.5248C40.1619 64.5109 40.8819 62.1432 40.8819 59.7211C40.8806 56.4722 39.5873 53.3565 37.2858 51.0579C34.9843 48.7593 31.8626 47.4655 28.6058 47.4606V47.4746Z" fill="#231F20"/>
<path d="M58.405 27.4772C59.0809 27.4772 59.6289 26.6499 59.6289 25.6295C59.6289 24.609 59.0809 23.7817 58.405 23.7817C57.7291 23.7817 57.1812 24.609 57.1812 25.6295C57.1812 26.6499 57.7291 27.4772 58.405 27.4772Z" fill="#231F20"/>
<path d="M63.8584 24.3707C64.5343 24.3707 65.0822 23.5435 65.0822 22.523C65.0822 21.5026 64.5343 20.6753 63.8584 20.6753C63.1825 20.6753 62.6345 21.5026 62.6345 22.523C62.6345 23.5435 63.1825 24.3707 63.8584 24.3707Z" fill="#231F20"/>
<path d="M44.5253 28.3658C44.4908 28.365 44.457 28.3566 44.4262 28.3412C44.3954 28.3258 44.3684 28.3039 44.3471 28.2769L37.8152 20.4229C37.7955 20.3993 37.7806 20.372 37.7715 20.3426C37.7624 20.3132 37.7591 20.2824 37.762 20.2517C37.7648 20.2211 37.7736 20.1914 37.788 20.1641C37.8024 20.1369 37.822 20.1128 37.8457 20.0931C37.8694 20.0735 37.8967 20.0587 37.9262 20.0496C37.9556 20.0405 37.9866 20.0372 38.0173 20.0401C38.048 20.0429 38.0778 20.0517 38.1051 20.066C38.1324 20.0804 38.1565 20.0999 38.1763 20.1236L44.7128 27.9963C44.7327 28.0197 44.7476 28.0469 44.7567 28.0762C44.7658 28.1055 44.7689 28.1364 44.7659 28.1669C44.7628 28.1975 44.7536 28.2271 44.7389 28.254C44.7241 28.2809 44.7041 28.3047 44.68 28.3237C44.6356 28.3566 44.5803 28.3717 44.5253 28.3658Z" fill="#231F20"/>
<path d="M101.76 55.6796C100.227 55.8006 98.6847 55.7156 97.1743 55.427C94.2389 54.9592 92.7337 53.2284 92.6587 49.851C92.5837 46.4737 91.6084 42.0485 92.6587 40.879C93.7091 39.7096 98.0793 36.9357 98.2856 38.2875C98.4919 39.6394 95.5003 41.417 95.3503 42.2917C95.2002 43.1665 96.3303 43.8447 96.2553 45.7205C96.2553 45.7205 97.8964 37.2397 101.741 36.3369C105.587 35.4341 105.962 37.4642 104.982 38.1378C104.002 38.8114 102.262 38.9658 101.741 39.7891C101.221 40.6124 100.846 43.8447 100.846 43.8447C100.846 43.8447 104.832 37.5391 107.317 38.9658C109.802 40.3925 109.872 42.1935 108.667 41.969C107.462 41.7444 106.112 41.3889 105.357 42.4648C104.602 43.5407 103.551 45.2715 103.551 45.2715C103.551 45.2715 108.081 42.5677 109.427 43.2413C110.773 43.9149 111.982 46.048 110.327 45.9217C108.672 45.7954 107.087 45.7205 106.337 46.5438C105.587 47.3671 105.357 49.0979 104.757 50.8989C104.156 52.6998 103.931 55.6562 101.76 55.6796Z" fill="#231F20"/>
<path d="M100.621 55.9645C99.4532 55.9549 98.2883 55.8532 97.1368 55.6605C94.042 55.1599 92.5039 53.2607 92.4242 49.8553C92.4242 48.7841 92.2882 47.6053 92.1757 46.4639C91.9178 43.849 91.7068 41.5943 92.4852 40.7243C93.423 39.6998 96.8695 37.3796 98.0746 37.7305C98.1959 37.7602 98.3054 37.8256 98.389 37.9182C98.4726 38.0108 98.5264 38.1263 98.5435 38.2497C98.6982 39.1853 97.6526 40.1629 96.7288 41.0564C96.2036 41.5569 95.6597 42.0715 95.6081 42.3521C95.6025 42.7043 95.7074 43.0494 95.9082 43.3392C96.0914 43.6744 96.2406 44.0269 96.3537 44.3917C96.9961 41.9358 98.6701 36.8417 101.713 36.126C104.757 35.4103 105.465 36.5049 105.605 36.8557C105.713 37.1201 105.725 37.4135 105.639 37.6857C105.553 37.9579 105.376 38.192 105.136 38.3479C104.655 38.645 104.136 38.8762 103.594 39.0356C102.886 39.2882 102.215 39.5034 101.957 39.9337C101.699 40.3641 101.394 41.8048 101.23 42.9041C102.449 41.1967 105.361 37.5808 107.453 38.7783C109.225 39.7981 109.891 41.0517 109.628 41.7581C109.554 41.9456 109.411 42.0979 109.228 42.1847C109.046 42.2714 108.837 42.2861 108.644 42.2258L108.391 42.1744C107.307 41.9686 106.182 41.7487 105.577 42.6422C105.16 43.2456 104.639 44.0455 104.264 44.6536C105.671 43.8865 108.456 42.5252 109.563 43.0772C110.538 43.545 111.579 44.8828 111.363 45.664C111.298 45.8886 111.091 46.2487 110.337 46.1973C108.648 46.0663 107.2 46.0195 106.538 46.7446C106.069 47.2685 105.802 48.2321 105.497 49.3454C105.352 49.8834 105.202 50.44 105.005 51.0154C104.893 51.3616 104.789 51.7545 104.682 52.1661C104.241 53.8408 103.697 55.9084 101.784 55.9552C101.396 55.9795 101.008 55.9826 100.621 55.9645ZM97.7745 38.1562C96.7194 38.1562 93.7559 40.0273 92.8369 41.0377C92.1851 41.7534 92.4195 44.125 92.6399 46.4171C92.7525 47.5679 92.8697 48.756 92.8931 49.8413C92.9682 53.0315 94.3374 54.7342 97.2118 55.1973C98.6996 55.4771 100.218 55.5604 101.727 55.4453H101.756C103.322 55.4453 103.776 53.6864 104.217 52.0071C104.33 51.5861 104.433 51.1885 104.555 50.8236C104.742 50.2623 104.892 49.7103 105.024 49.1817C105.343 48.0076 105.619 46.9972 106.173 46.375C106.974 45.4956 108.541 45.5377 110.351 45.6734C110.665 45.7014 110.848 45.6359 110.89 45.4863C111.016 45.0185 110.233 43.8911 109.333 43.4374C108.32 42.9275 104.911 44.7238 103.683 45.4582C103.637 45.4839 103.585 45.4941 103.533 45.4874C103.482 45.4806 103.434 45.4572 103.397 45.4208C103.36 45.3836 103.337 45.3354 103.331 45.2837C103.325 45.232 103.337 45.1799 103.364 45.1354C103.364 45.1354 104.428 43.3906 105.174 42.3288C105.919 41.2669 107.293 41.4587 108.456 41.6832L108.709 41.73C108.878 41.7627 109.094 41.7627 109.178 41.5756C109.333 41.1499 108.817 40.0881 107.209 39.1619C105.333 38.0813 102.126 42.2633 101.052 43.9613C101.024 44.006 100.981 44.0398 100.931 44.0572C100.881 44.0747 100.827 44.0747 100.777 44.0574C100.727 44.04 100.684 44.0063 100.656 43.9617C100.627 43.917 100.615 43.8641 100.621 43.8116C100.621 43.676 101.01 40.5372 101.559 39.6624C101.906 39.1104 102.651 38.8485 103.434 38.5725C103.935 38.4224 104.416 38.2102 104.864 37.941C105.018 37.8466 105.133 37.7001 105.187 37.5282C105.241 37.3563 105.232 37.1707 105.16 37.0054C104.916 36.4581 103.908 36.0699 101.807 36.5376C98.1543 37.3937 96.5131 45.6547 96.499 45.7342C96.4867 45.7919 96.4538 45.8432 96.4063 45.8785C96.3588 45.9138 96.3001 45.9307 96.2411 45.926C96.1823 45.9189 96.1283 45.89 96.09 45.8448C96.0518 45.7997 96.032 45.7418 96.0348 45.6827C96.0606 44.9194 95.867 44.1647 95.4768 43.5076C95.2224 43.1305 95.1019 42.6792 95.1345 42.2258C95.2095 41.7955 95.73 41.2903 96.3912 40.6728C97.1883 39.915 98.1824 38.9795 98.0699 38.2965C98.0673 38.2612 98.053 38.2278 98.0292 38.2015C98.0054 38.1752 97.9735 38.1576 97.9386 38.1515C97.8839 38.1457 97.8287 38.1472 97.7745 38.1562Z" fill="#231F20"/>
<path d="M14.8856 83.6114V60.4844C14.8856 60.4844 27.8509 69.0307 47.2403 67.1222V89.6785C47.2403 89.6785 34.5422 93.5283 14.8856 83.6114Z" fill="white"/>
<path d="M40.4786 90.6228C34.7954 90.6228 25.858 89.4066 14.7777 83.8213C14.7395 83.8009 14.7075 83.7706 14.6852 83.7335C14.6629 83.6964 14.6511 83.654 14.6511 83.6108V60.4838C14.6495 60.4412 14.6599 60.399 14.681 60.362C14.7021 60.3249 14.7332 60.2945 14.7707 60.2741C14.8082 60.2537 14.8506 60.2441 14.8933 60.2464C14.936 60.2488 14.9771 60.2629 15.0122 60.2873C15.1434 60.3715 28.1416 68.7635 47.2121 66.8923C47.2441 66.8893 47.2763 66.8927 47.3069 66.9023C47.3375 66.912 47.3659 66.9277 47.3903 66.9485C47.4137 66.9709 47.4324 66.9978 47.4453 67.0275C47.4582 67.0572 47.465 67.0892 47.4653 67.1216V89.6779C47.4656 89.7279 47.4498 89.7767 47.4203 89.8171C47.3908 89.8575 47.349 89.8874 47.3012 89.9024C47.2449 89.9211 44.8066 90.6228 40.4786 90.6228ZM15.12 83.4704C33.187 92.5407 45.4443 89.893 47.0058 89.5001V67.3835C29.6562 69.002 17.3614 62.2379 15.12 60.9001V83.4704Z" fill="#231F20"/>
<path d="M75.2388 70.2133V37.16C75.2388 37.16 104.424 36.0654 116.503 24.2446V58.3925C116.503 58.3925 104.424 68.0241 75.2388 70.2133Z" fill="#A6CD67"/>
<path d="M75.2388 70.4471C75.1801 70.4463 75.1236 70.4247 75.0793 70.3863C75.0559 70.3639 75.0372 70.3371 75.0243 70.3073C75.0114 70.2776 75.0046 70.2456 75.0043 70.2132V37.16C75.0043 37.0995 75.0277 37.0414 75.0696 36.9978C75.1116 36.9542 75.1688 36.9285 75.2294 36.9261C75.5201 36.9261 104.461 35.6958 116.329 24.0762C116.362 24.0441 116.403 24.0224 116.449 24.0141C116.494 24.0057 116.54 24.0111 116.582 24.0294C116.628 24.046 116.668 24.0766 116.696 24.1169C116.724 24.1572 116.738 24.2051 116.737 24.2539V58.4018C116.737 58.437 116.729 58.4718 116.714 58.5034C116.698 58.5351 116.676 58.5627 116.648 58.5843C116.526 58.6825 104.189 68.286 75.2669 70.4565L75.2388 70.4471ZM75.4732 37.3845V69.9606C102.782 67.865 115.11 59.1316 116.268 58.2662V24.7919C104.606 35.6444 78.1929 37.2442 75.4732 37.3845Z" fill="#231F20"/>
<path d="M61.0168 109.39V88.5127C61.0168 88.5127 81.1283 88.3631 95.4909 77.6182V99.0986C95.4909 99.0986 82.3474 110.003 61.0168 109.39Z" fill="#A6CD67"/>
<path d="M62.6861 109.666C62.1328 109.666 61.5795 109.666 61.0121 109.666C60.9511 109.663 60.8933 109.638 60.8506 109.594C60.8079 109.551 60.7835 109.493 60.7823 109.432V88.5128C60.7835 88.4511 60.8086 88.3923 60.8523 88.3487C60.896 88.3051 60.955 88.2801 61.0168 88.2789C61.2184 88.2789 81.2174 88.0076 95.3503 77.4311C95.3855 77.4068 95.4267 77.3923 95.4694 77.3893C95.5122 77.3862 95.555 77.3947 95.5934 77.4139C95.6317 77.433 95.6642 77.462 95.6874 77.498C95.7106 77.534 95.7238 77.5755 95.7254 77.6182V99.0986C95.7249 99.1332 95.7171 99.1673 95.7025 99.1988C95.688 99.2302 95.667 99.2582 95.641 99.2811C95.5097 99.398 82.882 109.666 62.6861 109.666ZM61.2512 109.198C81.2314 109.694 94.0748 99.9313 95.2565 99.0144V78.1047C81.8598 87.8906 63.5254 88.6999 61.2512 88.7607V109.198Z" fill="#231F20"/>
<path d="M64.5862 93.1999C64.5862 93.1999 79.1235 92.3629 91.2813 85.2806" stroke="#231F20" stroke-width="0.488976"/>
<path d="M64.5861 99.3119C64.5861 99.3119 66.8809 99.1798 70.4094 98.5763M72.4468 98.1991C77.1848 97.2546 83.4273 95.5401 89.3315 92.4664" stroke="#231F20" stroke-width="0.488976"/>
<path d="M64.5862 96.0534C64.5862 96.0534 74.6792 95.4723 85.0787 91.1814M91.2813 88.1341C89.8583 88.963 88.4028 89.7064 86.9417 90.3729" stroke="#231F20" stroke-width="0.488976"/>
<path d="M64.5861 102.573C64.5861 102.573 69.3512 102.298 75.7066 100.735M85.0787 97.7007C82.5702 98.7357 80.0795 99.5549 77.744 100.202" stroke="#231F20" stroke-width="0.488976"/>
<path d="M64.9441 106.045C64.9441 106.045 68.5487 105.838 73.6693 104.755" stroke="#231F20" stroke-width="0.488976"/>
<path d="M78.5591 43.1068C78.5591 43.1068 99.7481 42.0881 113.195 33.1235" stroke="black" stroke-width="0.488976"/>
<path d="M78.5591 54.1088C78.5591 54.1088 93.8335 53.3744 106.675 47.666" stroke="black" stroke-width="0.488976"/>
<path d="M78.5591 57.9029C78.5591 57.9029 80.1079 57.8284 82.6339 57.5426M84.2638 57.3444C88.5568 56.7868 94.7476 55.7038 100.97 53.6488M102.594 53.09C102.751 53.0339 102.907 52.9772 103.064 52.9197M104.554 52.3508C104.733 52.2797 104.913 52.2077 105.091 52.1348M103.541 52.7423C103.707 52.6799 103.872 52.6169 104.037 52.5531L103.541 52.7423Z" stroke="black" stroke-width="0.488976"/>
<path d="M78.5591 50.4413C78.5591 50.4413 88.4052 49.9679 98.9331 46.8269C99.6347 46.6176 100.339 46.3964 101.044 46.1627M113.195 40.458C110.093 42.526 106.579 44.1712 103.008 45.4786" stroke="black" stroke-width="0.488976"/>
<path d="M78.5591 46.7742C78.5591 46.7742 83.2219 46.5501 89.561 45.3866M97.7106 43.5137C95.6064 44.1046 93.5441 44.5909 91.5984 44.9906M99.748 42.9118C103.412 41.7735 107.129 40.3071 110.517 38.4209" stroke="black" stroke-width="0.488976"/>
</g>
<defs>
<clipPath id="clip0_258_1052">
<rect width="116.539" height="110.02" fill="white" transform="translate(0.322845 0.117676)"/>
</clipPath>
</defs>
</svg>
