<svg width="79" height="74" viewBox="0 0 79 74" fill="none" xmlns="http://www.w3.org/2000/svg">
<g clip-path="url(#clip0_244_1632)">
<path d="M54.9366 16.2931C54.9366 16.2931 56.2339 15.3981 61.22 19.5769C66.2061 23.7558 66.4061 27.5354 66.4061 27.5354V11.0072C66.4061 11.0072 63.8115 3.83458 55.4368 1.05908L54.9366 16.2931Z" fill="#D1D3D4"/>
<path d="M66.4061 27.6914C66.366 27.6923 66.3272 27.6774 66.2979 27.65C66.2687 27.6226 66.2514 27.5848 66.2498 27.5449C66.2498 27.5074 65.9872 23.7746 61.1199 19.6955C56.3589 15.7069 55.046 16.4179 55.021 16.4242C54.9964 16.4387 54.9683 16.4464 54.9397 16.4464C54.9111 16.4464 54.883 16.4387 54.8584 16.4242C54.8344 16.4103 54.8144 16.3903 54.8007 16.3662C54.7869 16.342 54.7799 16.3147 54.7803 16.287L55.2805 1.0654C55.2806 1.04113 55.2866 1.01725 55.2978 0.995729C55.3091 0.974209 55.3253 0.955671 55.3451 0.94165C55.365 0.92763 55.3879 0.918529 55.412 0.915104C55.4361 0.911678 55.4607 0.914026 55.4837 0.921951C63.8365 3.69744 66.528 10.9013 66.553 10.9636C66.5558 10.9812 66.5558 10.9991 66.553 11.0166V27.5449C66.553 27.5857 66.537 27.6249 66.5084 27.654C66.4797 27.6832 66.4408 27.7 66.3998 27.7008L66.4061 27.6914ZM55.3586 16.0655C56.1182 16.0655 57.8376 16.552 61.32 19.471C64.5086 22.1436 65.759 24.6384 66.2498 26.1259V11.0509C65.2442 8.77689 63.7773 6.73529 61.9415 5.0548C60.1058 3.37431 57.9411 2.09136 55.5837 1.28682L55.0991 16.0655C55.1854 16.0566 55.2724 16.0566 55.3586 16.0655Z" fill="#231F20"/>
<path d="M15.3139 21.9061V7.19603C21.0421 5.2093 27.1123 4.39164 33.1636 4.79164V18.9061C33.1636 18.9061 22.2381 19.2055 15.3139 21.9061Z" fill="#D1D3D4"/>
<path d="M15.317 22.0621C15.285 22.0631 15.2534 22.0544 15.2264 22.0372C15.2061 22.0218 15.1896 22.002 15.1782 21.9793C15.1668 21.9566 15.1608 21.9316 15.1607 21.9062V7.19607C15.1602 7.16476 15.1692 7.13403 15.1865 7.10789C15.2038 7.08174 15.2286 7.0614 15.2576 7.0495C21.0137 5.06554 27.1082 4.245 33.1855 4.63576C33.2248 4.6389 33.2614 4.65671 33.2881 4.68561C33.3147 4.71452 33.3295 4.7524 33.3293 4.79169V18.9062C33.3294 18.9465 33.3138 18.9852 33.2858 19.0143C33.2578 19.0433 33.2197 19.0605 33.1793 19.0621C33.0699 19.0621 22.1912 19.3927 15.3608 22.0528C15.3466 22.0577 15.3319 22.0608 15.317 22.0621ZM15.4733 7.3021V21.6785C21.9036 19.2398 31.6819 18.8001 33.0167 18.7502V4.93826C27.0704 4.57765 21.1107 5.38067 15.4733 7.3021Z" fill="#231F20"/>
<path d="M8.4678 30.0986C8.4678 30.0986 3.1535 32.3003 1.14345 38.8055V25.7825C1.14345 25.7825 1.02778 19.4769 8.4678 15.4727V30.0986Z" fill="#D1D3D4"/>
<path d="M1.12783 38.9489H1.10595C1.06866 38.943 1.03469 38.9241 1.01008 38.8955C0.985461 38.867 0.9718 38.8307 0.971527 38.793V25.7825C0.971527 25.7201 0.971528 19.3396 8.37715 15.3354C8.40111 15.3223 8.42799 15.3154 8.45531 15.3154C8.48262 15.3154 8.5095 15.3223 8.53346 15.3354C8.55629 15.3496 8.57515 15.3694 8.58827 15.3928C8.60139 15.4163 8.60834 15.4426 8.60848 15.4695V30.0985C8.60833 30.1293 8.59904 30.1594 8.5818 30.1849C8.56455 30.2104 8.54012 30.2303 8.51157 30.242C6.78263 31.106 5.24904 32.3135 4.00508 33.7905C2.76111 35.2674 1.83303 36.9825 1.27788 38.8304C1.26957 38.864 1.25032 38.8938 1.22316 38.9153C1.196 38.9367 1.16247 38.9486 1.12783 38.9489ZM8.29588 15.7533C1.27788 19.6514 1.27788 25.7326 1.27788 25.7794V37.8543C2.54325 34.4472 5.04593 31.6389 8.28963 29.9863L8.29588 15.7533Z" fill="#231F20"/>
<path d="M1.12778 25.7827C1.12778 25.7827 2.43134 31.4397 7.44866 33.3171V48.5386C7.44866 48.5386 1.73111 44.5999 1.12778 38.7932V25.7827Z" fill="white"/>
<path d="M7.44867 48.6944C7.41724 48.6946 7.38656 48.6848 7.36114 48.6663C7.30175 48.6258 1.57481 44.6122 0.974609 38.8087V25.7825C0.9751 25.744 0.989642 25.7069 1.01552 25.6782C1.04141 25.6495 1.07686 25.6312 1.11528 25.6266C1.15361 25.6219 1.19229 25.6319 1.22359 25.6544C1.25489 25.677 1.2765 25.7105 1.28409 25.7482C1.28409 25.8044 2.63142 31.3616 7.50807 33.1704C7.53769 33.1818 7.56313 33.2019 7.581 33.2281C7.59887 33.2543 7.60832 33.2852 7.6081 33.3169V48.5385C7.60788 48.5668 7.5999 48.5946 7.58502 48.6188C7.57015 48.643 7.54895 48.6626 7.5237 48.6757C7.50087 48.6886 7.47492 48.6951 7.44867 48.6944ZM1.27784 26.7961V38.7931C1.79364 43.7609 6.192 47.3971 7.28612 48.2297V33.423C3.60362 31.9915 1.90305 28.505 1.27784 26.7961Z" fill="#231F20"/>
<path d="M42.4262 32.7745C42.4262 32.7745 48.4657 53.1292 50.9071 54.1489C53.3486 55.1687 57.1092 52.4369 57.425 50.6998C57.7407 48.9628 52.8234 28.8296 52.8234 28.8296L42.4262 32.7745Z" fill="white"/>
<path d="M52.0856 54.5295C51.657 54.5363 51.2315 54.4557 50.8352 54.2925C49.7786 53.8528 48.0218 50.098 45.5897 43.1312C43.7953 37.9701 42.2792 32.8682 42.2636 32.8183C42.2515 32.7806 42.2545 32.7398 42.272 32.7043C42.2895 32.6688 42.3201 32.6415 42.3574 32.628L52.7546 28.6862C52.7749 28.6777 52.7967 28.6733 52.8187 28.6733C52.8407 28.6733 52.8625 28.6777 52.8828 28.6862C52.9026 28.6966 52.9198 28.7112 52.9333 28.729C52.9468 28.7468 52.9562 28.7673 52.9609 28.7891C53.1641 29.6124 57.8876 48.9691 57.5688 50.7218C57.3874 51.7041 56.2152 52.9546 54.7178 53.7654C53.914 54.2259 53.0115 54.4878 52.0856 54.5295ZM42.6168 32.8682C42.87 33.7195 44.2705 38.3505 45.8992 43.0283C49.0252 52.0502 50.4226 53.7779 50.9696 54.0056C51.9262 54.4079 53.2454 54.2207 54.5834 53.4972C55.9807 52.7426 57.1123 51.5513 57.2718 50.6719C57.5156 49.334 54.4208 36.0397 52.7109 29.0386L42.6168 32.8682Z" fill="#231F20"/>
<path d="M52.8578 49.7453C52.6014 43.1496 62.883 34.0747 62.883 34.0747L68.5099 37.6361C68.5099 37.6361 64.3241 49.5333 60.2071 53.5406C58.1721 55.5271 52.9984 53.7994 52.8578 49.7453Z" fill="white"/>
<path d="M57.9345 54.5327C57.2578 54.526 56.5885 54.3916 55.962 54.1366C54.4364 53.5316 52.7734 52.0628 52.6859 49.7551C52.5764 46.9796 54.2489 43.4775 57.6375 39.3423C59.2159 37.4297 60.9292 35.6319 62.7643 33.9628C62.7913 33.9426 62.8242 33.9316 62.858 33.9316C62.8919 33.9316 62.9248 33.9426 62.9518 33.9628L68.5787 37.5211C68.609 37.5397 68.6321 37.5681 68.644 37.6015C68.6559 37.635 68.6561 37.6715 68.6444 37.7051C68.6006 37.8236 64.4023 49.6833 60.3041 53.6844C59.6549 54.2639 58.8049 54.5682 57.9345 54.5327ZM52.9985 49.7457C53.0797 51.9037 54.6428 53.279 56.0776 53.8497C57.6094 54.4578 59.2256 54.2988 60.0946 53.4474C63.924 49.7052 67.8691 38.9494 68.3161 37.7051L62.8862 34.2747C61.889 35.1759 52.7609 43.6303 52.9985 49.7426V49.7457Z" fill="#231F20"/>
<path d="M57.303 53.3411C57.2707 53.341 57.2391 53.3312 57.2124 53.3131C57.1789 53.2887 57.1563 53.2522 57.1493 53.2115C57.1423 53.1707 57.1514 53.1289 57.1749 53.0948C57.2561 52.9825 65.3026 41.6903 66.7781 35.2318C66.7825 35.2117 66.7909 35.1927 66.8028 35.1758C66.8146 35.1589 66.8297 35.1446 66.8471 35.1336C66.8646 35.1226 66.884 35.1151 66.9044 35.1116C66.9247 35.1081 66.9455 35.1087 66.9657 35.1133C66.9858 35.1177 67.0047 35.1261 67.0215 35.1379C67.0383 35.1498 67.0525 35.1649 67.0633 35.1824C67.0741 35.1998 67.0813 35.2193 67.0844 35.2396C67.0875 35.2599 67.0864 35.2805 67.0813 35.3004C65.5902 41.8182 57.5125 53.1634 57.4312 53.2756C57.4168 53.2962 57.3977 53.3129 57.3753 53.3243C57.353 53.3358 57.3281 53.3415 57.303 53.3411Z" fill="#D1D3D4"/>
<path d="M44.4956 37.0345C49.1018 37.0345 52.8359 33.3094 52.8359 28.7143C52.8359 24.1191 49.1018 20.394 44.4956 20.394C39.8894 20.394 36.1553 24.1191 36.1553 28.7143C36.1553 33.3094 39.8894 37.0345 44.4956 37.0345Z" fill="#231F20"/>
<path d="M44.4956 37.1901C42.8151 37.1901 41.1724 36.693 39.7751 35.7616C38.3779 34.8303 37.2889 33.5065 36.6458 31.9577C36.0027 30.4088 35.8344 28.7046 36.1623 27.0603C36.4901 25.4161 37.2993 23.9058 38.4876 22.7204C39.6759 21.535 41.1898 20.7277 42.838 20.4007C44.4862 20.0736 46.1946 20.2415 47.7471 20.883C49.2997 21.5245 50.6267 22.611 51.5603 24.0049C52.4939 25.3988 52.9922 27.0375 52.9922 28.714C52.9898 30.9612 52.0938 33.1157 50.5009 34.7048C48.908 36.2938 46.7483 37.1877 44.4956 37.1901ZM44.4956 20.5496C42.877 20.5496 41.2947 21.0285 39.9488 21.9256C38.603 22.8227 37.554 24.0978 36.9346 25.5896C36.3151 27.0815 36.1531 28.723 36.4689 30.3067C36.7846 31.8905 37.5641 33.3452 38.7086 34.487C39.8532 35.6288 41.3115 36.4064 42.899 36.7214C44.4865 37.0364 46.1321 36.8747 47.6275 36.2568C49.1229 35.6389 50.4011 34.5924 51.3004 33.2498C52.1996 31.9072 52.6796 30.3287 52.6796 28.714C52.6763 26.5497 51.813 24.475 50.2789 22.9446C48.7449 21.4142 46.6651 20.5529 44.4956 20.5496Z" fill="#231F20"/>
<path d="M32.6666 22.6142C32.6666 22.6142 20.8595 26.0165 18.5524 32.0197C16.2454 38.0229 23.6948 68.5065 23.6948 68.5065C23.6948 68.5065 36.4804 75.2675 49.3285 68.1635C49.3285 68.1635 52.9391 42.3389 51.0353 35.8337C49.1315 29.3284 44.73 22.9479 41.9979 21.9905C39.2657 21.0331 32.6666 22.6142 32.6666 22.6142Z" fill="white"/>
<path d="M36.6273 71.5223C32.1307 71.5158 27.6904 70.5247 23.6198 68.619C23.6003 68.609 23.5831 68.595 23.5696 68.5777C23.5561 68.5605 23.5466 68.5405 23.5416 68.5192C23.5229 68.4443 21.666 60.8008 20.103 52.5242C18.0117 41.3879 17.4396 34.4679 18.4055 31.9419C19.3715 29.4159 22.0693 27.0458 26.4051 24.9003C28.4103 23.919 30.4892 23.0952 32.6228 22.4366C32.8917 22.3711 39.2876 20.8774 42.0385 21.841C44.9833 22.8607 49.3316 29.4939 51.1666 35.7559C53.061 42.2206 49.6036 67.094 49.466 68.1481C49.4636 68.1723 49.4552 68.1955 49.4416 68.2156C49.4279 68.2358 49.4095 68.2522 49.3879 68.2635C45.4849 70.4234 41.0906 71.5456 36.6273 71.5223ZM23.8292 68.3757C24.8077 68.8653 37.0368 74.7095 49.1784 68.0389C49.3941 66.4797 52.7015 42.0771 50.879 35.8525C48.8971 29.0916 44.53 23.0385 41.9479 22.131C39.3063 21.2173 32.8979 22.6923 32.7072 22.736C32.4446 22.8108 20.9376 26.2256 18.6994 32.0479C16.4893 37.8141 23.4354 66.7478 23.8292 68.3757Z" fill="#231F20"/>
<path d="M43.7641 70.1063C43.7234 70.1056 43.6846 70.0893 43.6555 70.0609C43.6265 70.0325 43.6094 69.9941 43.6078 69.9535C43.6078 69.6198 43.0138 36.6975 42.67 34.0904C42.2886 31.2837 36.1647 28.8762 36.1053 28.8513C36.0672 28.8354 36.0368 28.8053 36.0205 28.7675C36.0042 28.7297 36.0032 28.6871 36.0177 28.6486C36.025 28.6296 36.0359 28.6123 36.05 28.5976C36.064 28.583 36.0808 28.5712 36.0994 28.5631C36.118 28.555 36.1381 28.5506 36.1584 28.5503C36.1788 28.55 36.1989 28.5537 36.2178 28.5613C36.4773 28.661 42.5793 31.0561 42.9826 34.0499C43.3327 36.6632 43.9016 68.5814 43.9204 69.9379C43.9208 69.9584 43.9172 69.9788 43.9097 69.9978C43.9022 70.0169 43.8911 70.0343 43.8768 70.0491C43.8626 70.0639 43.8456 70.0757 43.8268 70.0839C43.808 70.0921 43.7878 70.0966 43.7672 70.097L43.7641 70.1063Z" fill="#D1D3D4"/>
<path d="M29.6562 21.9907L30.1564 29.1977C30.1564 29.1977 33.1324 32.3723 36.1553 32.0043C39.4439 31.5989 41.8041 29.1977 41.8041 29.1977L41.3445 24.1519L29.6562 21.9907Z" fill="#231F20"/>
<path d="M35.6645 32.1914C32.7948 32.1914 30.1751 29.4347 30.0595 29.3099C30.034 29.2838 30.0185 29.2496 30.0157 29.2132L29.5186 22.0063C29.5164 21.9831 29.5198 21.9596 29.5285 21.9379C29.5372 21.9162 29.551 21.8969 29.5687 21.8816C29.5864 21.8649 29.6078 21.8528 29.6312 21.8463C29.6547 21.8398 29.6793 21.8391 29.7031 21.8442L41.3914 23.9928C41.4247 23.9995 41.4549 24.0168 41.4775 24.0421C41.5 24.0674 41.5137 24.0994 41.5165 24.1332L41.976 29.1789C41.9777 29.2016 41.9747 29.2244 41.9671 29.2459C41.9596 29.2673 41.9477 29.287 41.9322 29.3037C41.8322 29.4035 39.4939 31.7549 36.1896 32.1603C36.0154 32.1815 35.84 32.1919 35.6645 32.1914ZM30.3252 29.1353C30.6784 29.4939 33.4262 32.1883 36.1521 31.8515C39.0844 31.4898 41.2976 29.4783 41.6571 29.1353L41.2163 24.2797L29.8438 22.1872L30.3252 29.1353Z" fill="#231F20"/>
<path d="M44.0048 37.7109C44.0048 37.7109 37.4026 39.8127 37.3338 48.3139C37.265 56.815 43.1264 54.8628 46.5119 52.0561C49.8974 49.2494 50.4257 45.1018 50.1256 42.5976C49.8255 40.0934 48.2187 36.5102 44.0048 37.7109Z" fill="white"/>
<path d="M41.0913 54.6197C40.5618 54.6313 40.0363 54.5248 39.5533 54.3079C37.9496 53.547 37.1494 51.5355 37.1775 48.3297C37.2463 39.8098 43.8891 37.5957 43.9579 37.5738C45.4709 37.1435 46.7714 37.2807 47.8405 37.9855C49.7349 39.2329 50.185 41.8431 50.2757 42.6103C50.6227 45.4949 49.8443 49.5303 46.6088 52.206C45.1146 53.4316 42.967 54.6197 41.0913 54.6197ZM44.0517 37.8607C43.9079 37.9075 37.5589 40.0811 37.487 48.3203C37.4589 51.3952 38.1997 53.3099 39.6752 54.0147C41.6634 54.9503 44.5394 53.4908 46.3994 51.9534C49.5254 49.3588 50.2944 45.4388 49.9568 42.6321C49.8693 41.8992 49.441 39.4169 47.656 38.2318C46.687 37.5832 45.4709 37.4553 44.0517 37.8607Z" fill="#231F20"/>
<path d="M48.5189 44.918C48.3969 47.4128 45.8148 51.0896 44.008 51.7788C42.9045 52.2029 41.4258 52.5709 40.463 51.5106C39.8534 50.8338 39.4502 49.5833 39.4908 47.4066C39.5908 41.7932 43.7672 40.2495 44.9551 40.0001C45.5055 39.9143 46.0688 40.0177 46.5526 40.2932C47.6185 40.8701 48.647 42.2423 48.5189 44.918Z" fill="white"/>
<path d="M42.1354 52.368C41.8017 52.3783 41.4697 52.3164 41.1621 52.1867C40.8545 52.057 40.5787 51.8625 40.3536 51.6165C39.644 50.8306 39.3032 49.4117 39.3407 47.4033C39.4533 41.0665 44.7082 39.8939 44.9301 39.8471C45.516 39.7578 46.115 39.8677 46.6307 40.159C47.4622 40.6018 48.8189 41.8025 48.6814 44.9179C48.5532 47.5562 45.893 51.2204 44.0705 51.9252C43.458 52.1895 42.8021 52.3395 42.1354 52.368ZM45.3178 40.1309C45.2127 40.1318 45.1079 40.1433 45.0052 40.1652C44.7895 40.2089 39.769 41.3284 39.6627 47.4189C39.6283 49.3493 39.9409 50.6934 40.6005 51.42C41.5227 52.4335 42.967 52.0437 43.9736 51.6445C45.6929 50.9772 48.2656 47.3815 48.3844 44.9116C48.5251 41.9677 47.2653 40.8575 46.5088 40.4428C46.144 40.2414 45.7346 40.1342 45.3178 40.1309Z" fill="#231F20"/>
<path d="M48.5188 44.9182C48.3969 47.4131 45.8148 51.0898 44.0079 51.779C42.9044 52.2031 41.4258 52.5711 40.463 51.5108C41.529 51.6262 43.1139 51.2395 44.8395 48.9411C47.1527 45.8632 47.3403 42.5107 46.5494 40.2935C47.6185 40.8704 48.647 42.2425 48.5188 44.9182Z" fill="#231F20"/>
<path d="M42.1354 52.368C41.8017 52.3783 41.4696 52.3164 41.1621 52.1867C40.8545 52.057 40.5787 51.8625 40.3536 51.6165C40.3316 51.5932 40.3173 51.5638 40.3126 51.5322C40.3079 51.5006 40.3131 51.4683 40.3274 51.4397C40.3418 51.4111 40.3646 51.3876 40.3927 51.3724C40.4209 51.3572 40.453 51.3509 40.4849 51.3545C41.4821 51.4606 43.0201 51.1113 44.7238 48.8597C47.0808 45.7225 47.1402 42.4106 46.4119 40.3555C46.4016 40.3262 46.4002 40.2946 46.408 40.2646C46.4158 40.2346 46.4324 40.2076 46.4556 40.1871C46.4792 40.1663 46.5086 40.153 46.5398 40.1492C46.571 40.1453 46.6027 40.1509 46.6307 40.1652C47.4622 40.6081 48.8189 41.8087 48.6814 44.9241C48.5532 47.5624 45.8929 51.2267 44.0705 51.9315C43.4576 52.1936 42.8017 52.3415 42.1354 52.368ZM40.885 51.6944C41.7978 52.3493 43.0482 51.9907 43.9485 51.6445C45.6679 50.9772 48.2406 47.3815 48.3594 44.9116C48.4813 42.3856 47.5716 41.2037 46.8276 40.6611C47.4372 42.8066 47.2434 46.0094 44.952 49.0468C43.4077 51.1238 41.9479 51.6664 40.8881 51.6944H40.885Z" fill="#231F20"/>
<path d="M13.704 43.7174C13.704 43.7174 14.4073 64.9234 16.5174 66.5357C18.6275 68.148 22.9508 66.4359 23.7073 64.833C24.4639 63.2301 24.7765 42.5137 24.7765 42.5137L13.704 43.7174Z" fill="white"/>
<path d="M18.6994 67.3373C17.8859 67.3672 17.0852 67.1295 16.4205 66.6606C15.5077 65.9683 14.7512 61.8893 14.1635 54.5389C13.729 49.0939 13.5383 43.7737 13.5383 43.7207C13.538 43.6816 13.5522 43.6437 13.5782 43.6144C13.6041 43.585 13.64 43.5663 13.6789 43.5617L24.7358 42.361C24.7576 42.3584 24.7798 42.3603 24.8008 42.3668C24.8218 42.3732 24.8412 42.384 24.8577 42.3984C24.8743 42.4135 24.8876 42.4318 24.8967 42.4522C24.9058 42.4725 24.9107 42.4946 24.9109 42.5169C24.9109 43.3652 24.5795 63.2864 23.8261 64.9018C23.4041 65.8061 21.9505 66.723 20.2999 67.1315C19.7762 67.2617 19.2391 67.3308 18.6994 67.3373ZM13.8665 43.8548C13.8978 44.7436 14.0822 49.5773 14.4917 54.5139C15.2514 64.0317 16.1548 66.0525 16.6237 66.4111C17.4521 67.0348 18.7713 67.1908 20.2499 66.829C21.7942 66.4486 23.1884 65.5816 23.5667 64.7677C24.1419 63.5358 24.5045 49.8923 24.6201 42.6885L13.8665 43.8548Z" fill="#231F20"/>
<path d="M21.2565 60.5764C25.7955 55.7707 39.4876 56.7281 39.4876 56.7281L40.8944 63.2334C40.8944 63.2334 29.4561 68.5972 23.7011 68.4819C20.8689 68.4288 18.4712 63.5234 21.2565 60.5764Z" fill="white"/>
<path d="M23.873 68.6407H23.6917C22.3319 68.6157 21.0033 67.5273 20.3062 65.8745C19.681 64.362 19.5559 62.151 21.1408 60.4732C23.0509 58.4493 26.724 57.1801 32.0602 56.6967C34.5331 56.4798 37.0183 56.4392 39.497 56.5751C39.5312 56.5764 39.5639 56.5892 39.5899 56.6112C39.616 56.6332 39.6339 56.6633 39.6408 56.6967L41.0476 63.2019C41.0551 63.2366 41.0505 63.2729 41.0346 63.3046C41.0187 63.3364 40.9924 63.3618 40.96 63.3766C40.8475 63.4265 29.6593 68.6407 23.873 68.6407ZM36.7555 56.809C32.5384 56.809 24.5639 57.2861 21.369 60.6822C19.8873 62.2414 19.9967 64.3309 20.5938 65.7498C21.2346 67.2654 22.4694 68.3039 23.698 68.3257C29.0435 68.4442 39.5127 63.6978 40.7162 63.1427L39.3595 56.8744C39.0375 56.8557 38.0809 56.809 36.7555 56.809Z" fill="#231F20"/>
<path d="M22.2224 66.3612C22.1864 66.3612 22.1515 66.3488 22.1236 66.3261C22.0956 66.3033 22.0765 66.2717 22.0692 66.2365C22.0619 66.1956 22.0708 66.1534 22.0942 66.119C22.1176 66.0847 22.1535 66.0608 22.1943 66.0525C22.3256 66.0275 35.5144 63.4048 39.6502 60.751C39.6849 60.7312 39.726 60.7254 39.7649 60.735C39.8037 60.7445 39.8375 60.7685 39.8591 60.8021C39.8808 60.8357 39.8887 60.8762 39.8812 60.9155C39.8737 60.9547 39.8515 60.9896 39.819 61.0129C35.6332 63.7042 22.7976 66.2552 22.2537 66.3612H22.2224Z" fill="#D1D3D4"/>
<path d="M39.1219 57.7602C39.1219 57.7602 41.9917 55.0783 43.2671 54.018C44.5425 52.9577 47.0809 51.4889 47.0183 52.7706C46.9558 54.0523 44.5894 54.6823 44.4987 55.0253C44.4987 55.0253 49.3316 54.28 51.5855 55.0253C53.8394 55.7706 54.4427 56.3725 53.7738 56.7405C53.1048 57.1085 50.6289 56.2384 49.4911 56.3725C48.3532 56.5066 47.2841 56.7405 47.2841 56.7405C47.2841 56.7405 51.2323 56.9744 52.5014 57.7727C53.7706 58.5711 54.3083 59.3756 53.5049 59.6438C52.7015 59.912 50.2288 57.9754 47.8217 58.3091C47.8217 58.3091 52.9766 59.9775 52.8391 61.3091C52.7015 62.6407 52.142 62.4443 51.5886 62.1106C51.0353 61.7769 48.35 60.6386 47.1465 60.4391C47.1465 60.4391 52.6421 64.8487 51.1666 65.1169C49.6911 65.3851 46.5807 62.0482 46.5807 62.0482C46.5807 62.0482 40.6006 64.8549 39.1282 63.1834C37.6558 61.5118 39.1219 57.7602 39.1219 57.7602Z" fill="#231F20"/>
<path d="M50.9821 65.2725C49.5191 65.2725 47.0121 62.7278 46.5275 62.2195C45.696 62.6 40.4348 64.9014 38.9937 63.2705C37.4776 61.549 38.9062 57.8598 38.9656 57.7039C38.9743 57.6821 38.9883 57.6629 39.0062 57.6477C39.0344 57.6197 41.8947 54.9471 43.1576 53.9055C43.9985 53.207 46.0992 51.8005 46.8745 52.1872C46.9777 52.2428 47.0609 52.3292 47.1125 52.4343C47.1641 52.5395 47.1814 52.658 47.1621 52.7735C47.1121 53.709 45.9773 54.314 45.2271 54.7101L45.0895 54.7818C46.4775 54.6072 49.8224 54.2797 51.623 54.8754C54.1238 55.6987 54.1582 56.207 54.1738 56.3754C54.1895 56.5438 54.1363 56.7091 53.8362 56.8743C53.4236 57.0989 52.5514 56.9398 51.5417 56.7527C50.8723 56.5924 50.1856 56.516 49.4973 56.5251C49.1221 56.5687 48.7533 56.6249 48.4282 56.6779C49.7098 56.8089 51.7105 57.0958 52.5733 57.6384C53.1454 58.0001 54.0988 58.6956 54.0238 59.2943C54.005 59.4534 53.905 59.6654 53.5424 59.7871C53.1798 59.9087 52.5796 59.6685 51.7699 59.3286C50.8571 58.9482 49.7661 58.4897 48.6439 58.4274C50.1381 58.9731 53.0985 60.1956 52.9828 61.3245C52.9172 61.9482 52.7577 62.3131 52.4795 62.4503C52.2013 62.5875 51.8231 62.4503 51.4948 62.2413C50.2959 61.6344 49.0459 61.1335 47.7592 60.7444C51.5792 63.8848 51.5855 64.7985 51.548 64.9638C51.5276 65.0481 51.4809 65.1238 51.4146 65.1798C51.3483 65.2359 51.2658 65.2695 51.1791 65.2757C51.1135 65.2811 51.0475 65.28 50.9821 65.2725ZM46.5744 61.8765C46.5961 61.8761 46.6177 61.8804 46.6376 61.889C46.6576 61.8976 46.6754 61.9103 46.6901 61.9264C47.5372 62.837 49.9912 65.1572 51.1322 64.9482C51.2416 64.9295 51.251 64.8921 51.2541 64.8796C51.3917 64.3339 48.8752 62.0168 47.0433 60.548C47.016 60.5262 46.9967 60.4961 46.9882 60.4623C46.9797 60.4285 46.9826 60.3929 46.9964 60.3609C47.0105 60.3292 47.0347 60.3032 47.0653 60.2868C47.0959 60.2704 47.131 60.2647 47.1652 60.2704C48.3594 60.47 51.0697 61.6083 51.6636 61.9638C51.9075 62.1104 52.1794 62.2476 52.3482 62.1634C52.4639 62.1041 52.6171 61.9045 52.6796 61.2808C52.7702 60.4014 49.7161 59.0729 47.7686 58.443C47.748 58.4411 47.7281 58.4353 47.7098 58.4257C47.6916 58.4162 47.6754 58.4032 47.6622 58.3874C47.6355 58.3555 47.6226 58.3144 47.6263 58.273C47.6301 58.2317 47.6501 58.1935 47.682 58.1669C47.714 58.1402 47.7552 58.1274 47.7967 58.1311C49.2784 57.9253 50.7946 58.5584 51.9012 59.023C52.5921 59.313 53.186 59.5625 53.4642 59.4721C53.633 59.4159 53.7237 59.338 53.7362 59.2382C53.7643 59.0105 53.4236 58.5209 52.4295 57.8848C51.2072 57.1145 47.3247 56.8743 47.284 56.8743C47.2466 56.8721 47.2113 56.8563 47.1848 56.8299C47.1583 56.8034 47.1424 56.7682 47.1402 56.7309C47.1364 56.6932 47.1467 56.6553 47.1692 56.6248C47.1918 56.5943 47.2249 56.5732 47.2621 56.5656C47.2621 56.5656 48.3531 56.3286 49.4848 56.1945C50.2035 56.1814 50.921 56.26 51.6199 56.4284C52.4514 56.5812 53.3923 56.7402 53.7081 56.5812C53.7925 56.5344 53.8894 56.4627 53.8831 56.3847C53.8769 56.3068 53.7299 55.8733 51.548 55.1529C49.366 54.4325 44.58 55.1529 44.5331 55.1529C44.5074 55.1559 44.4813 55.153 44.4569 55.1443C44.4325 55.1357 44.4105 55.1215 44.3924 55.103C44.3757 55.0835 44.3639 55.0604 44.3579 55.0354C44.352 55.0105 44.352 54.9845 44.358 54.9596C44.4018 54.7849 44.6175 54.6664 45.102 54.4107C45.7898 54.0458 46.8307 53.4939 46.8714 52.7329C46.8714 52.5053 46.7932 52.4585 46.7588 52.4429C46.2774 52.1997 44.5487 53.1477 43.3796 54.1207C42.2104 55.0937 39.5595 57.5511 39.2688 57.8349C39.1313 58.1997 37.9309 61.549 39.2501 63.049C39.8096 63.6727 41.232 63.6727 43.3639 63.049C44.4415 62.7242 45.4963 62.3283 46.5213 61.864C46.5397 61.8643 46.5578 61.8686 46.5744 61.8765Z" fill="#231F20"/>
<path d="M44.5394 8.38428C44.5394 8.38428 45.4084 16.7264 45.2084 21.1297C45.0083 25.5331 43.2702 26.9333 39.5815 27.6786C35.8927 28.424 30.0814 25.2088 26.8053 21.005C23.5292 16.8012 23.1603 14.5902 24.245 8.38428H44.5394Z" fill="white"/>
<path d="M38.5029 27.9158C34.883 27.9158 29.75 25.0218 26.6927 21.0831C23.4385 16.9199 22.9758 14.6558 24.0981 8.35639C24.1041 8.32032 24.1228 8.28759 24.1509 8.26413C24.179 8.24067 24.2146 8.22804 24.2513 8.22853H44.5456C44.5845 8.22833 44.6221 8.24261 44.651 8.26856C44.6799 8.2945 44.698 8.33027 44.7019 8.36886C44.7019 8.45306 45.571 16.7702 45.3709 21.1361C45.1552 25.8358 43.1826 27.1112 39.6283 27.8223C39.2571 27.8895 38.8802 27.9208 38.5029 27.9158ZM24.3763 8.54038C23.2978 14.6995 23.7511 16.7983 26.9365 20.8991C30.2783 25.184 36.0584 28.2152 39.5596 27.5166C42.9638 26.8368 44.8488 25.6175 45.052 21.1237C45.2365 17.0914 44.5112 9.65058 44.3987 8.54038H24.3763Z" fill="#231F20"/>
<path d="M24.245 8.38422C24.245 8.38422 24.9421 11.2533 32.032 11.7211C39.1219 12.1888 44.5362 10.3208 44.5362 8.38422C44.5362 6.44761 39.4908 4.64198 34.389 4.51412C29.2873 4.38626 24.5357 6.58171 24.245 8.38422Z" fill="white"/>
<path d="M34.2703 11.9522C33.5513 11.9522 32.8021 11.9272 32.0226 11.8773C24.8984 11.4064 24.1231 8.54364 24.0981 8.42201C24.0934 8.40149 24.0934 8.38017 24.0981 8.35964C24.4107 6.44486 29.2248 4.22759 34.4141 4.35857C39.2782 4.48643 44.7144 6.22968 44.7144 8.38459C44.7002 8.61899 44.6373 8.84788 44.5297 9.05672C44.4221 9.26557 44.2721 9.44979 44.0892 9.5977C42.7731 10.8046 39.2501 11.9522 34.2703 11.9522ZM24.4107 8.37523C24.4576 8.51245 24.7045 9.12368 25.6111 9.77546C26.5645 10.4615 28.4527 11.3347 32.0476 11.5655C37.8496 11.9491 42.3793 10.7484 43.8579 9.38252C44.0096 9.26354 44.1351 9.11461 44.2266 8.94505C44.318 8.77549 44.3734 8.58895 44.3893 8.39706C44.3893 6.62262 39.5314 4.81699 34.3859 4.68289C29.4749 4.52697 24.7452 6.62574 24.4107 8.37523Z" fill="#231F20"/>
<path d="M28.0463 20.8179C29.2311 21.2794 32.0164 21.3948 31.6131 17.6432C31.2099 13.8916 29.7375 11.8178 27.1804 11.8115C24.6233 11.8053 24.592 14.8396 24.8921 16.0403C25.1922 17.2409 25.4923 19.8074 28.0463 20.8179Z" fill="#231F20"/>
<path d="M29.3061 21.2014C28.8566 21.1999 28.4109 21.1186 27.99 20.9613C25.6298 20.0257 25.1328 17.824 24.8358 16.4986C24.8045 16.3458 24.7701 16.2055 24.7389 16.0776C24.5201 15.2045 24.4857 13.5298 25.2859 12.51C25.5084 12.2296 25.7945 12.0059 26.1206 11.8573C26.4466 11.7088 26.8035 11.6396 27.1616 11.6556C29.7468 11.6556 31.3349 13.7263 31.7506 17.6276C31.9069 19.1026 31.6037 20.1473 30.841 20.7274C30.3948 21.048 29.8558 21.2145 29.3061 21.2014ZM28.1057 20.6712C28.6715 20.8927 29.8531 21.1016 30.6721 20.4779C31.338 19.9696 31.61 19.0215 31.4599 17.6712C31.0566 13.9009 29.6155 11.9861 27.1803 11.9799C26.8678 11.9632 26.5557 12.0212 26.2702 12.1493C25.9848 12.2773 25.7341 12.4716 25.5392 12.7159C24.8108 13.6514 24.8514 15.2325 25.0484 16.0153C25.0828 16.1431 25.114 16.2866 25.1484 16.4425C25.4297 17.6899 25.9049 19.823 28.1119 20.6837L28.1057 20.6712Z" fill="#231F20"/>
<path d="M30.1564 18.5602C30.0777 18.7637 29.9516 18.9457 29.7885 19.091C29.6255 19.2363 29.4301 19.3408 29.2185 19.396C27.5117 19.817 26.4364 17.7931 26.1331 16.7671C25.8299 15.7411 26.0081 13.109 27.5148 13.3086C27.7136 13.3123 27.9091 13.3602 28.0869 13.4489C28.6315 13.7159 29.0985 14.1174 29.4436 14.6153C30.197 15.6132 30.6315 17.4625 30.1564 18.5602Z" fill="white"/>
<path d="M28.759 19.608C27.3304 19.608 26.3238 18.0081 25.9706 16.8013C25.7611 16.0778 25.7392 14.3782 26.4457 13.5549C26.5728 13.4011 26.7371 13.2823 26.9231 13.2098C27.1092 13.1372 27.3107 13.1132 27.5086 13.1401C27.7257 13.1444 27.9392 13.1966 28.1338 13.2929C28.7039 13.5697 29.1935 13.9873 29.5562 14.506C30.3158 15.5008 30.8066 17.4281 30.3002 18.61C30.2118 18.8388 30.0697 19.0432 29.8859 19.206C29.7021 19.3688 29.4818 19.4852 29.2435 19.5456C29.0851 19.5856 28.9224 19.6066 28.759 19.608ZM27.3429 13.4551C27.2164 13.4536 27.0913 13.4809 26.977 13.535C26.8627 13.589 26.7622 13.6683 26.6833 13.7669C26.1112 14.4312 26.0581 15.9811 26.2707 16.7171C26.5176 17.556 27.5211 19.6454 29.1685 19.2368C29.3592 19.19 29.5356 19.0978 29.6826 18.9679C29.8296 18.8381 29.9428 18.6746 30.0126 18.4915C30.4815 17.4094 30.0126 15.6256 29.3061 14.7025C28.9751 14.2282 28.5301 13.8443 28.0119 13.5861C27.8573 13.5083 27.6878 13.4647 27.5148 13.4582H27.4836L27.3429 13.4551Z" fill="#231F20"/>
<path d="M24.245 8.38414C24.245 8.38414 25.236 2.14708 31.1223 1.21152C36.2178 0.400703 42.77 2.77079 44.5393 8.38414C44.5393 8.38414 45.2083 12.1888 34.9736 12.1264C24.7389 12.064 24.245 8.38414 24.245 8.38414Z" fill="#231F20"/>
<path d="M35.2362 12.2793H34.9736C24.7233 12.2107 24.0981 8.56197 24.0981 8.40604V8.35926C24.0981 8.29689 25.1766 2.00993 31.1067 1.06814C36.3929 0.23237 42.9232 2.72096 44.6988 8.33743C44.7236 8.63878 44.6834 8.94192 44.581 9.22648C44.4785 9.51103 44.3162 9.7704 44.1048 9.98714C43.217 11.0381 40.9569 12.2793 35.2362 12.2793ZM24.4107 8.38421C24.4763 8.67112 25.4454 11.9019 34.983 11.9643H35.2456C40.8256 11.9643 43.0107 10.7886 43.8641 9.78131C44.0435 9.59895 44.1831 9.38149 44.274 9.14264C44.3649 8.9038 44.4053 8.64874 44.3924 8.39357C43.042 4.12742 37.7183 0.316571 31.1505 1.35816C25.633 2.25318 24.4826 7.95697 24.4107 8.38421Z" fill="#231F20"/>
<path d="M19.7372 48.6444C24.3435 48.6444 28.0775 44.9193 28.0775 40.3241C28.0775 35.729 24.3435 32.0039 19.7372 32.0039C15.131 32.0039 11.3969 35.729 11.3969 40.3241C11.3969 44.9193 15.131 48.6444 19.7372 48.6444Z" fill="#231F20"/>
<path d="M19.7372 48.8098C18.0568 48.8098 16.414 48.3126 15.0168 47.3813C13.6195 46.4499 12.5305 45.1261 11.8874 43.5773C11.2443 42.0285 11.076 40.3242 11.4039 38.68C11.7317 37.0358 12.5409 35.5254 13.7292 34.34C14.9175 33.1546 16.4314 32.3473 18.0796 32.0203C19.7278 31.6932 21.4362 31.8611 22.9887 32.5026C24.5413 33.1442 25.8683 34.2306 26.8019 35.6245C27.7355 37.0184 28.2338 38.6572 28.2338 40.3336C28.2314 42.5809 27.3354 44.7354 25.7425 46.3244C24.1496 47.9135 21.9899 48.8073 19.7372 48.8098ZM19.7372 32.1693C18.1186 32.1693 16.5363 32.6481 15.1904 33.5452C13.8446 34.4423 12.7956 35.7174 12.1762 37.2092C11.5568 38.7011 11.3947 40.3426 11.7105 41.9264C12.0262 43.5101 12.8057 44.9648 13.9503 46.1066C15.0948 47.2484 16.5531 48.026 18.1406 48.341C19.7281 48.6561 21.3737 48.4944 22.8691 47.8764C24.3645 47.2585 25.6427 46.2121 26.542 44.8694C27.4413 43.5268 27.9212 41.9483 27.9212 40.3336C27.9204 38.1677 27.0582 36.0906 25.5239 34.5581C23.9895 33.0257 21.9084 32.1632 19.7372 32.1599V32.1693Z" fill="#231F20"/>
<path d="M39.6033 18.8377C40.0539 18.8377 40.4192 18.2862 40.4192 17.6058C40.4192 16.9255 40.0539 16.374 39.6033 16.374C39.1527 16.374 38.7874 16.9255 38.7874 17.6058C38.7874 18.2862 39.1527 18.8377 39.6033 18.8377Z" fill="#231F20"/>
<path d="M43.2389 16.7669C43.6895 16.7669 44.0548 16.2154 44.0548 15.535C44.0548 14.8547 43.6895 14.3032 43.2389 14.3032C42.7883 14.3032 42.423 14.8547 42.423 15.535C42.423 16.2154 42.7883 16.7669 43.2389 16.7669Z" fill="#231F20"/>
<path d="M30.3502 19.4301C30.3272 19.4295 30.3047 19.4239 30.2842 19.4137C30.2636 19.4034 30.2456 19.3888 30.2314 19.3708L25.8768 14.1348C25.8637 14.1191 25.8538 14.1009 25.8477 14.0813C25.8416 14.0617 25.8394 14.0411 25.8413 14.0207C25.8432 14.0003 25.8491 13.9804 25.8587 13.9623C25.8682 13.9442 25.8813 13.9281 25.8971 13.915C25.9129 13.9019 25.9312 13.892 25.9508 13.8859C25.9704 13.8798 25.9911 13.8777 26.0115 13.8796C26.032 13.8814 26.0519 13.8873 26.0701 13.8969C26.0882 13.9064 26.1044 13.9195 26.1175 13.9352L30.4752 19.1837C30.4885 19.1994 30.4984 19.2175 30.5045 19.237C30.5106 19.2566 30.5126 19.2771 30.5106 19.2975C30.5085 19.3179 30.5024 19.3376 30.4926 19.3555C30.4828 19.3735 30.4694 19.3893 30.4533 19.402C30.4237 19.424 30.3869 19.434 30.3502 19.4301Z" fill="#231F20"/>
<path d="M68.5068 37.6391C67.4848 37.7198 66.4565 37.6631 65.4495 37.4707C63.4926 37.1588 62.4892 36.005 62.4391 33.7534C62.3891 31.5018 61.7389 28.5517 62.4391 27.7721C63.1394 26.9924 66.0529 25.1431 66.1904 26.0444C66.328 26.9456 64.3335 28.1307 64.2335 28.7139C64.1335 29.297 64.8869 29.7492 64.8368 30.9997C64.8368 30.9997 65.931 25.3458 68.4943 24.744C71.0577 24.1421 71.3078 25.4955 70.6544 25.9446C70.0011 26.3937 68.8413 26.4966 68.4943 27.0454C68.1473 27.5943 67.8972 29.7492 67.8972 29.7492C67.8972 29.7492 70.5544 25.5454 72.2112 26.4966C73.868 27.4477 73.9149 28.6484 73.1115 28.4987C72.3081 28.349 71.4078 28.112 70.9045 28.8292C70.4012 29.5465 69.701 30.7004 69.701 30.7004C69.701 30.7004 72.7208 28.8978 73.6179 29.3469C74.5151 29.796 75.3216 31.218 74.2181 31.1338C73.1146 31.0496 72.058 30.9997 71.5579 31.5486C71.0577 32.0975 70.9045 33.2513 70.5044 34.452C70.1042 35.6526 69.9542 37.6235 68.5068 37.6391Z" fill="#231F20"/>
<path d="M67.7472 37.8295C66.9688 37.8231 66.1922 37.7553 65.4245 37.6268C63.3613 37.2932 62.336 36.027 62.2828 33.7567C62.2828 33.0426 62.1922 32.2567 62.1171 31.4958C61.9452 29.7526 61.8045 28.2494 62.3235 27.6694C62.9487 26.9864 65.2463 25.4396 66.0497 25.6735C66.1306 25.6933 66.2036 25.7369 66.2593 25.7987C66.3151 25.8604 66.351 25.9374 66.3623 26.0197C66.4655 26.6434 65.7684 27.2951 65.1525 27.8908C64.8024 28.2245 64.4398 28.5675 64.4054 28.7546C64.4017 28.9894 64.4716 29.2195 64.6055 29.4126C64.7276 29.6361 64.8271 29.8712 64.9025 30.1143C65.3307 28.4771 66.4467 25.081 68.4755 24.6039C70.5043 24.1267 70.9764 24.8565 71.0702 25.0903C71.1418 25.2666 71.1497 25.4622 71.0927 25.6437C71.0357 25.8252 70.9172 25.9812 70.7576 26.0852C70.4368 26.2832 70.0909 26.4373 69.7291 26.5436C69.2571 26.712 68.81 26.8554 68.6381 27.1423C68.4662 27.4292 68.263 28.3898 68.1536 29.1226C68.9663 27.9843 70.9076 25.5737 72.3018 26.3721C73.4835 27.0519 73.9274 27.8877 73.7523 28.3586C73.7025 28.4836 73.6072 28.5852 73.4854 28.643C73.3637 28.7008 73.2245 28.7106 73.0958 28.6704L72.927 28.6361C72.2049 28.4989 71.4547 28.3523 71.0514 28.948C70.7732 29.3503 70.4262 29.8835 70.1761 30.2889C71.1139 29.7775 72.9708 28.87 73.7086 29.238C74.3588 29.5498 75.0528 30.4417 74.909 30.9625C74.8652 31.1122 74.7277 31.3524 74.2244 31.3181C73.099 31.2307 72.133 31.1996 71.6922 31.6829C71.3796 32.0322 71.2015 32.6746 70.9983 33.4168C70.9014 33.7755 70.8013 34.1466 70.67 34.5301C70.595 34.7609 70.5262 35.0229 70.4543 35.2973C70.1605 36.4137 69.7979 37.7921 68.5224 37.8233C68.2643 37.8395 68.0055 37.8416 67.7472 37.8295ZM65.8496 25.9573C65.1463 25.9573 63.1706 27.2047 62.5579 27.8783C62.1234 28.3554 62.2797 29.9365 62.4266 31.4646C62.5016 32.2318 62.5798 33.0239 62.5954 33.7474C62.6454 35.8742 63.5582 37.0094 65.4745 37.3181C66.4664 37.5046 67.4785 37.5602 68.4849 37.4834H68.5037C69.5478 37.4834 69.851 36.3108 70.1448 35.1913C70.2199 34.9106 70.2886 34.6455 70.3699 34.4023C70.495 34.0281 70.595 33.6601 70.6825 33.3077C70.8951 32.5249 71.0795 31.8513 71.4484 31.4366C71.983 30.8503 73.0271 30.8783 74.2337 30.9688C74.4432 30.9875 74.5651 30.9438 74.5932 30.844C74.6776 30.5322 74.1556 29.7806 73.5554 29.4781C72.8801 29.1382 70.6075 30.3357 69.7885 30.8253C69.7583 30.8424 69.7234 30.8493 69.6889 30.8448C69.6545 30.8403 69.6225 30.8247 69.5978 30.8004C69.5735 30.7756 69.5581 30.7435 69.5541 30.709C69.5502 30.6746 69.5578 30.6398 69.5759 30.6101C69.5759 30.6101 70.2855 29.4469 70.7826 28.739C71.2796 28.0311 72.1955 28.159 72.9708 28.3087L73.1396 28.3399C73.2522 28.3617 73.396 28.3617 73.4522 28.2369C73.5554 27.9532 73.2115 27.2453 72.1393 26.6278C70.8889 25.9074 68.7506 28.6954 68.0348 29.8274C68.0159 29.8572 67.9875 29.8797 67.9542 29.8914C67.9209 29.903 67.8846 29.903 67.8512 29.8914C67.8179 29.8799 67.7894 29.8574 67.7705 29.8276C67.7517 29.7979 67.7434 29.7626 67.7472 29.7276C67.7472 29.6372 68.0066 27.5446 68.3724 26.9615C68.6037 26.5935 69.1007 26.4188 69.6228 26.2348C69.957 26.1348 70.2773 25.9933 70.5762 25.8138C70.6788 25.7509 70.7552 25.6532 70.7914 25.5387C70.8276 25.4241 70.8211 25.3003 70.7732 25.1901C70.6106 24.8253 69.9385 24.5664 68.5381 24.8783C66.1029 25.449 65.0087 30.9563 64.9994 31.0093C64.9911 31.0478 64.9692 31.082 64.9375 31.1055C64.9059 31.1291 64.8668 31.1403 64.8274 31.1372C64.7882 31.1325 64.7522 31.1132 64.7267 31.0831C64.7012 31.053 64.688 31.0144 64.6899 30.975C64.7071 30.4661 64.578 29.963 64.3179 29.5249C64.1483 29.2735 64.0679 28.9727 64.0897 28.6704C64.1397 28.3835 64.4867 28.0467 64.9275 27.6351C65.4589 27.1299 66.1216 26.5062 66.0466 26.0509C66.0449 26.0273 66.0353 26.005 66.0195 25.9875C66.0036 25.97 65.9824 25.9583 65.9591 25.9542C65.9226 25.9503 65.8858 25.9513 65.8496 25.9573Z" fill="#231F20"/>
<path d="M10.5904 56.2603V40.8423C10.5904 40.8423 19.2339 46.5398 32.1602 45.2675V60.305C32.1602 60.305 23.6948 62.8716 10.5904 56.2603Z" fill="white"/>
<path d="M27.6524 60.9348C23.8636 60.9348 17.9053 60.1239 10.5185 56.4004C10.493 56.3868 10.4717 56.3666 10.4568 56.3419C10.4419 56.3172 10.4341 56.2889 10.4341 56.2601V40.842C10.433 40.8137 10.4399 40.7855 10.454 40.7608C10.4681 40.7361 10.4888 40.7159 10.5138 40.7023C10.5388 40.6886 10.5671 40.6823 10.5955 40.6838C10.624 40.6854 10.6514 40.6948 10.6748 40.7111C10.7623 40.7672 19.4277 46.3618 32.1414 45.1144C32.1627 45.1124 32.1842 45.1147 32.2046 45.1211C32.225 45.1275 32.2439 45.138 32.2602 45.1519C32.2758 45.1668 32.2883 45.1847 32.2969 45.2045C32.3054 45.2243 32.31 45.2457 32.3102 45.2672V60.3048C32.3104 60.3381 32.2999 60.3707 32.2802 60.3976C32.2605 60.4246 32.2327 60.4445 32.2008 60.4545C32.1633 60.467 30.5377 60.9348 27.6524 60.9348ZM10.7467 56.1665C22.7914 62.2133 30.9629 60.4483 32.0039 60.1863V45.4419C20.4374 46.5209 12.2409 42.0115 10.7467 41.1196V56.1665Z" fill="#231F20"/>
<path d="M50.8259 47.3284V25.2929C50.8259 25.2929 70.2824 24.5631 78.3351 16.6826V39.4479C78.3351 39.4479 70.2824 45.869 50.8259 47.3284Z" fill="#A6CD67"/>
<path d="M50.8258 47.4843C50.7867 47.4838 50.7491 47.4694 50.7196 47.4438C50.7039 47.4288 50.6915 47.4109 50.6829 47.3911C50.6743 47.3713 50.6698 47.35 50.6695 47.3284V25.2929C50.6695 25.2526 50.6851 25.2138 50.7131 25.1847C50.7411 25.1557 50.7792 25.1385 50.8196 25.1369C51.0134 25.1369 70.3074 24.3168 78.2195 16.5703C78.2413 16.5489 78.269 16.5345 78.2991 16.5289C78.3292 16.5234 78.3602 16.5269 78.3883 16.5391C78.419 16.5502 78.4455 16.5706 78.464 16.5975C78.4825 16.6243 78.4921 16.6563 78.4914 16.6888V39.4541C78.4916 39.4776 78.4863 39.5007 78.476 39.5218C78.4657 39.5429 78.4506 39.5614 78.432 39.5757C78.3508 39.6412 70.1261 46.0436 50.8446 47.4906L50.8258 47.4843ZM50.9821 25.4425V47.16C69.1883 45.7629 77.4067 39.9406 78.1788 39.3637V17.0475C70.4043 24.2825 52.7953 25.349 50.9821 25.4425Z" fill="#231F20"/>
<path d="M41.3445 73.4462V59.5282C41.3445 59.5282 54.7522 59.4284 64.3273 52.2651V66.5854C64.3273 66.5854 55.565 73.8547 41.3445 73.4462Z" fill="#A6CD67"/>
<path d="M42.4574 73.6304C42.0885 73.6304 41.7196 73.6304 41.3414 73.6304C41.3007 73.6288 41.2622 73.6118 41.2338 73.5828C41.2053 73.5538 41.189 73.5151 41.1882 73.4745V59.5284C41.189 59.4873 41.2057 59.4481 41.2349 59.419C41.264 59.39 41.3033 59.3733 41.3445 59.3725C41.4789 59.3725 54.8116 59.1916 64.2335 52.1406C64.257 52.1244 64.2844 52.1147 64.313 52.1127C64.3415 52.1107 64.37 52.1163 64.3956 52.1291C64.4211 52.1418 64.4428 52.1612 64.4583 52.1852C64.4738 52.2092 64.4825 52.2368 64.4836 52.2653V66.5856C64.4832 66.6087 64.478 66.6314 64.4684 66.6524C64.4587 66.6733 64.4447 66.692 64.4273 66.7073C64.3398 66.7852 55.9213 73.6304 42.4574 73.6304ZM41.5008 73.3185C54.8209 73.6491 63.3832 67.1407 64.171 66.5295V52.5897C55.2398 59.1136 43.017 59.6531 41.5008 59.6937V73.3185Z" fill="#231F20"/>
<path d="M43.7241 62.6531C43.7241 62.6531 53.4157 62.0952 61.5209 57.3736" stroke="#231F20" stroke-width="0.325984"/>
<path d="M43.7241 66.7279C43.7241 66.7279 45.2539 66.6399 47.6063 66.2376M48.9645 65.9861C52.1232 65.3564 56.2849 64.2134 60.221 62.1643" stroke="#231F20" stroke-width="0.325984"/>
<path d="M43.7241 64.555C43.7241 64.555 50.4528 64.1676 57.3858 61.307M61.5209 59.2754C60.5722 59.8281 59.6019 60.3236 58.6278 60.768" stroke="#231F20" stroke-width="0.325984"/>
<path d="M43.7241 68.9012C43.7241 68.9012 46.9008 68.7183 51.1378 67.6758M57.3858 65.6532C55.7135 66.3432 54.053 66.8893 52.496 67.3208" stroke="#231F20" stroke-width="0.325984"/>
<path d="M43.9627 71.2164C43.9627 71.2164 46.3658 71.0781 49.7795 70.3562" stroke="#231F20" stroke-width="0.325984"/>
<path d="M53.0394 29.2576C53.0394 29.2576 67.1654 28.5784 76.1299 22.6021" stroke="black" stroke-width="0.325984"/>
<path d="M53.0394 36.592C53.0394 36.592 63.2223 36.1025 71.7835 32.2969" stroke="black" stroke-width="0.325984"/>
<path d="M53.0394 39.1218C53.0394 39.1218 54.072 39.0721 55.7559 38.8816M56.8425 38.7495C59.7045 38.3777 63.8318 37.6557 67.9803 36.2857M69.0628 35.9132C69.1671 35.8758 69.2715 35.838 69.3757 35.7997M70.3694 35.4204C70.489 35.373 70.6084 35.325 70.7275 35.2764M69.694 35.6814C69.8044 35.6398 69.9148 35.5978 70.025 35.5552L69.694 35.6814Z" stroke="black" stroke-width="0.325984"/>
<path d="M53.0394 34.1472C53.0394 34.1472 59.6034 33.8316 66.6221 31.7376C67.0898 31.5981 67.5596 31.4506 68.0296 31.2948M76.1299 27.4917C74.0619 28.8704 71.7192 29.9672 69.3386 30.8387" stroke="black" stroke-width="0.325984"/>
<path d="M53.0394 31.7027C53.0394 31.7027 56.148 31.5532 60.374 30.7776M65.8071 29.529C64.4043 29.9229 63.0294 30.2471 61.7323 30.5136M67.1654 29.1277C69.6079 28.3688 72.0862 27.3913 74.3449 26.1338" stroke="black" stroke-width="0.325984"/>
</g>
<defs>
<clipPath id="clip0_244_1632">
<rect width="77.6929" height="73.3465" fill="white" transform="translate(0.881897 0.598145)"/>
</clipPath>
</defs>
</svg>
