<svg width="143" height="135" viewBox="0 0 143 135" fill="none" xmlns="http://www.w3.org/2000/svg">
<g clip-path="url(#clip0_244_1181)">
<path d="M99.492 28.8876C99.492 28.8876 101.88 27.2403 111.057 34.9318C120.234 42.6232 120.603 49.58 120.603 49.58V19.1585C120.603 19.1585 115.827 5.95672 100.413 0.848206L99.492 28.8876Z" fill="#D1D3D4"/>
<path d="M120.603 49.867C120.529 49.8685 120.457 49.8412 120.403 49.7907C120.35 49.7403 120.318 49.6708 120.315 49.5972C120.315 49.5283 119.832 42.6576 110.873 35.1499C102.11 27.8085 99.6934 29.1172 99.6474 29.1287C99.6021 29.1555 99.5504 29.1696 99.4978 29.1696C99.4451 29.1696 99.3935 29.1555 99.3482 29.1287C99.3039 29.1032 99.2672 29.0663 99.2419 29.0219C99.2166 28.9775 99.2036 28.9272 99.2043 28.8761L100.125 0.859656C100.125 0.814985 100.136 0.771024 100.157 0.731413C100.178 0.691803 100.207 0.657682 100.244 0.631876C100.281 0.606071 100.323 0.58932 100.367 0.583016C100.411 0.576711 100.457 0.581031 100.499 0.595619C115.873 5.70413 120.827 18.9633 120.873 19.0781C120.878 19.1104 120.878 19.1434 120.873 19.1757V49.5972C120.873 49.6723 120.843 49.7445 120.791 49.7981C120.738 49.8518 120.666 49.8827 120.591 49.8842L120.603 49.867ZM100.269 28.4686C101.667 28.4686 104.832 29.364 111.241 34.7366C117.11 39.6557 119.412 44.2476 120.315 46.9855V19.2388C118.464 15.0533 115.764 11.2955 112.385 8.20245C109.006 5.10937 105.022 2.74802 100.683 1.26719L99.7912 28.4686C99.95 28.4521 100.11 28.4521 100.269 28.4686Z" fill="#231F20"/>
<path d="M26.5632 39.2195V12.1444C37.1065 8.48764 48.2792 6.98266 59.4171 7.7189V33.6977C59.4171 33.6977 39.3077 34.2487 26.5632 39.2195Z" fill="#D1D3D4"/>
<path d="M26.5689 39.5065C26.51 39.5083 26.4518 39.4923 26.4021 39.4606C26.3647 39.4323 26.3344 39.3959 26.3134 39.3541C26.2925 39.3123 26.2815 39.2662 26.2813 39.2195V12.1444C26.2804 12.0867 26.2969 12.0302 26.3288 11.982C26.3606 11.9339 26.4062 11.8965 26.4596 11.8746C37.0541 8.22294 48.2716 6.71267 59.4574 7.43189C59.5297 7.43767 59.597 7.47045 59.6461 7.52365C59.6952 7.57686 59.7223 7.64659 59.7221 7.71889V33.6977C59.7221 33.7719 59.6934 33.8432 59.6419 33.8967C59.5904 33.9502 59.5202 33.9817 59.4459 33.9847C59.2445 33.9847 39.2214 34.5931 26.6495 39.4893C26.6235 39.4984 26.5964 39.5042 26.5689 39.5065ZM26.8566 12.3395V38.8005C38.6921 34.3119 56.6898 33.5025 59.1467 33.4107V7.98866C48.2019 7.32493 37.2327 8.80295 26.8566 12.3395Z" fill="#231F20"/>
<path d="M13.9624 54.2982C13.9624 54.2982 4.18106 58.3506 0.481395 70.324V46.3542C0.481395 46.3542 0.268506 34.7481 13.9624 27.3781V54.2982Z" fill="#D1D3D4"/>
<path d="M0.452635 70.5881H0.412359C0.343735 70.5772 0.281206 70.5424 0.235899 70.4898C0.190593 70.4373 0.16545 70.3704 0.164948 70.3011V46.3542C0.164948 46.2394 0.164949 34.4955 13.7956 27.1255C13.8397 27.1014 13.8892 27.0887 13.9394 27.0887C13.9897 27.0887 14.0392 27.1014 14.0833 27.1255C14.1253 27.1517 14.16 27.188 14.1842 27.2312C14.2083 27.2743 14.2211 27.3229 14.2214 27.3723V54.2982C14.2211 54.3549 14.204 54.4102 14.1723 54.4572C14.1405 54.5042 14.0955 54.5407 14.043 54.5623C10.8607 56.1525 8.03806 58.3751 5.74844 61.0936C3.45881 63.812 1.75062 66.9688 0.728817 70.37C0.713519 70.4317 0.678093 70.4866 0.628103 70.5261C0.578113 70.5656 0.51639 70.5874 0.452635 70.5881ZM13.646 27.8946C0.728815 35.0695 0.728817 46.2623 0.728817 46.3484V68.5734C3.05782 62.3022 7.66421 57.1333 13.6345 54.0916L13.646 27.8946Z" fill="#231F20"/>
<path d="M0.452637 46.3542C0.452637 46.3542 2.85195 56.7664 12.0867 60.2218V88.2383C12.0867 88.2383 1.56311 80.9888 0.452637 70.3011V46.3542Z" fill="white"/>
<path d="M12.0867 88.5252C12.0289 88.5257 11.9724 88.5075 11.9256 88.4736C11.8163 88.399 1.27541 81.0117 0.170685 70.3297V46.3541C0.171587 46.2831 0.198354 46.2148 0.245991 46.162C0.293629 46.1092 0.358889 46.0755 0.429606 46.0672C0.500143 46.0585 0.57134 46.0768 0.62895 46.1183C0.68656 46.1598 0.72633 46.2215 0.740305 46.291C0.740305 46.3943 3.22018 56.6228 12.196 59.952C12.2506 59.973 12.2974 60.01 12.3303 60.0582C12.3632 60.1064 12.3806 60.1635 12.3802 60.2218V88.2382C12.3797 88.2905 12.3651 88.3416 12.3377 88.3861C12.3103 88.4306 12.2713 88.4668 12.2248 88.4908C12.1828 88.5146 12.135 88.5266 12.0867 88.5252ZM0.7288 48.2196V70.301C1.67817 79.4447 9.77371 86.1374 11.7875 87.67V60.4169C5.0096 57.7823 1.87955 51.3651 0.7288 48.2196Z" fill="#231F20"/>
<path d="M76.4655 59.2231C76.4655 59.2231 87.5818 96.6874 92.0754 98.5644C96.5691 100.441 103.491 95.4132 104.072 92.2161C104.653 89.0189 95.6025 51.9621 95.6025 51.9621L76.4655 59.2231Z" fill="white"/>
<path d="M94.2446 99.2647C93.4556 99.2773 92.6724 99.1288 91.9431 98.8284C89.9983 98.0191 86.7647 91.1082 82.2883 78.2853C78.9856 68.7858 76.1951 59.3953 76.1663 59.3034C76.1441 59.2341 76.1496 59.1589 76.1818 59.0937C76.214 59.0284 76.2703 58.9781 76.3389 58.9533L95.4759 51.6981C95.5132 51.6824 95.5533 51.6744 95.5938 51.6744C95.6343 51.6744 95.6744 51.6824 95.7118 51.6981C95.7482 51.7172 95.7799 51.7441 95.8048 51.7769C95.8296 51.8096 95.847 51.8473 95.8556 51.8875C96.2296 53.4028 104.924 89.0304 104.337 92.2562C104.003 94.0643 101.845 96.366 99.0892 97.8584C97.6099 98.7058 95.9488 99.188 94.2446 99.2647ZM76.8165 59.3953C77.2825 60.9623 79.8602 69.486 82.8579 78.0959C88.6117 94.7014 91.1836 97.8813 92.1905 98.3004C93.9511 99.0408 96.3792 98.6964 98.8418 97.3647C101.414 95.9757 103.497 93.7831 103.79 92.1644C104.239 89.702 98.5426 65.2328 95.3953 52.3467L76.8165 59.3953Z" fill="#231F20"/>
<path d="M95.6658 90.4596C95.194 78.3197 114.118 61.6166 114.118 61.6166L124.475 68.1715C124.475 68.1715 116.771 90.0693 109.193 97.4451C105.447 101.101 95.9247 97.9215 95.6658 90.4596Z" fill="white"/>
<path d="M105.01 99.2704C103.764 99.2581 102.532 99.0108 101.379 98.5414C98.5714 97.4279 95.5104 94.7244 95.3493 90.4768C95.1479 85.3683 98.2262 78.9224 104.463 71.3113C107.368 67.7909 110.522 64.4821 113.899 61.4099C113.949 61.3727 114.01 61.3525 114.072 61.3525C114.134 61.3525 114.195 61.3727 114.245 61.4099L124.601 67.9592C124.657 67.9935 124.7 68.0457 124.722 68.1073C124.744 68.1689 124.744 68.2361 124.722 68.2978C124.642 68.5159 116.914 90.3448 109.371 97.7091C108.176 98.7757 106.612 99.3358 105.01 99.2704ZM95.9247 90.4596C96.0743 94.4316 98.9512 96.9629 101.592 98.0133C104.411 99.1326 107.386 98.8399 108.986 97.2729C116.034 90.385 123.295 70.5881 124.118 68.2978L114.124 61.9839C112.288 63.6428 95.4874 79.2037 95.9247 90.4539V90.4596Z" fill="#231F20"/>
<path d="M103.848 97.0777C103.788 97.0775 103.73 97.0595 103.681 97.0261C103.619 96.9812 103.578 96.9142 103.565 96.8391C103.552 96.7641 103.569 96.6871 103.612 96.6243C103.761 96.4177 118.571 75.6335 121.287 63.7461C121.295 63.7091 121.311 63.6741 121.333 63.643C121.354 63.612 121.382 63.5856 121.414 63.5653C121.446 63.545 121.482 63.5313 121.52 63.5249C121.557 63.5185 121.595 63.5195 121.632 63.528C121.669 63.5361 121.704 63.5515 121.735 63.5733C121.766 63.5952 121.792 63.623 121.812 63.6551C121.832 63.6873 121.845 63.7231 121.851 63.7604C121.857 63.7977 121.855 63.8358 121.845 63.8724C119.101 75.8688 104.233 96.7506 104.084 96.9572C104.057 96.9951 104.022 97.0258 103.981 97.0469C103.94 97.0679 103.894 97.0785 103.848 97.0777Z" fill="#D1D3D4"/>
<path d="M80.2745 67.0638C88.7526 67.0638 95.6255 60.2074 95.6255 51.7497C95.6255 43.292 88.7526 36.4356 80.2745 36.4356C71.7963 36.4356 64.9235 43.292 64.9235 51.7497C64.9235 60.2074 71.7963 67.0638 80.2745 67.0638Z" fill="#231F20"/>
<path d="M80.2745 67.3508C77.1814 67.3508 74.1579 66.4358 71.5861 64.7215C69.0143 63.0072 67.0099 60.5707 65.8262 57.72C64.6426 54.8692 64.3328 51.7324 64.9363 48.7061C65.5397 45.6798 67.0291 42.8999 69.2163 40.7181C71.4034 38.5362 74.1899 37.0504 77.2235 36.4484C80.2571 35.8464 83.4016 36.1554 86.2592 37.3362C89.1168 38.517 91.5592 40.5166 93.2776 43.0822C94.996 45.6478 95.9132 48.6641 95.9132 51.7497C95.9086 55.886 94.2595 59.8515 91.3277 62.7763C88.3958 65.7011 84.4207 67.3462 80.2745 67.3508ZM80.2745 36.7226C77.2952 36.7226 74.3829 37.6039 71.9057 39.2551C69.4286 40.9063 67.4979 43.2532 66.3578 45.9991C65.2177 48.7449 64.9194 51.7664 65.5006 54.6813C66.0818 57.5963 67.5165 60.2739 69.6231 62.3754C71.7297 64.477 74.4138 65.9082 77.3358 66.488C80.2578 67.0678 83.2865 66.7703 86.039 65.6329C88.7914 64.4955 91.144 62.5695 92.7992 60.0983C94.4544 57.6271 95.3378 54.7218 95.3378 51.7497C95.3317 47.7661 93.7428 43.9475 90.9191 41.1307C88.0955 38.3138 84.2677 36.7287 80.2745 36.7226Z" fill="#231F20"/>
<path d="M58.5023 40.5225C58.5023 40.5225 36.7703 46.7847 32.5241 57.834C28.2778 68.8834 41.989 124.991 41.989 124.991C41.989 124.991 65.5219 137.435 89.1698 124.36C89.1698 124.36 95.8154 76.8274 92.3113 64.8539C88.8073 52.8805 80.706 41.1367 75.6772 39.3745C70.6484 37.6123 58.5023 40.5225 58.5023 40.5225Z" fill="white"/>
<path d="M65.7923 130.541C57.516 130.529 49.3432 128.705 41.8509 125.198C41.8149 125.179 41.7834 125.153 41.7585 125.122C41.7337 125.09 41.7161 125.053 41.7071 125.014C41.6725 124.876 38.2548 110.808 35.3779 95.5739C31.5287 75.0767 30.4757 62.3398 32.2536 57.6905C34.0315 53.0412 38.997 48.6788 46.9775 44.7298C50.6682 42.9236 54.4946 41.4075 58.4217 40.1953C58.9165 40.0747 70.6887 37.3253 75.752 39.0989C81.1721 40.9759 89.1755 53.1847 92.553 64.7104C96.0398 76.6092 89.6761 122.391 89.423 124.331C89.4185 124.375 89.403 124.418 89.3779 124.455C89.3528 124.492 89.3189 124.522 89.2791 124.543C82.0953 128.519 74.0073 130.584 65.7923 130.541ZM42.2364 124.75C44.0373 125.651 66.546 136.408 88.8936 124.13C89.2906 121.26 95.3781 76.3452 92.0236 64.8883C88.3758 52.4442 80.3378 41.3031 75.5852 39.6327C70.7233 37.951 58.928 40.6659 58.5771 40.7463C58.0937 40.884 36.9142 47.1692 32.7945 57.8856C28.7266 68.4987 41.5114 121.754 42.2364 124.75Z" fill="#231F20"/>
<path d="M78.9281 127.935C78.8532 127.934 78.7817 127.904 78.7283 127.852C78.6748 127.8 78.6434 127.729 78.6404 127.654C78.6404 127.04 77.5472 66.4438 76.9143 61.6453C76.2123 56.4794 64.9407 52.0482 64.8314 52.0022C64.7614 51.9729 64.7055 51.9177 64.6754 51.8481C64.6454 51.7785 64.6436 51.7 64.6703 51.6291C64.6837 51.5943 64.7038 51.5624 64.7296 51.5354C64.7555 51.5084 64.7864 51.4868 64.8207 51.4718C64.855 51.4569 64.8919 51.4489 64.9293 51.4483C64.9667 51.4477 65.0038 51.4545 65.0386 51.4684C65.5161 51.6521 76.7474 56.0603 77.4897 61.5707C78.1341 66.3807 79.1813 125.129 79.2158 127.625C79.2166 127.663 79.2099 127.701 79.1961 127.736C79.1824 127.771 79.1618 127.803 79.1356 127.83C79.1094 127.857 79.0781 127.879 79.0435 127.894C79.0089 127.909 78.9716 127.917 78.9339 127.918L78.9281 127.935Z" fill="#D1D3D4"/>
<path d="M52.9614 39.3745L53.882 52.6394C53.882 52.6394 59.3596 58.4826 64.9235 57.8053C70.9764 57.0591 75.3205 52.6394 75.3205 52.6394L74.4747 43.3522L52.9614 39.3745Z" fill="#231F20"/>
<path d="M64.0201 58.1497C58.7382 58.1497 53.9165 53.0756 53.7036 52.846C53.6568 52.7979 53.6283 52.7349 53.6231 52.6681L52.7082 39.4031C52.7041 39.3603 52.7103 39.3171 52.7263 39.2772C52.7424 39.2372 52.7677 39.2017 52.8003 39.1735C52.8329 39.1429 52.8724 39.1206 52.9155 39.1087C52.9586 39.0967 53.004 39.0953 53.0477 39.1047L74.561 43.0594C74.6223 43.0717 74.6779 43.1036 74.7194 43.1502C74.7609 43.1968 74.7861 43.2556 74.7912 43.3177L75.637 52.6049C75.6401 52.6467 75.6345 52.6886 75.6207 52.7281C75.6068 52.7676 75.5849 52.8038 75.5564 52.8345C75.3723 53.0182 71.0685 57.3461 64.9867 58.0923C64.666 58.1314 64.3432 58.1506 64.0201 58.1497ZM54.1927 52.5246C54.8429 53.1846 59.9004 58.1439 64.9177 57.524C70.3147 56.8582 74.3884 53.1559 75.0501 52.5246L74.2388 43.5875L53.3066 39.736L54.1927 52.5246Z" fill="#231F20"/>
<path d="M79.3711 68.3093C79.3711 68.3093 67.2192 72.178 67.0926 87.825C66.966 103.472 77.7543 99.8788 83.9857 94.7129C90.217 89.5469 91.1894 81.9129 90.637 77.3037C90.0846 72.6946 87.1272 66.0994 79.3711 68.3093Z" fill="white"/>
<path d="M74.0086 99.4311C73.034 99.4524 72.0668 99.2563 71.1778 98.8571C68.2261 97.4566 66.7532 93.7543 66.8049 87.8537C66.9315 72.1723 79.1583 68.097 79.2848 68.0568C82.0697 67.2647 84.4632 67.5172 86.431 68.8144C89.9178 71.1104 90.7463 75.9147 90.9132 77.3267C91.5518 82.6361 90.1192 90.0636 84.164 94.9884C81.4137 97.2442 77.4609 99.4311 74.0086 99.4311ZM79.4574 68.5849C79.1928 68.671 67.5069 72.6717 67.3746 87.8365C67.3228 93.496 68.6864 97.0203 71.4022 98.3176C75.0616 100.04 80.355 97.3533 83.7785 94.5235C89.5323 89.7479 90.9477 82.5328 90.3263 77.3669C90.1652 76.018 89.3769 71.4491 86.0915 69.2679C84.3079 68.074 82.0697 67.8387 79.4574 68.5849Z" fill="#231F20"/>
<path d="M87.6796 81.5743C87.4552 86.1662 82.7026 92.9335 79.3769 94.2021C77.3458 94.9827 74.6243 95.66 72.8522 93.7084C71.7302 92.4629 70.9879 90.1612 71.0627 86.1547C71.2469 75.8229 78.9339 72.9816 81.1203 72.5224C82.1333 72.3646 83.1701 72.5548 84.0605 73.062C86.0225 74.1239 87.9155 76.6494 87.6796 81.5743Z" fill="white"/>
<path d="M75.9304 95.2869C75.3161 95.3057 74.705 95.1919 74.1389 94.9531C73.5728 94.7144 73.0652 94.3563 72.6508 93.9036C71.3447 92.4571 70.7175 89.8454 70.7865 86.1489C70.9937 74.4855 80.6657 72.3272 81.0743 72.2411C82.1526 72.0768 83.255 72.2789 84.2043 72.8151C85.7348 73.6302 88.2319 75.8401 87.9788 81.5742C87.7429 86.4302 82.8464 93.1746 79.492 94.4718C78.3646 94.9582 77.1575 95.2344 75.9304 95.2869ZM81.7877 72.7635C81.5943 72.7652 81.4015 72.7863 81.2124 72.8266C80.8153 72.907 71.5748 74.9676 71.3792 86.1776C71.3159 89.7306 71.8913 92.2045 73.1053 93.5419C74.8027 95.4074 77.4609 94.6899 79.3136 93.9552C82.4782 92.7269 87.2135 86.1088 87.4322 81.5628C87.6911 76.1443 85.3723 74.1009 83.9799 73.3375C83.3086 72.9669 82.555 72.7696 81.7877 72.7635Z" fill="#231F20"/>
<path d="M87.6796 81.5743C87.4552 86.1662 82.7026 92.9336 79.3769 94.2021C77.3458 94.9827 74.6243 95.66 72.8521 93.7085C74.8142 93.9208 77.7313 93.2091 80.9074 88.9788C85.1652 83.3135 85.5104 77.1431 84.0547 73.062C86.0225 74.1239 87.9155 76.6495 87.6796 81.5743Z" fill="#231F20"/>
<path d="M75.9304 95.2869C75.3161 95.3057 74.705 95.1919 74.1389 94.9531C73.5728 94.7143 73.0652 94.3563 72.6508 93.9035C72.6103 93.8608 72.584 93.8066 72.5754 93.7484C72.5668 93.6902 72.5763 93.6308 72.6027 93.5782C72.629 93.5256 72.671 93.4823 72.7228 93.4543C72.7746 93.4262 72.8338 93.4148 72.8924 93.4214C74.7279 93.6166 77.5587 92.9737 80.6945 88.8295C85.0328 83.0551 85.1422 76.9593 83.8015 73.1767C83.7826 73.1229 83.7801 73.0647 83.7945 73.0095C83.8088 72.9543 83.8393 72.9046 83.8821 72.8668C83.9255 72.8285 83.9795 72.8042 84.037 72.797C84.0945 72.7898 84.1528 72.8002 84.2043 72.8266C85.7348 73.6417 88.2319 75.8515 87.9788 81.5857C87.7429 86.4417 82.8464 93.1861 79.492 94.4833C78.3639 94.9657 77.1568 95.238 75.9304 95.2869ZM73.6289 94.047C75.309 95.2524 77.6105 94.5923 79.2676 93.9552C82.4321 92.7269 87.1675 86.1088 87.3861 81.5627C87.6105 76.9134 85.9362 74.738 84.5668 73.7393C85.6888 77.6883 85.332 83.5832 81.1145 89.1739C78.2722 92.9966 75.5852 93.9954 73.6347 94.047H73.6289Z" fill="#231F20"/>
<path d="M23.6 79.3644C23.6 79.3644 24.8946 118.396 28.7784 121.363C32.6622 124.331 40.6196 121.18 42.012 118.229C43.4044 115.279 43.9798 77.1488 43.9798 77.1488L23.6 79.3644Z" fill="white"/>
<path d="M32.7945 122.838C31.2972 122.893 29.8234 122.456 28.6 121.593C26.9199 120.319 25.5275 112.811 24.4458 99.2819C23.646 89.26 23.2951 79.4677 23.2951 79.3701C23.2945 79.2981 23.3207 79.2284 23.3685 79.1744C23.4162 79.1204 23.4823 79.0859 23.554 79.0774L43.905 76.8675C43.9452 76.8626 43.9859 76.8662 44.0246 76.8781C44.0632 76.89 44.0989 76.9098 44.1294 76.9364C44.1599 76.9641 44.1843 76.9978 44.2011 77.0353C44.218 77.0728 44.2269 77.1134 44.2272 77.1545C44.2272 78.7158 43.6173 115.382 42.2307 118.356C41.4539 120.02 38.7784 121.708 35.7404 122.46C34.7765 122.699 33.7879 122.826 32.7945 122.838ZM23.8992 79.617C23.9567 81.2528 24.2962 90.1497 25.0499 99.236C26.4481 116.754 28.1109 120.474 28.974 121.134C30.4988 122.282 32.9268 122.569 35.6484 121.903C38.4907 121.203 41.0569 119.607 41.7531 118.109C42.8118 115.842 43.4792 90.7294 43.6921 77.4702L23.8992 79.617Z" fill="#231F20"/>
<path d="M37.5011 110.394C45.8555 101.549 71.057 103.311 71.057 103.311L73.6462 115.285C73.6462 115.285 52.5932 125.157 42.0005 124.945C36.7876 124.847 32.3745 115.819 37.5011 110.394Z" fill="white"/>
<path d="M42.317 125.238H41.9832C39.4804 125.192 37.035 123.189 35.7519 120.146C34.6012 117.363 34.371 113.293 37.2882 110.205C40.8037 106.48 47.5644 104.144 57.3861 103.254C61.9376 102.855 66.512 102.78 71.0742 103.03C71.1371 103.033 71.1972 103.056 71.2452 103.097C71.2931 103.137 71.3261 103.193 71.3389 103.254L73.9281 115.227C73.9419 115.291 73.9335 115.358 73.9042 115.416C73.8749 115.475 73.8265 115.522 73.767 115.549C73.5599 115.641 52.9672 125.238 42.317 125.238ZM66.0282 103.461C58.2664 103.461 43.5885 104.339 37.7082 110.59C34.9809 113.459 35.1823 117.305 36.2813 119.917C37.4608 122.706 39.7335 124.618 41.9948 124.658C51.8337 124.876 71.103 116.14 73.3182 115.118L70.8211 103.581C70.2284 103.547 68.4678 103.461 66.0282 103.461Z" fill="#231F20"/>
<path d="M39.279 121.042C39.2127 121.042 39.1484 121.019 39.097 120.977C39.0456 120.935 39.0103 120.877 38.997 120.812C38.9835 120.737 39 120.659 39.043 120.596C39.086 120.533 39.1521 120.489 39.2272 120.474C39.4689 120.428 63.7439 115.6 71.3562 110.716C71.4201 110.679 71.4957 110.669 71.5672 110.686C71.6388 110.704 71.7009 110.748 71.7407 110.81C71.7805 110.872 71.7951 110.946 71.7813 111.019C71.7676 111.091 71.7266 111.155 71.6669 111.198C63.9626 116.151 40.3377 120.847 39.3365 121.042H39.279Z" fill="#D1D3D4"/>
<path d="M70.3838 105.211C70.3838 105.211 75.6658 100.275 78.0133 98.3233C80.3608 96.3717 85.0329 93.6683 84.9178 96.0274C84.8027 98.3865 80.4471 99.5459 80.2803 100.177C80.2803 100.177 89.1756 98.8055 93.324 100.177C97.4725 101.549 98.583 102.657 97.3517 103.334C96.1203 104.012 91.5634 102.41 89.469 102.657C87.3746 102.904 85.4069 103.334 85.4069 103.334C85.4069 103.334 92.6739 103.765 95.0099 105.234C97.3459 106.704 98.3356 108.184 96.8568 108.678C95.3781 109.172 90.8269 105.607 86.3965 106.221C86.3965 106.221 95.8844 109.292 95.6313 111.743C95.3781 114.194 94.3482 113.833 93.3298 113.218C92.3114 112.604 87.3689 110.509 85.1537 110.142C85.1537 110.142 95.2688 118.258 92.553 118.752C89.8372 119.245 84.1123 113.104 84.1123 113.104C84.1123 113.104 73.1053 118.269 70.3953 115.193C67.6853 112.116 70.3838 105.211 70.3838 105.211Z" fill="#231F20"/>
<path d="M92.2135 119.039C89.5208 119.039 84.9063 114.355 84.0144 113.419C82.4839 114.119 72.8003 118.356 70.1479 115.354C67.3573 112.185 69.9868 105.395 70.0961 105.108C70.1122 105.068 70.1379 105.032 70.1709 105.005C70.2227 104.953 75.4874 100.034 77.8119 98.1166C79.3596 96.8309 83.2262 94.2422 84.6531 94.9539C84.8431 95.0563 84.9962 95.2154 85.0911 95.4088C85.1861 95.6023 85.218 95.8206 85.1824 96.033C85.0904 97.755 83.0018 98.8685 81.6209 99.5975L81.3677 99.7295C83.9224 99.4081 90.0789 98.8054 93.393 99.9017C97.996 101.417 98.0593 102.353 98.0881 102.663C98.1169 102.973 98.0191 103.277 97.4667 103.581C96.7072 103.994 95.1019 103.702 93.2434 103.357C92.0114 103.062 90.7474 102.921 89.4805 102.938C88.79 103.019 88.1111 103.122 87.5127 103.219C89.8717 103.46 93.5541 103.989 95.1422 104.987C96.1951 105.653 97.95 106.933 97.8119 108.035C97.7774 108.328 97.5933 108.718 96.9258 108.942C96.2584 109.166 95.1537 108.724 93.6635 108.098C91.9834 107.398 89.9753 106.554 87.9097 106.439C90.66 107.444 96.1088 109.694 95.8959 111.772C95.7751 112.92 95.4817 113.591 94.9696 113.844C94.4575 114.097 93.7613 113.844 93.1571 113.459C90.9504 112.342 88.6497 111.42 86.2814 110.704C93.3125 116.484 93.324 118.166 93.2549 118.47C93.2175 118.626 93.1315 118.765 93.0095 118.868C92.8874 118.971 92.7356 119.033 92.576 119.044C92.4553 119.054 92.3339 119.052 92.2135 119.039ZM84.1007 112.788C84.1407 112.787 84.1804 112.795 84.2171 112.811C84.2538 112.827 84.2867 112.85 84.3136 112.88C85.8729 114.556 90.3896 118.826 92.4897 118.442C92.6911 118.407 92.7083 118.338 92.7141 118.315C92.9673 117.311 88.3355 113.046 84.9638 110.343C84.9136 110.303 84.8779 110.247 84.8623 110.185C84.8467 110.123 84.8521 110.057 84.8775 109.998C84.9034 109.94 84.948 109.892 85.0043 109.862C85.0605 109.832 85.1252 109.821 85.1882 109.832C87.3861 110.199 92.3746 112.294 93.4678 112.949C93.9166 113.218 94.4172 113.471 94.7279 113.316C94.9408 113.207 95.2227 112.839 95.3378 111.692C95.5047 110.073 89.8833 107.628 86.2987 106.468C86.2609 106.465 86.2241 106.454 86.1905 106.436C86.1569 106.419 86.1271 106.395 86.1028 106.366C86.0537 106.307 86.03 106.231 86.0369 106.155C86.0437 106.079 86.0806 106.009 86.1394 105.96C86.1982 105.911 86.2741 105.887 86.3504 105.894C89.0777 105.515 91.8683 106.681 93.9051 107.536C95.1767 108.07 96.2699 108.529 96.782 108.362C97.0927 108.259 97.2596 108.116 97.2826 107.932C97.3344 107.513 96.7072 106.612 94.8775 105.441C92.6278 104.023 85.4816 103.581 85.4068 103.581C85.338 103.577 85.273 103.548 85.2242 103.499C85.1755 103.45 85.1463 103.386 85.1422 103.317C85.135 103.248 85.1541 103.178 85.1955 103.122C85.237 103.065 85.298 103.027 85.3666 103.013C85.3666 103.013 87.3746 102.577 89.4575 102.33C90.7804 102.306 92.1011 102.45 93.3873 102.76C94.9178 103.041 96.6497 103.334 97.2308 103.041C97.3861 102.955 97.5645 102.823 97.553 102.68C97.5415 102.536 97.2711 101.739 93.2549 100.413C89.2388 99.0867 80.4298 100.413 80.3435 100.413C80.2962 100.418 80.2482 100.413 80.2033 100.397C80.1584 100.381 80.1178 100.355 80.0846 100.321C80.0539 100.285 80.0321 100.242 80.0211 100.196C80.0101 100.15 80.0102 100.103 80.0213 100.057C80.1019 99.7353 80.4989 99.5172 81.3907 99.0465C82.6565 98.3749 84.5725 97.359 84.6473 95.9584C84.6473 95.5394 84.5035 95.4533 84.4402 95.4246C83.5541 94.9769 80.3723 96.7218 78.2204 98.5127C76.0685 100.304 71.1893 104.827 70.6542 105.349C70.401 106.02 68.1916 112.185 70.6197 114.946C71.6496 116.094 74.2676 116.094 78.1916 114.946C80.175 114.348 82.1163 113.619 84.0029 112.765C84.0368 112.765 84.0701 112.773 84.1007 112.788Z" fill="#231F20"/>
<path d="M80.3551 14.3312C80.3551 14.3312 81.9546 29.6855 81.5864 37.7902C81.2181 45.895 78.019 48.4722 71.2296 49.844C64.4402 51.2159 53.7439 45.298 47.714 37.5606C41.6841 29.8232 41.0051 25.7537 43.0017 14.3312H80.3551Z" fill="white"/>
<path d="M69.2445 50.2803C62.5817 50.2803 53.134 44.9537 47.5068 37.7042C41.5172 30.0414 40.6656 25.8742 42.7312 14.2796C42.7422 14.2132 42.7767 14.153 42.8285 14.1098C42.8802 14.0666 42.9457 14.0434 43.0132 14.0443H80.3665C80.4381 14.0439 80.5072 14.0702 80.5604 14.1179C80.6136 14.1657 80.6471 14.2315 80.6542 14.3026C80.6542 14.4575 82.2538 29.7659 81.8855 37.8018C81.4885 46.4518 77.8579 48.7994 71.3159 50.1081C70.6326 50.2318 69.9389 50.2895 69.2445 50.2803ZM43.2433 14.6183C41.2583 25.9546 42.0926 29.8175 47.9556 37.3655C54.1064 45.2521 64.7451 50.8313 71.1893 49.5456C77.4551 48.2943 80.9247 46.05 81.2986 37.7788C81.6381 30.3571 80.3033 16.6617 80.0961 14.6183H43.2433Z" fill="#231F20"/>
<path d="M43.0016 14.3312C43.0016 14.3312 44.2847 19.6119 57.3343 20.4729C70.3838 21.3339 80.3493 17.8957 80.3493 14.3312C80.3493 10.7667 71.0627 7.44334 61.6726 7.208C52.2825 6.97267 43.5367 11.0136 43.0016 14.3312Z" fill="white"/>
<path d="M61.454 20.8977C60.1306 20.8977 58.7516 20.8518 57.317 20.7599C44.2042 19.8932 42.7773 14.624 42.7312 14.4001C42.7226 14.3623 42.7226 14.3231 42.7312 14.2853C43.3066 10.761 52.1674 6.67994 61.7186 6.92102C70.6715 7.15636 80.6772 10.365 80.6772 14.3312C80.6511 14.7627 80.5353 15.184 80.3372 15.5684C80.1391 15.9527 79.863 16.2918 79.5265 16.5641C77.1042 18.7854 70.6197 20.8977 61.454 20.8977ZM43.3066 14.314C43.3929 14.5666 43.8475 15.6916 45.5161 16.8912C47.2709 18.154 50.7462 19.7612 57.363 20.1859C68.042 20.892 76.3792 18.6821 79.1007 16.168C79.38 15.949 79.611 15.6749 79.7793 15.3628C79.9476 15.0507 80.0496 14.7074 80.0789 14.3542C80.0789 11.0882 71.1375 7.76479 61.6668 7.51797C52.6277 7.23098 43.9223 11.0939 43.3066 14.314Z" fill="#231F20"/>
<path d="M49.9982 37.2163C52.1789 38.0658 57.3055 38.2782 56.5633 31.373C55.821 24.4679 53.111 20.6509 48.4044 20.6394C43.6979 20.6279 43.6403 26.2129 44.1927 28.4227C44.745 30.6326 45.2974 35.3565 49.9982 37.2163Z" fill="#231F20"/>
<path d="M52.317 37.9223C51.4897 37.9194 50.6694 37.7698 49.8946 37.4803C45.5506 35.7583 44.6357 31.7059 44.0891 29.2665C44.0316 28.9852 43.9683 28.7269 43.9107 28.4916C43.508 26.8844 43.4447 23.8021 44.9177 21.9251C45.3271 21.409 45.8536 20.9972 46.4538 20.7238C47.054 20.4504 47.7107 20.3231 48.3699 20.3524C53.1283 20.3524 56.0512 24.1637 56.8164 31.3443C57.1041 34.0593 56.546 35.9822 55.1421 37.0498C54.3209 37.64 53.3288 37.9464 52.317 37.9223ZM50.1075 36.9465C51.149 37.354 53.3239 37.7386 54.8314 36.5906C56.0569 35.655 56.5575 33.9101 56.2813 31.4247C55.5391 24.4851 52.8866 20.9608 48.4044 20.9493C47.8291 20.9186 47.2548 21.0254 46.7293 21.2611C46.2039 21.4967 45.7425 21.8543 45.3837 22.304C44.0431 24.0259 44.1179 26.9361 44.4804 28.3768C44.5437 28.6121 44.6012 28.8762 44.6645 29.1632C45.1823 31.4591 46.0569 35.3852 50.119 36.9694L50.1075 36.9465Z" fill="#231F20"/>
<path d="M53.882 33.0605C53.7372 33.4351 53.5051 33.77 53.205 34.0375C52.9049 34.3049 52.5453 34.4974 52.1559 34.5988C49.0143 35.3737 47.035 31.6485 46.4769 29.7601C45.9188 27.8717 46.2468 23.0272 49.0201 23.3945C49.386 23.4013 49.7457 23.4896 50.073 23.6528C51.0753 24.1443 51.9349 24.8833 52.5702 25.7996C53.9568 27.6363 54.7566 31.0401 53.882 33.0605Z" fill="white"/>
<path d="M51.3101 34.9891C48.6806 34.9891 46.8279 32.0446 46.1777 29.8232C45.7922 28.4915 45.7519 25.3633 47.0523 23.848C47.2862 23.565 47.5886 23.3463 47.931 23.2127C48.2734 23.0791 48.6443 23.035 49.0086 23.0846C49.4083 23.0925 49.8012 23.1885 50.1593 23.3658C51.2086 23.8752 52.1098 24.6438 52.7773 25.5986C54.1755 27.4297 55.0788 30.9769 54.1467 33.1524C53.984 33.5735 53.7226 33.9497 53.3842 34.2493C53.0458 34.5489 52.6404 34.7632 52.2019 34.8743C51.9103 34.9481 51.6109 34.9866 51.3101 34.9891ZM48.7036 23.6643C48.4708 23.6615 48.2405 23.7118 48.0301 23.8113C47.8197 23.9108 47.6349 24.0568 47.4896 24.2383C46.4366 25.4609 46.3388 28.3136 46.7301 29.6682C47.1846 31.2123 49.0316 35.058 52.0638 34.3061C52.4147 34.2199 52.7394 34.0501 53.01 33.8111C53.2806 33.5722 53.489 33.2713 53.6173 32.9342C54.4804 30.9425 53.6173 27.6593 52.317 25.9602C51.7079 25.0872 50.8888 24.3806 49.9349 23.9054C49.6505 23.7622 49.3384 23.6819 49.0201 23.67H48.9625L48.7036 23.6643Z" fill="#231F20"/>
<path d="M43.0016 14.3312C43.0016 14.3312 44.8256 2.8514 55.6599 1.12943C65.0385 -0.362945 77.0984 3.99938 80.355 14.3312C80.355 14.3312 81.5863 21.3339 62.7485 21.2191C43.9107 21.1043 43.0016 14.3312 43.0016 14.3312Z" fill="#231F20"/>
<path d="M63.2319 21.5004H62.7485C43.882 21.3741 42.7312 14.6584 42.7312 14.3714V14.2853C42.7312 14.1705 44.7163 2.59887 55.6312 0.865422C65.3608 -0.672873 77.3803 3.90757 80.6485 14.2451C80.6941 14.7998 80.6202 15.3577 80.4316 15.8815C80.243 16.4052 79.9442 16.8826 79.5553 17.2816C77.9212 19.2159 73.7612 21.5004 63.2319 21.5004ZM43.3066 14.3312C43.4274 14.8593 45.2111 20.8059 62.7658 20.9207H63.2491C73.5196 20.9207 77.5415 18.7567 79.1122 16.9027C79.4424 16.5671 79.6992 16.1668 79.8666 15.7272C80.034 15.2876 80.1082 14.8181 80.0846 14.3485C77.599 6.49627 67.8003 -0.517895 55.7117 1.39923C45.5563 3.04659 43.4389 13.5449 43.3066 14.3312Z" fill="#231F20"/>
<path d="M34.7047 88.4334C43.1829 88.4334 50.0558 81.5771 50.0558 73.1194C50.0558 64.6616 43.1829 57.8053 34.7047 57.8053C26.2266 57.8053 19.3537 64.6616 19.3537 73.1194C19.3537 81.5771 26.2266 88.4334 34.7047 88.4334Z" fill="#231F20"/>
<path d="M34.7048 88.7377C31.6117 88.7377 28.5881 87.8227 26.0164 86.1084C23.4446 84.3941 21.4401 81.9576 20.2565 79.1069C19.0728 76.2561 18.7631 73.1193 19.3665 70.093C19.97 67.0667 21.4594 64.2868 23.6465 62.105C25.8336 59.9231 28.6202 58.4373 31.6538 57.8353C34.6874 57.2333 37.8318 57.5423 40.6894 58.7231C43.547 59.9039 45.9895 61.9035 47.7079 64.4691C49.4263 67.0347 50.3435 70.051 50.3435 73.1366C50.3389 77.2729 48.6898 81.2384 45.7579 84.1632C42.8261 87.088 38.851 88.7331 34.7048 88.7377ZM34.7048 58.1095C31.7255 58.1095 28.8132 58.9908 26.336 60.642C23.8589 62.2932 21.9282 64.6401 20.788 67.386C19.6479 70.1318 19.3496 73.1533 19.9309 76.0682C20.5121 78.9832 21.9467 81.6608 24.0534 83.7623C26.16 85.8639 28.844 87.2951 31.766 87.8749C34.688 88.4548 37.7168 88.1572 40.4692 87.0198C43.2217 85.8824 45.5743 83.9564 47.2295 81.4852C48.8846 79.014 49.7681 76.1087 49.7681 73.1366C49.7666 69.15 48.1796 65.327 45.3555 62.5064C42.5314 59.6859 38.7009 58.0984 34.7048 58.0923V58.1095Z" fill="#231F20"/>
<path d="M71.2699 33.5715C72.0992 33.5715 72.7716 32.5564 72.7716 31.3042C72.7716 30.052 72.0992 29.0369 71.2699 29.0369C70.4405 29.0369 69.7681 30.052 69.7681 31.3042C69.7681 32.5564 70.4405 33.5715 71.2699 33.5715Z" fill="#231F20"/>
<path d="M77.9615 29.7601C78.7909 29.7601 79.4632 28.745 79.4632 27.4929C79.4632 26.2407 78.7909 25.2256 77.9615 25.2256C77.1321 25.2256 76.4597 26.2407 76.4597 27.4929C76.4597 28.745 77.1321 29.7601 77.9615 29.7601Z" fill="#231F20"/>
<path d="M54.2387 34.662C54.1965 34.6609 54.155 34.6506 54.1172 34.6318C54.0795 34.6129 54.0463 34.586 54.0201 34.5529L46.0051 24.9156C45.9809 24.8866 45.9627 24.8531 45.9515 24.8171C45.9403 24.781 45.9363 24.7431 45.9398 24.7056C45.9433 24.668 45.9541 24.6314 45.9718 24.5981C45.9894 24.5647 46.0134 24.5351 46.0425 24.5109C46.0716 24.4868 46.1052 24.4687 46.1413 24.4575C46.1774 24.4463 46.2154 24.4423 46.2531 24.4458C46.2908 24.4493 46.3274 24.4601 46.3608 24.4777C46.3943 24.4953 46.424 24.5192 46.4482 24.5483L54.4689 34.2085C54.4932 34.2373 54.5116 34.2707 54.5227 34.3066C54.5339 34.3426 54.5377 34.3804 54.534 34.4179C54.5302 34.4554 54.519 34.4917 54.5009 34.5248C54.4828 34.5578 54.4582 34.5869 54.4286 34.6103C54.3741 34.6507 54.3063 34.6692 54.2387 34.662Z" fill="#231F20"/>
<path d="M124.469 68.1773C122.588 68.3258 120.695 68.2216 118.842 67.8674C115.24 67.2934 113.393 65.1696 113.301 61.0254C113.209 56.8812 112.012 51.4512 113.301 50.0163C114.59 48.5813 119.952 45.1775 120.206 46.8364C120.459 48.4952 116.788 50.6763 116.604 51.7497C116.42 52.8231 117.806 53.6554 117.714 55.9571C117.714 55.9571 119.728 45.5506 124.446 44.4428C129.164 43.335 129.624 45.8261 128.422 46.6527C127.219 47.4792 125.085 47.6686 124.446 48.6789C123.807 49.6891 123.347 53.6554 123.347 53.6554C123.347 53.6554 128.238 45.918 131.287 47.6686C134.337 49.4193 134.423 51.6292 132.944 51.3537C131.466 51.0781 129.809 50.6419 128.882 51.9621C127.956 53.2823 126.667 55.406 126.667 55.406C126.667 55.406 132.225 52.0884 133.876 52.9149C135.528 53.7415 137.012 56.3589 134.981 56.2039C132.95 56.0489 131.005 55.9571 130.085 56.9673C129.164 57.9775 128.882 60.1013 128.146 62.3111C127.409 64.521 127.133 68.1486 124.469 68.1773Z" fill="#231F20"/>
<path d="M123.071 68.5275C121.638 68.5156 120.209 68.3909 118.796 68.1544C114.998 67.5402 113.111 65.2098 113.013 61.0311C113.013 59.7167 112.846 58.2702 112.708 56.8697C112.392 53.6611 112.133 50.8945 113.088 49.8268C114.239 48.5698 118.468 45.7228 119.947 46.1533C120.095 46.1898 120.23 46.2701 120.332 46.3837C120.435 46.4973 120.501 46.639 120.522 46.7904C120.712 47.9384 119.429 49.1381 118.295 50.2344C117.651 50.8485 116.983 51.4799 116.92 51.8243C116.913 52.2565 117.042 52.6799 117.288 53.0355C117.513 53.4468 117.696 53.8794 117.835 54.3269C118.623 51.3135 120.677 45.0627 124.412 44.1845C128.146 43.3063 129.015 44.6494 129.187 45.0799C129.319 45.4044 129.334 45.7644 129.229 46.0984C129.124 46.4324 128.906 46.7196 128.612 46.911C128.021 47.2754 127.385 47.5592 126.719 47.7547C125.85 48.0647 125.027 48.3287 124.711 48.8568C124.394 49.3849 124.02 51.1528 123.819 52.5016C125.315 50.4066 128.888 45.9696 131.454 47.439C133.629 48.6903 134.446 50.2286 134.124 51.0954C134.032 51.3254 133.857 51.5124 133.633 51.6189C133.409 51.7253 133.152 51.7433 132.916 51.6694L132.605 51.6062C131.276 51.3537 129.895 51.0839 129.153 52.1802C128.641 52.9207 128.002 53.9022 127.542 54.6484C129.268 53.707 132.685 52.0367 134.043 52.714C135.24 53.288 136.517 54.9296 136.253 55.8882C136.172 56.1637 135.919 56.6057 134.993 56.5425C132.921 56.3818 131.143 56.3244 130.332 57.2141C129.757 57.857 129.429 59.0394 129.055 60.4055C128.876 61.0656 128.692 61.7486 128.451 62.4546C128.313 62.8794 128.186 63.3615 128.054 63.8667C127.513 65.9215 126.845 68.4586 124.498 68.516C124.023 68.5458 123.546 68.5497 123.071 68.5275ZM119.578 46.6756C118.284 46.6756 114.647 48.9716 113.52 50.2114C112.72 51.0896 113.008 53.9998 113.278 56.8123C113.416 58.2243 113.56 59.6823 113.589 61.0139C113.681 64.9285 115.361 67.0179 118.888 67.5861C120.714 67.9294 122.576 68.0316 124.429 67.8903H124.463C126.385 67.8903 126.943 65.7321 127.484 63.6715C127.622 63.1549 127.749 62.667 127.898 62.2193C128.128 61.5305 128.313 60.8532 128.474 60.2046C128.865 58.7639 129.204 57.5241 129.883 56.7606C130.867 55.6815 132.789 55.7332 135.01 55.8997C135.395 55.9341 135.62 55.8537 135.672 55.6701C135.827 55.0961 134.866 53.7128 133.761 53.156C132.519 52.5303 128.336 54.7345 126.828 55.6356C126.773 55.6671 126.708 55.6797 126.645 55.6714C126.582 55.6631 126.523 55.6344 126.477 55.5897C126.432 55.5441 126.404 55.485 126.397 55.4215C126.389 55.3581 126.404 55.2941 126.437 55.2396C126.437 55.2396 127.743 53.0986 128.658 51.7956C129.573 50.4927 131.259 50.728 132.685 51.0035L132.996 51.0609C133.203 51.1011 133.468 51.1011 133.572 50.8715C133.761 50.3492 133.128 49.0462 131.155 47.9097C128.853 46.5838 124.918 51.7153 123.6 53.7989C123.566 53.8537 123.513 53.8952 123.452 53.9166C123.391 53.938 123.324 53.938 123.262 53.9167C123.201 53.8955 123.149 53.8541 123.114 53.7993C123.079 53.7445 123.064 53.6796 123.071 53.6152C123.071 53.4487 123.548 49.5972 124.222 48.5239C124.647 47.8466 125.562 47.5251 126.523 47.1865C127.138 47.0023 127.728 46.742 128.278 46.4116C128.467 46.2958 128.608 46.116 128.674 45.9051C128.741 45.6942 128.729 45.4664 128.641 45.2636C128.341 44.592 127.104 44.1156 124.527 44.6896C120.044 45.74 118.031 55.8767 118.013 55.9743C117.998 56.0451 117.958 56.1081 117.9 56.1514C117.841 56.1947 117.769 56.2154 117.697 56.2096C117.625 56.201 117.558 56.1654 117.511 56.11C117.465 56.0547 117.44 55.9836 117.444 55.9111C117.475 54.9745 117.238 54.0484 116.759 53.2421C116.447 52.7794 116.299 52.2257 116.339 51.6694C116.431 51.1413 117.07 50.5214 117.881 49.7637C118.859 48.8338 120.079 47.6859 119.941 46.8478C119.938 46.8045 119.92 46.7635 119.891 46.7313C119.862 46.699 119.823 46.6774 119.78 46.6699C119.713 46.6627 119.645 46.6647 119.578 46.6756Z" fill="#231F20"/>
<path d="M17.8693 102.45V74.0722C17.8693 74.0722 33.7784 84.559 57.5702 82.2171V109.895C57.5702 109.895 41.989 114.619 17.8693 102.45Z" fill="white"/>
<path d="M49.2732 111.054C42.2997 111.054 31.333 109.562 17.7369 102.709C17.69 102.684 17.6507 102.646 17.6234 102.601C17.596 102.555 17.5816 102.503 17.5816 102.45V74.0722C17.5796 74.02 17.5923 73.9682 17.6182 73.9228C17.6442 73.8773 17.6823 73.84 17.7283 73.8149C17.7743 73.7899 17.8264 73.7781 17.8788 73.781C17.9311 73.7839 17.9816 73.8012 18.0246 73.8312C18.1857 73.9345 34.1351 84.2319 57.5356 81.9359C57.5748 81.9321 57.6144 81.9363 57.652 81.9482C57.6895 81.96 57.7243 81.9792 57.7543 82.0048C57.783 82.0323 57.806 82.0652 57.8218 82.1017C57.8376 82.1382 57.8459 82.1774 57.8463 82.2172V109.895C57.8467 109.956 57.8274 110.016 57.7911 110.066C57.7549 110.115 57.7036 110.152 57.645 110.17C57.5759 110.193 54.584 111.054 49.2732 111.054ZM18.1569 102.278C40.3261 113.408 55.3665 110.159 57.2825 109.677V82.5386C35.9936 84.5246 20.9072 76.2247 18.1569 74.5831V102.278Z" fill="#231F20"/>
<path d="M91.9258 86.0112V45.453C91.9258 45.453 127.737 44.1099 142.559 29.6052V71.5065C142.559 71.5065 127.737 83.3249 91.9258 86.0112Z" fill="#A6CD67"/>
<path d="M91.9258 86.2982C91.8538 86.2972 91.7845 86.2707 91.7302 86.2236C91.7015 86.1961 91.6785 86.1632 91.6627 86.1267C91.6469 86.0902 91.6386 86.051 91.6382 86.0112V45.4531C91.6381 45.3789 91.6668 45.3076 91.7183 45.2541C91.7698 45.2006 91.84 45.169 91.9143 45.1661C92.2711 45.1661 127.783 43.6565 142.346 29.3985C142.386 29.3591 142.437 29.3326 142.493 29.3223C142.548 29.3121 142.605 29.3186 142.657 29.3411C142.713 29.3615 142.762 29.399 142.796 29.4485C142.83 29.4979 142.848 29.5567 142.847 29.6167V71.518C142.847 71.5611 142.837 71.6038 142.818 71.6426C142.799 71.6814 142.771 71.7154 142.737 71.7418C142.588 71.8624 127.45 83.6464 91.9604 86.3097L91.9258 86.2982ZM92.2135 45.7286V85.7013C125.723 83.1298 140.85 72.4134 142.271 71.3515V30.2767C127.962 43.5933 95.5507 45.5564 92.2135 45.7286Z" fill="#231F20"/>
<path d="M74.4747 134.083V108.466C74.4747 108.466 99.1526 108.282 116.776 95.0975V121.455C116.776 121.455 100.649 134.835 74.4747 134.083Z" fill="#A6CD67"/>
<path d="M76.523 134.422C75.8441 134.422 75.1652 134.422 74.4689 134.422C74.3941 134.419 74.3232 134.387 74.2708 134.334C74.2184 134.281 74.1884 134.209 74.187 134.135V108.466C74.1885 108.39 74.2193 108.318 74.2729 108.264C74.3265 108.211 74.3989 108.18 74.4747 108.179C74.7221 108.179 99.2619 107.846 116.604 94.8679C116.647 94.838 116.697 94.8203 116.75 94.8165C116.802 94.8128 116.855 94.8232 116.902 94.8467C116.949 94.8702 116.989 94.9058 117.017 94.95C117.046 94.9941 117.062 95.045 117.064 95.0975V121.455C117.063 121.498 117.054 121.539 117.036 121.578C117.018 121.617 116.992 121.651 116.96 121.679C116.799 121.822 101.304 134.422 76.523 134.422ZM74.7624 133.848C99.2791 134.456 115.039 122.477 116.489 121.352V95.6944C100.05 107.702 77.553 108.695 74.7624 108.77V133.848Z" fill="#231F20"/>
<path d="M78.8545 114.217C78.8545 114.217 96.6927 113.19 111.611 104.5" stroke="#231F20" stroke-width="0.6"/>
<path d="M78.8545 121.717C78.8545 121.717 81.6703 121.555 86 120.815M88.5 120.352C94.3138 119.193 101.974 117.089 109.218 113.318" stroke="#231F20" stroke-width="0.6"/>
<path d="M78.8545 117.717C78.8545 117.717 91.2392 117.004 104 111.739M111.611 108C109.865 109.017 108.079 109.929 106.286 110.747" stroke="#231F20" stroke-width="0.6"/>
<path d="M78.8545 125.717C78.8545 125.717 84.7015 125.381 92.5 123.462M104 119.739C100.922 121.009 97.8657 122.014 95 122.809" stroke="#231F20" stroke-width="0.6"/>
<path d="M79.2936 129.978C79.2936 129.978 83.7168 129.724 90 128.395" stroke="#231F20" stroke-width="0.6"/>
<path d="M96 52.75C96 52.75 122 51.5 138.5 40.5" stroke="black" stroke-width="0.6"/>
<path d="M96 66.25C96 66.25 114.742 65.3489 130.5 58.3444" stroke="black" stroke-width="0.6"/>
<path d="M96 70.9056C96 70.9056 97.9005 70.8142 101 70.4635M103 70.2203C108.268 69.5361 115.864 68.2072 123.5 65.6856M125.492 65C125.684 64.9311 125.876 64.8615 126.068 64.791M127.897 64.093C128.117 64.0057 128.337 63.9173 128.556 63.8278M126.654 64.5733C126.857 64.4968 127.061 64.4194 127.263 64.3411L126.654 64.5733Z" stroke="black" stroke-width="0.6"/>
<path d="M96 61.75C96 61.75 108.082 61.1692 121 57.315C121.861 57.0581 122.726 56.7867 123.591 56.5M138.5 49.5C134.694 52.0376 130.382 54.0563 126 55.6605" stroke="black" stroke-width="0.6"/>
<path d="M96 57.25C96 57.25 101.722 56.9749 109.5 55.5473M119.5 53.2492C116.918 53.9742 114.387 54.5709 112 55.0613M122 52.5105C126.496 51.1138 131.057 49.3145 135.215 47" stroke="black" stroke-width="0.6"/>
</g>
<defs>
<clipPath id="clip0_244_1181">
<rect width="143" height="135" fill="white"/>
</clipPath>
</defs>
</svg>
