<svg width="203" height="62" viewBox="0 0 203 62" fill="none" xmlns="http://www.w3.org/2000/svg">
<g clip-path="url(#clip0_180_2539)">
<path d="M186.834 0.000247276H16.1748C15.5527 0.000247276 14.9381 0.000247276 14.3177 0.00334727C13.7983 0.00644726 13.2831 0.0154527 12.7587 0.0230322C11.6196 0.03528 10.4832 0.126845 9.35929 0.296932C8.23699 0.470721 7.14984 0.798364 6.13461 1.26878C5.12063 1.74317 4.19412 2.3596 3.38871 3.0957C2.57906 3.82972 1.90416 4.67816 1.38996 5.60838C0.874333 6.53675 0.516797 7.53158 0.329698 8.55851C0.140821 9.58415 0.0391845 10.6216 0.0257007 11.6616C0.00995796 12.1368 0.00829547 12.6136 0 13.0889V48.9159C0.00829547 49.3972 0.00995796 49.8634 0.0257007 50.3449C0.0391886 51.3848 0.140825 52.4222 0.329698 53.4478C0.51628 54.4753 0.873837 55.4707 1.38996 56.3994C1.90393 57.3267 2.57893 58.1717 3.38871 58.9016C4.19107 59.641 5.11817 60.2578 6.13461 60.7286C7.14983 61.2003 8.23686 61.5299 9.35929 61.7063C10.4834 61.875 11.6197 61.9666 12.7587 61.9804C13.2831 61.9909 13.7983 61.9969 14.3177 61.9969C14.9381 62 15.5527 62 16.1748 62H186.834C187.444 62 188.064 62 188.673 61.9969C189.19 61.9969 189.72 61.9909 190.237 61.9804C191.374 61.9674 192.508 61.8758 193.63 61.7063C194.756 61.5286 195.847 61.1991 196.867 60.7286C197.883 60.2575 198.809 59.6407 199.611 58.9016C200.418 58.1688 201.095 57.3244 201.615 56.3994C202.127 55.4701 202.481 54.4747 202.665 53.4478C202.854 52.4221 202.96 51.3849 202.98 50.3449C202.987 49.8634 202.987 49.3972 202.987 48.9159C203 48.3528 203 47.7928 203 47.2205V14.7812C203 14.2136 203 13.6505 202.987 13.0889C202.987 12.6136 202.987 12.1368 202.98 11.6615C202.96 10.6215 202.854 9.58423 202.665 8.55845C202.481 7.53211 202.127 6.53736 201.615 5.60831C200.568 3.74379 198.907 2.22608 196.867 1.26864C195.847 0.799374 194.756 0.471818 193.63 0.296792C192.508 0.125956 191.374 0.0343592 190.237 0.0228152C189.72 0.0152512 189.19 0.00616826 188.673 0.00314577C188.064 4.57764e-05 187.444 0.000247276 186.834 0.000247276Z" fill="#A6A6A6"/>
<path d="M13.9067 60.9969C13.3873 60.9969 12.8805 60.9908 12.3652 60.9801C11.2978 60.9673 10.2329 60.8818 9.17915 60.7243C8.19661 60.5686 7.2448 60.2789 6.35511 59.8649C5.47358 59.4543 4.66955 58.9159 3.97382 58.2703C3.26803 57.6323 2.68042 56.8924 2.23429 56.0798C1.78324 55.262 1.47109 54.3853 1.30871 53.4804C1.13335 52.5081 1.03847 51.525 1.02489 50.5394C1.01409 50.2086 0.999939 49.1072 0.999939 49.1072V12.8729C0.999939 12.8729 1.01501 11.7884 1.02498 11.4698C1.03798 10.4858 1.1323 9.50416 1.30714 8.53335C1.46982 7.62597 1.78221 6.7468 2.2335 5.92627C2.678 5.11425 3.26234 4.37377 3.96389 3.73352C4.66464 3.08719 5.47124 2.54601 6.35428 2.12973C7.24193 1.71702 8.19194 1.42941 9.17248 1.27653C10.2297 1.11743 11.2983 1.03141 12.3694 1.0192L13.9075 1.00005H189.084L190.64 1.01997C191.702 1.03157 192.761 1.11682 193.808 1.275C194.799 1.42979 195.759 1.71941 196.656 2.13432C198.425 2.97325 199.865 4.30052 200.773 5.93009C201.217 6.74497 201.525 7.61697 201.685 8.5165C201.862 9.49527 201.961 10.4846 201.982 11.4767C201.986 11.9209 201.986 12.398 201.986 12.8729C202 13.4611 202 14.021 202 14.5854V47.413C202 47.9828 202 48.5389 201.986 49.0995C201.986 49.6096 201.986 50.0769 201.98 50.5578C201.96 51.5321 201.863 52.5038 201.689 53.4651C201.529 54.3765 201.219 55.26 200.768 56.0845C200.319 56.8883 199.735 57.6218 199.037 58.2581C198.341 58.9071 197.535 59.4487 196.652 59.8619C195.756 60.2791 194.798 60.5699 193.808 60.7243C192.755 60.8827 191.69 60.9682 190.622 60.9801C190.123 60.9908 189.6 60.9969 189.092 60.9969L187.245 61L13.9067 60.9969Z" fill="black"/>
<path d="M104.05 19.848C102.698 19.848 101.558 19.3729 100.656 18.4377C99.762 17.5288 99.2628 16.2757 99.2852 14.9963C99.2852 13.631 99.7471 12.4752 100.656 11.5587C101.554 10.6235 102.694 10.1485 104.046 10.1485C105.383 10.1485 106.523 10.6235 107.44 11.5587C108.349 12.5051 108.811 13.6609 108.811 14.9963C108.796 16.3654 108.334 17.5213 107.44 18.434C106.542 19.3766 105.402 19.848 104.05 19.848ZM63.8131 19.848C62.4906 19.848 61.3432 19.3804 60.4044 18.4564C59.4731 17.5362 59 16.3729 59 15.0001C59 13.6273 59.4731 12.4639 60.4044 11.5437C61.3246 10.6198 62.472 10.1522 63.8131 10.1522C64.4687 10.1522 65.1057 10.2831 65.7167 10.5487C66.3164 10.8068 66.8045 11.1584 67.1658 11.5886L67.2552 11.6971L66.2457 12.6921L66.1414 12.5687C65.5714 11.8879 64.8077 11.555 63.7982 11.555C62.8966 11.555 62.1106 11.8766 61.4624 12.5126C60.8105 13.1522 60.4789 13.9901 60.4789 15.0038C60.4789 16.0175 60.8105 16.8555 61.4624 17.4951C62.1106 18.131 62.8966 18.4527 63.7982 18.4527C64.7593 18.4527 65.5677 18.131 66.1972 17.4951C66.5698 17.121 66.8007 16.5973 66.8827 15.9353H63.6454V14.5362H68.2722L68.2908 14.6634C68.3244 14.8991 68.3579 15.1422 68.3579 15.3667C68.3579 16.6572 67.9705 17.7008 67.2031 18.4714C66.3313 19.3841 65.1914 19.848 63.8131 19.848ZM117.312 19.6497H115.885L111.515 12.6285L111.553 13.8929V19.646H110.126V10.3505H111.754L111.798 10.4215L115.907 17.035L115.87 15.7744V10.3505H117.312V19.6497ZM93.3285 19.6497H91.883V11.7495H89.3759V10.3505H95.8318V11.7495H93.3247V19.6497H93.3285ZM88.1987 19.6497H86.7571V10.3505H88.1987V19.6497ZM80.0963 19.6497H78.6546V11.7495H76.1475V10.3505H82.6034V11.7495H80.0963V19.6497ZM75.2348 19.6348H69.7065V10.3505H75.2348V11.7495H71.1519V14.3006H74.8362V15.6846H71.1519V18.2358H75.2348V19.6348ZM101.714 17.4764C102.359 18.1235 103.141 18.449 104.05 18.449C104.985 18.449 105.749 18.131 106.386 17.4764C107.019 16.8405 107.339 16.0063 107.339 15.0001C107.339 13.9939 107.019 13.1559 106.389 12.5238C105.745 11.8766 104.959 11.5512 104.054 11.5512C103.118 11.5512 102.355 11.8692 101.722 12.5238C101.088 13.1597 100.768 13.9939 100.768 15.0001C100.768 16.0063 101.084 16.8442 101.714 17.4764Z" fill="white"/>
<path fill-rule="evenodd" clip-rule="evenodd" d="M99.4345 32.6336C95.9141 32.6336 93.0605 35.3156 93.0605 39.0151C93.0605 42.681 95.9327 45.3967 99.4345 45.3967C102.955 45.3967 105.808 42.6959 105.808 39.0151C105.808 35.3156 102.955 32.6336 99.4345 32.6336ZM99.4345 42.868C97.5085 42.868 95.8507 41.267 95.8507 39.0002C95.8507 36.6997 97.5122 35.1323 99.4345 35.1323C101.36 35.1323 103.018 36.6997 103.018 39.0002C103.022 41.282 101.36 42.868 99.4345 42.868ZM85.5279 32.6336C82.0075 32.6336 79.1539 35.3156 79.1539 39.0151C79.1539 42.681 82.0261 45.3967 85.5279 45.3967C89.0483 45.3967 91.9019 42.6959 91.9019 39.0151C91.9019 35.3156 89.0446 32.6336 85.5279 32.6336ZM85.5279 42.868C83.6019 42.868 81.9442 41.267 81.9442 39.0002C81.9442 36.6997 83.6057 35.1323 85.5279 35.1323C87.4539 35.1323 89.1117 36.6997 89.1117 39.0002C89.1117 41.282 87.4539 42.868 85.5279 42.868ZM68.9801 34.5825V37.2832H75.4361C75.2386 38.7982 74.7394 39.9166 73.9757 40.6835C73.0295 41.6336 71.5692 42.666 68.995 42.666C65.0275 42.666 61.9244 39.449 61.9244 35.4653C61.9244 31.4815 65.0275 28.2645 68.995 28.2645C71.1371 28.2645 72.698 29.1136 73.8565 30.1984L75.7639 28.2832C74.1546 26.7346 72.0125 25.5488 69.0099 25.5488C63.5672 25.5488 59 30.0002 59 35.4503C59 40.9154 63.5635 45.3518 69.0099 45.3518C71.9492 45.3518 74.1546 44.3867 75.898 42.5687C77.675 40.7845 78.2375 38.267 78.2375 36.2358C78.2375 35.6037 78.1891 35.0351 78.0885 34.5525H68.9764C68.9801 34.5488 68.9801 34.5825 68.9801 34.5825ZM136.665 36.6847C136.132 35.252 134.523 32.6186 131.223 32.6186C127.952 32.6186 125.232 35.2034 125.232 39.0002C125.232 42.5837 127.922 45.3817 131.539 45.3817C134.445 45.3817 136.136 43.5974 136.833 42.55L134.676 41.0987C133.961 42.1648 132.966 42.8643 131.554 42.8643C130.127 42.8643 129.129 42.2134 128.466 40.9303L136.963 37.3954C136.963 37.3992 136.665 36.6847 136.665 36.6847ZM128 38.8169C127.933 36.3518 129.908 35.0987 131.319 35.0987C132.433 35.0987 133.361 35.6485 133.678 36.449L128 38.8169ZM121.097 45.0002H123.887V26.252H121.097V45.0002ZM116.515 34.0513H116.414C115.785 33.2994 114.589 32.6186 113.062 32.6186C109.891 32.6186 106.971 35.4204 106.971 39.0189C106.971 42.6024 109.877 45.3705 113.062 45.3705C114.57 45.3705 115.785 44.686 116.414 43.9191H116.515V44.8356C116.515 47.2707 115.219 48.5837 113.129 48.5837C111.419 48.5837 110.357 47.3493 109.925 46.3169L107.5 47.3343C108.196 49.0176 110.055 51.1012 113.125 51.1012C116.396 51.1012 119.167 49.1672 119.167 44.4503V33.0002H116.53V34.0513C116.534 34.0513 116.515 34.0513 116.515 34.0513ZM113.311 42.868C111.385 42.868 109.776 41.252 109.776 39.0189C109.776 36.767 111.385 35.1361 113.311 35.1361C115.219 35.1361 116.698 36.7857 116.698 39.0189C116.716 41.252 115.222 42.868 113.311 42.868ZM149.73 26.252H143.058V45.0002H145.848V37.9004H149.734C152.822 37.9004 155.858 35.6523 155.858 32.0837C155.858 28.5151 152.833 26.252 149.73 26.252ZM149.812 35.282H145.844V28.848H149.812C151.902 28.848 153.083 30.58 153.083 32.065C153.083 33.5351 151.887 35.282 149.812 35.282ZM167.041 32.5999C165.015 32.5999 162.925 33.5014 162.061 35.4653L164.534 36.4977C165.067 35.4653 166.043 35.1136 167.075 35.1136C168.52 35.1136 169.981 35.9815 170.014 37.5301V37.7283C169.515 37.4441 168.42 37.0101 167.108 37.0101C164.437 37.0101 161.729 38.4765 161.729 41.2259C161.729 43.7433 163.92 45.3593 166.36 45.3593C168.233 45.3593 169.265 44.5101 169.91 43.5264H170.01V44.9777H172.7V37.7957C172.7 34.4515 170.227 32.5999 167.041 32.5999ZM166.691 42.868C165.778 42.868 164.501 42.4191 164.501 41.267C164.501 39.8156 166.095 39.2658 167.455 39.2658C168.684 39.2658 169.265 39.5313 169.996 39.8979C169.794 41.5812 168.379 42.853 166.691 42.868ZM182.513 33.0002L179.309 41.1323H179.208L175.889 33.0002H172.886L177.867 44.368L175.028 50.686H177.934L185.597 33.0002H182.513ZM157.397 45.0002H160.187V26.252H157.397V45.0002Z" fill="white"/>
<path fill-rule="evenodd" clip-rule="evenodd" d="M18.4802 14.2216C18.1156 14.6161 17.905 15.219 17.905 16.0081V43.996C17.905 44.7851 18.1156 45.388 18.4928 45.7668L18.5902 45.852L34.207 30.171V29.8206L18.5777 14.1364L18.4802 14.2216Z" fill="url(#paint0_linear_180_2539)"/>
<path fill-rule="evenodd" clip-rule="evenodd" d="M39.403 35.4138L34.1942 30.1836V29.8175L39.403 24.5873L39.5162 24.6568L45.6774 28.173C47.4409 29.1704 47.4409 30.8181 45.6774 31.8281L39.5162 35.3444L39.403 35.4138Z" fill="url(#paint1_linear_180_2539)"/>
<path fill-rule="evenodd" clip-rule="evenodd" d="M39.5162 35.3444L34.1943 30.0005L18.4801 45.7795C19.0554 46.3981 20.0204 46.4676 21.0986 45.8647L39.5162 35.3444Z" fill="url(#paint2_linear_180_2539)"/>
<path fill-rule="evenodd" clip-rule="evenodd" d="M39.5162 24.6567L21.0986 14.1522C20.0204 13.5335 19.0522 13.6188 18.4801 14.2374L34.1943 30.0006L39.5162 24.6567Z" fill="url(#paint3_linear_180_2539)"/>
<path opacity="0.2" fill-rule="evenodd" clip-rule="evenodd" d="M39.4031 35.2308L21.1112 45.6659C20.0896 46.2561 19.178 46.2151 18.5901 45.6785L18.4927 45.7763L18.5901 45.8616C19.178 46.395 20.0896 46.4392 21.1112 45.8489L39.5289 35.3444L39.4031 35.2308Z" fill="black"/>
<path opacity="0.12" fill-rule="evenodd" clip-rule="evenodd" d="M45.6775 31.645L39.3874 35.2307L39.5006 35.3444L45.6617 31.8281C46.5451 31.3231 46.9789 30.6602 46.9789 30.0005C46.9254 30.6066 46.4759 31.181 45.6775 31.645Z" fill="black"/>
<path opacity="0.25" fill-rule="evenodd" clip-rule="evenodd" d="M21.0987 14.3353L45.6775 28.3561C46.4759 28.8075 46.9254 29.3977 46.9946 30.0006C46.9946 29.3409 46.5608 28.678 45.6775 28.173L21.0987 14.1522C19.3352 13.139 17.905 13.9849 17.905 16.0082V16.1913C17.905 14.1649 19.3352 13.3347 21.0987 14.3353Z" fill="white"/>
</g>
<defs>
<linearGradient id="paint0_linear_180_2539" x1="32.8062" y1="15.7062" x2="7.77729" y2="22.3478" gradientUnits="userSpaceOnUse">
<stop stop-color="#00A0FF"/>
<stop offset="0.00657" stop-color="#00A1FF"/>
<stop offset="0.2601" stop-color="#00BEFF"/>
<stop offset="0.5122" stop-color="#00D2FF"/>
<stop offset="0.7604" stop-color="#00DFFF"/>
<stop offset="1" stop-color="#00E3FF"/>
</linearGradient>
<linearGradient id="paint1_linear_180_2539" x1="47.9771" y1="30.0006" x2="17.4761" y2="30.0006" gradientUnits="userSpaceOnUse">
<stop stop-color="#FFE000"/>
<stop offset="0.4087" stop-color="#FFBD00"/>
<stop offset="0.7754" stop-color="#FFA500"/>
<stop offset="1" stop-color="#FF9C00"/>
</linearGradient>
<linearGradient id="paint2_linear_180_2539" x1="36.6224" y1="32.9083" x2="16.4179" y2="66.7746" gradientUnits="userSpaceOnUse">
<stop stop-color="#FF3A44"/>
<stop offset="1" stop-color="#C31162"/>
</linearGradient>
<linearGradient id="paint3_linear_180_2539" x1="14.5231" y1="4.91241" x2="23.5372" y2="20.0377" gradientUnits="userSpaceOnUse">
<stop stop-color="#32A071"/>
<stop offset="0.0685" stop-color="#2DA771"/>
<stop offset="0.4762" stop-color="#15CF74"/>
<stop offset="0.8009" stop-color="#06E775"/>
<stop offset="1" stop-color="#00F076"/>
</linearGradient>
<clipPath id="clip0_180_2539">
<rect width="203" height="62" fill="white"/>
</clipPath>
</defs>
</svg>
