<svg width="154" height="47" viewBox="0 0 154 47" fill="none" xmlns="http://www.w3.org/2000/svg">
<g clip-path="url(#clip0_244_1499)">
<path d="M141.736 0.000152749H12.2705C11.7986 0.000152749 11.3323 0.000152749 10.8617 0.00250274C10.4677 0.00485273 10.0768 0.0116794 9.67904 0.0174252C8.81489 0.0267097 7.95276 0.0961219 7.10015 0.225058C6.24875 0.356802 5.42401 0.605176 4.65384 0.96178C3.88462 1.3214 3.18175 1.78869 2.57074 2.3467C1.95653 2.90314 1.44454 3.54631 1.05445 4.25147C0.663287 4.95523 0.392053 5.70938 0.250116 6.48786C0.10683 7.26536 0.0297261 8.05183 0.0194971 8.8402C0.00755431 9.20046 0.00629312 9.56191 0 9.92221V37.0813C0.00629312 37.4462 0.00755431 37.7996 0.0194971 38.1646C0.0297293 38.9529 0.106833 39.7393 0.250116 40.5168C0.391661 41.2957 0.662911 42.0503 1.05445 42.7543C1.44436 43.4572 1.95643 44.0978 2.57074 44.6511C3.17943 45.2116 3.88275 45.6792 4.65384 46.0361C5.42401 46.3937 6.24865 46.6435 7.10015 46.7773C7.9529 46.9052 8.81494 46.9746 9.67904 46.985C10.0768 46.993 10.4677 46.9976 10.8617 46.9976C11.3323 46.9999 11.7986 46.9999 12.2705 46.9999H141.736C142.199 46.9999 142.669 46.9999 143.131 46.9976C143.524 46.9976 143.926 46.993 144.318 46.985C145.18 46.9752 146.041 46.9057 146.892 46.7773C147.746 46.6426 148.574 46.3928 149.347 46.0361C150.118 45.679 150.821 45.2114 151.429 44.6511C152.041 44.0956 152.555 43.4555 152.949 42.7543C153.338 42.0498 153.607 41.2953 153.746 40.5168C153.89 39.7392 153.969 38.953 153.985 38.1646C153.99 37.7996 153.99 37.4462 153.99 37.0813C154 36.6545 154 36.2299 154 35.7961V11.2051C154 10.7748 154 10.3479 153.99 9.92221C153.99 9.56191 153.99 9.20046 153.985 8.84016C153.969 8.05171 153.89 7.26542 153.746 6.48782C153.606 5.70978 153.338 4.9557 152.949 4.25142C152.155 2.838 150.895 1.68747 149.347 0.961674C148.574 0.605942 147.746 0.357634 146.892 0.224953C146.041 0.0954481 145.18 0.0260118 144.318 0.0172607C143.926 0.0115267 143.524 0.00464123 143.131 0.00234999C142.669 0 142.199 0.000152749 141.736 0.000152749Z" fill="#A6A6A6"/>
<path d="M10.55 46.2397C10.156 46.2397 9.77151 46.2351 9.38061 46.227C8.57084 46.2173 7.76295 46.1525 6.96358 46.0331C6.21821 45.9151 5.49615 45.6955 4.82121 45.3816C4.15245 45.0703 3.5425 44.6622 3.01471 44.1728C2.47928 43.6892 2.03351 43.1283 1.69506 42.5123C1.35288 41.8923 1.11608 41.2278 0.992892 40.5418C0.859861 39.8047 0.787886 39.0594 0.777587 38.3123C0.769389 38.0615 0.758656 37.2266 0.758656 37.2266V9.75868C0.758656 9.75868 0.770087 8.93655 0.777652 8.69502C0.787513 7.9491 0.85907 7.20496 0.991703 6.46902C1.11512 5.78118 1.35211 5.11471 1.69447 4.49269C2.03167 3.87713 2.47496 3.3158 3.00717 2.83045C3.53878 2.34049 4.15068 1.93024 4.82057 1.61467C5.49396 1.30181 6.21466 1.08378 6.95852 0.967896C7.76052 0.847285 8.57121 0.782077 9.3838 0.772819L10.5506 0.758301H143.443L144.624 0.773402C145.429 0.7822 146.233 0.846826 147.027 0.966731C147.779 1.08407 148.507 1.30362 149.188 1.61816C150.53 2.25412 151.622 3.26027 152.311 4.49559C152.648 5.11332 152.881 5.77435 153.003 6.45625C153.137 7.19823 153.212 7.94822 153.228 8.70025C153.231 9.03699 153.231 9.39871 153.231 9.75868C153.242 10.2046 153.242 10.629 153.242 11.0569V35.9423C153.242 36.3743 153.242 36.7958 153.231 37.2207C153.231 37.6074 153.231 37.9617 153.226 38.3262C153.211 39.0648 153.137 39.8014 153.005 40.5301C152.885 41.221 152.649 41.8908 152.307 42.5159C151.966 43.1252 151.523 43.6812 150.994 44.1635C150.466 44.6555 149.854 45.0661 149.184 45.3793C148.505 45.6956 147.778 45.916 147.027 46.0331C146.228 46.1531 145.42 46.218 144.61 46.227C144.231 46.2351 143.835 46.2397 143.45 46.2397L142.048 46.2421L10.55 46.2397Z" fill="black"/>
<path d="M28.1851 23.0841C28.1974 22.135 28.4497 21.2044 28.9185 20.3789C29.3874 19.5535 30.0576 18.8599 30.8667 18.3628C30.3527 17.6292 29.6746 17.0255 28.8862 16.5996C28.0978 16.1737 27.2209 15.9373 26.3251 15.9093C24.4142 15.7089 22.5617 17.0519 21.588 17.0519C20.5954 17.0519 19.0962 15.9292 17.4818 15.9624C16.4375 15.9961 15.4198 16.2995 14.5278 16.8431C13.6358 17.3867 12.9 18.152 12.3919 19.0642C10.1911 22.8717 11.8327 28.4674 13.9409 31.5451C14.9956 33.0521 16.2283 34.7356 17.8413 34.6759C19.4196 34.6104 20.0091 33.6701 21.9144 33.6701C23.8019 33.6701 24.355 34.6759 26.0007 34.6379C27.6943 34.6104 28.7614 33.1242 29.7792 31.6028C30.537 30.529 31.1202 29.3422 31.507 28.0864C30.5231 27.6705 29.6834 26.9744 29.0926 26.0848C28.5019 25.1953 28.1863 24.1517 28.1851 23.0841Z" fill="white"/>
<path d="M25.0766 13.8852C26 12.7774 26.455 11.3536 26.3448 9.91602C24.934 10.0641 23.6308 10.7379 22.6948 11.8032C22.2372 12.3236 21.8867 12.929 21.6634 13.5848C21.4401 14.2407 21.3483 14.9341 21.3934 15.6254C22.099 15.6326 22.7972 15.4798 23.4351 15.1784C24.0731 14.8769 24.6344 14.4348 25.0766 13.8852Z" fill="white"/>
<path d="M48.137 30.8607H42.7507L41.4572 34.6773H39.1758L44.2776 20.5569H46.6479L51.7497 34.6773H49.4294L48.137 30.8607ZM43.3086 29.0996H47.5781L45.4734 22.9055H45.4145L43.3086 29.0996Z" fill="white"/>
<path d="M62.768 29.5304C62.768 32.7295 61.0544 34.785 58.4685 34.785C57.8135 34.8192 57.162 34.6684 56.5887 34.3499C56.0155 34.0313 55.5435 33.5579 55.227 32.9838H55.1781V38.083H53.0633V24.3823H55.1103V26.0946H55.1492C55.4803 25.5233 55.9602 25.0523 56.5378 24.7318C57.1155 24.4113 57.7693 24.2533 58.4296 24.2746C61.0444 24.2746 62.768 26.34 62.768 29.5304ZM60.5944 29.5304C60.5944 27.4461 59.5164 26.0758 57.8718 26.0758C56.256 26.0758 55.1692 27.4749 55.1692 29.5304C55.1692 31.6047 56.256 32.9938 57.8718 32.9938C59.5165 32.9938 60.5944 31.6335 60.5944 29.5304Z" fill="white"/>
<path d="M74.1073 29.5303C74.1073 32.7295 72.3937 34.785 69.8078 34.785C69.1527 34.8192 68.5013 34.6684 67.928 34.3499C67.3547 34.0313 66.8828 33.5579 66.5663 32.9838H66.5173V38.083H64.4026V24.3823H66.4495V26.0946H66.4884C66.8195 25.5233 67.2994 25.0523 67.8771 24.7318C68.4547 24.4113 69.1085 24.2533 69.7689 24.2746C72.3837 24.2746 74.1073 26.34 74.1073 29.5303ZM71.9336 29.5303C71.9336 27.446 70.8557 26.0757 69.211 26.0757C67.5953 26.0757 66.5085 27.4749 66.5085 29.5303C66.5085 31.6047 67.5953 32.9938 69.211 32.9938C70.8557 32.9938 71.9336 31.6335 71.9336 29.5303H71.9336Z" fill="white"/>
<path d="M81.6015 30.7429C81.7582 32.1431 83.1195 33.0625 84.9797 33.0625C86.7622 33.0625 88.0446 32.1431 88.0446 30.8805C88.0446 29.7845 87.2712 29.1282 85.4398 28.6785L83.6085 28.2377C81.0137 27.6114 79.809 26.3988 79.809 24.431C79.809 21.9947 81.9338 20.3213 84.9508 20.3213C87.9368 20.3213 89.9837 21.9947 90.0526 24.431H87.9179C87.7901 23.0219 86.6244 22.1713 84.9208 22.1713C83.2173 22.1713 82.0515 23.0319 82.0515 24.2845C82.0515 25.2828 82.7961 25.8702 84.6174 26.3199L86.1743 26.7019C89.0736 27.387 90.2782 28.5508 90.2782 30.6162C90.2782 33.2579 88.1724 34.9125 84.823 34.9125C81.6893 34.9125 79.5734 33.2968 79.4367 30.7428L81.6015 30.7429Z" fill="white"/>
<path d="M94.8419 21.946V24.3824H96.801V26.0558H94.8419V31.7313C94.8419 32.613 95.2342 33.0238 96.0954 33.0238C96.328 33.0198 96.5602 33.0035 96.791 32.975V34.6384C96.4038 34.7107 96.0103 34.7434 95.6164 34.7361C93.5306 34.7361 92.7172 33.9533 92.7172 31.9567V26.0558H91.2192V24.3824H92.7171V21.946H94.8419Z" fill="white"/>
<path d="M97.9361 29.5302C97.9361 26.2911 99.8453 24.2556 102.822 24.2556C105.809 24.2556 107.71 26.291 107.71 29.5302C107.71 32.7783 105.819 34.8048 102.822 34.8048C99.8263 34.8048 97.9361 32.7783 97.9361 29.5302ZM105.555 29.5302C105.555 27.3082 104.536 25.9968 102.822 25.9968C101.109 25.9968 100.091 27.3182 100.091 29.5302C100.091 31.7611 101.109 33.0626 102.822 33.0626C104.536 33.0626 105.555 31.7611 105.555 29.5302H105.555Z" fill="white"/>
<path d="M109.453 24.3822H111.47V26.1345H111.519C111.656 25.5872 111.976 25.1036 112.428 24.7649C112.879 24.4261 113.433 24.253 113.997 24.2745C114.241 24.2736 114.484 24.3001 114.722 24.3533V26.3299C114.414 26.236 114.093 26.1929 113.772 26.2022C113.464 26.1898 113.158 26.2439 112.874 26.3609C112.589 26.4779 112.334 26.655 112.124 26.88C111.915 27.105 111.757 27.3726 111.661 27.6645C111.565 27.9564 111.533 28.2655 111.568 28.5708V34.6771H109.453L109.453 24.3822Z" fill="white"/>
<path d="M124.472 31.6534C124.187 33.5223 122.366 34.8048 120.036 34.8048C117.038 34.8048 115.178 32.7983 115.178 29.5791C115.178 26.3499 117.048 24.2556 119.947 24.2556C122.797 24.2556 124.589 26.2122 124.589 29.3337V30.0577H117.313V30.1854C117.279 30.5643 117.327 30.946 117.452 31.3051C117.578 31.6642 117.778 31.9926 118.04 32.2684C118.302 32.5442 118.62 32.7611 118.973 32.9047C119.325 33.0484 119.704 33.1154 120.084 33.1014C120.584 33.1482 121.086 33.0325 121.514 32.7717C121.943 32.5108 122.276 32.1186 122.464 31.6534L124.472 31.6534ZM117.323 28.5808H122.474C122.493 28.2401 122.441 27.8992 122.322 27.5795C122.203 27.2597 122.019 26.968 121.781 26.7226C121.544 26.4773 121.259 26.2836 120.943 26.1537C120.627 26.0239 120.288 25.9606 119.947 25.9679C119.602 25.9659 119.261 26.032 118.942 26.1625C118.624 26.2929 118.334 26.4852 118.09 26.7281C117.846 26.971 117.653 27.2598 117.521 27.5778C117.389 27.8958 117.322 28.2367 117.323 28.5808V28.5808Z" fill="white"/>
<path d="M43.0434 9.92835C43.4868 9.89656 43.9317 9.96349 44.346 10.1243C44.7603 10.2851 45.1338 10.5358 45.4394 10.8584C45.745 11.1809 45.9752 11.5671 46.1134 11.9893C46.2515 12.4115 46.2942 12.859 46.2383 13.2997C46.2383 15.4672 45.0659 16.7132 43.0434 16.7132H40.5909V9.92835H43.0434ZM41.6455 15.7537H42.9256C43.2424 15.7726 43.5595 15.7207 43.8537 15.6018C44.1479 15.4828 44.4118 15.2998 44.6263 15.066C44.8408 14.8323 45.0004 14.5537 45.0936 14.2505C45.1867 13.9474 45.2111 13.6272 45.1648 13.3135C45.2077 13.001 45.1809 12.6828 45.0863 12.3819C44.9918 12.081 44.8317 11.8046 44.6177 11.5727C44.4037 11.3409 44.141 11.1591 43.8485 11.0406C43.556 10.9221 43.2408 10.8697 42.9256 10.8872H41.6455V15.7537Z" fill="white"/>
<path d="M47.4292 14.1506C47.397 13.8141 47.4355 13.4746 47.5423 13.1539C47.6491 12.8331 47.8218 12.5382 48.0493 12.2881C48.2768 12.0379 48.5542 11.8381 48.8635 11.7013C49.1729 11.5645 49.5074 11.4939 49.8457 11.4939C50.1839 11.4939 50.5185 11.5645 50.8278 11.7013C51.1372 11.8381 51.4145 12.0379 51.642 12.2881C51.8695 12.5382 52.0422 12.8331 52.149 13.1539C52.2558 13.4746 52.2943 13.8141 52.2621 14.1506C52.2949 14.4874 52.2569 14.8274 52.1504 15.1486C52.0439 15.4699 51.8713 15.7653 51.6437 16.016C51.4161 16.2666 51.1386 16.4669 50.8289 16.6039C50.5193 16.741 50.1843 16.8118 49.8457 16.8118C49.507 16.8118 49.1721 16.741 48.8624 16.6039C48.5528 16.4669 48.2752 16.2666 48.0476 16.016C47.8201 15.7653 47.6475 15.4699 47.541 15.1486C47.4345 14.8274 47.3964 14.4874 47.4292 14.1506ZM51.222 14.1506C51.222 13.0407 50.723 12.3916 49.8473 12.3916C48.9683 12.3916 48.4739 13.0407 48.4739 14.1506C48.4739 15.2694 48.9684 15.9134 49.8473 15.9134C50.723 15.9134 51.222 15.2649 51.222 14.1506H51.222Z" fill="white"/>
<path d="M58.6868 16.7128H57.6378L56.5787 12.9417H56.4987L55.4442 16.7128H54.4051L52.9927 11.5925H54.0184L54.9363 15.4996H55.0119L56.0653 11.5925H57.0355L58.0889 15.4996H58.169L59.0824 11.5925H60.0937L58.6868 16.7128Z" fill="white"/>
<path d="M61.2816 11.5926H62.2551V12.406H62.3307C62.4589 12.1139 62.6751 11.869 62.9492 11.7055C63.2233 11.542 63.5416 11.468 63.8598 11.4938C64.1091 11.4751 64.3594 11.5126 64.5923 11.6037C64.8251 11.6948 65.0344 11.8371 65.2047 12.0199C65.3751 12.2028 65.502 12.4217 65.5762 12.6603C65.6504 12.8989 65.6699 13.1511 65.6333 13.3982V16.7128H64.6221V13.652C64.6221 12.8291 64.2643 12.4199 63.5164 12.4199C63.3471 12.4121 63.1781 12.4408 63.021 12.5043C62.8639 12.5678 62.7224 12.6645 62.6062 12.7877C62.49 12.911 62.4018 13.0579 62.3478 13.2183C62.2937 13.3788 62.275 13.5491 62.2929 13.7175V16.7129H61.2816L61.2816 11.5926Z" fill="white"/>
<path d="M67.2447 9.59375H68.2559V16.7128H67.2447V9.59375Z" fill="white"/>
<path d="M69.6618 14.1504C69.6296 13.8139 69.6682 13.4744 69.775 13.1537C69.8818 12.8329 70.0545 12.538 70.2821 12.2878C70.5096 12.0377 70.787 11.8378 71.0963 11.7011C71.4057 11.5643 71.7403 11.4937 72.0786 11.4937C72.4169 11.4937 72.7514 11.5643 73.0608 11.7011C73.3701 11.8378 73.6475 12.0377 73.875 12.2878C74.1026 12.538 74.2753 12.8329 74.3821 13.1537C74.4889 13.4744 74.5275 13.8139 74.4953 14.1504C74.5281 14.4873 74.49 14.8273 74.3834 15.1485C74.2769 15.4698 74.1043 15.7652 73.8767 16.0158C73.6491 16.2664 73.3715 16.4667 73.0618 16.6038C72.7522 16.7408 72.4172 16.8116 72.0786 16.8116C71.7399 16.8116 71.4049 16.7408 71.0953 16.6038C70.7856 16.4667 70.508 16.2664 70.2804 16.0158C70.0528 15.7652 69.8802 15.4698 69.7737 15.1485C69.6672 14.8273 69.6291 14.4873 69.6618 14.1504ZM73.4546 14.1504C73.4546 13.0405 72.9556 12.3915 72.0799 12.3915C71.2009 12.3915 70.7065 13.0405 70.7065 14.1504C70.7065 15.2692 71.201 15.9133 72.0799 15.9133C72.9556 15.9133 73.4546 15.2648 73.4546 14.1504H73.4546Z" fill="white"/>
<path d="M75.5594 15.2647C75.5594 14.343 76.2462 13.8117 77.4652 13.7362L78.8532 13.6562V13.2143C78.8532 12.6735 78.4954 12.3681 77.8042 12.3681C77.2396 12.3681 76.8485 12.5752 76.7362 12.9372H75.7572C75.8606 12.0578 76.6885 11.4937 77.8508 11.4937C79.1355 11.4937 79.86 12.1327 79.86 13.2143V16.7127H78.8865V15.9932H78.8065C78.6441 16.2513 78.4161 16.4617 78.1457 16.6029C77.8753 16.7442 77.5722 16.8112 77.2674 16.7971C77.0523 16.8195 76.8349 16.7965 76.6292 16.7298C76.4235 16.663 76.2341 16.554 76.0732 16.4096C75.9123 16.2652 75.7834 16.0887 75.6949 15.8915C75.6064 15.6944 75.5603 15.4808 75.5594 15.2647ZM78.8532 14.8272V14.3991L77.6019 14.4791C76.8963 14.5263 76.5762 14.7661 76.5762 15.2175C76.5762 15.6783 76.9763 15.9465 77.5264 15.9465C77.6876 15.9628 77.8504 15.9466 78.0051 15.8987C78.1599 15.8508 78.3035 15.7724 78.4272 15.6679C78.551 15.5635 78.6525 15.4352 78.7257 15.2908C78.7989 15.1464 78.8422 14.9887 78.8532 14.8272Z" fill="white"/>
<path d="M81.1895 14.1505C81.1895 12.5326 82.0218 11.5076 83.3164 11.5076C83.6367 11.4929 83.9545 11.5695 84.2327 11.7286C84.511 11.8877 84.7382 12.1226 84.8878 12.4059H84.9633V9.59375H85.9746V16.7128H85.0056V15.9038H84.9255C84.7644 16.1853 84.5293 16.4173 84.2457 16.5747C83.962 16.7322 83.6407 16.8091 83.3164 16.7972C82.0129 16.7972 81.1895 15.7723 81.1895 14.1505ZM82.2341 14.1505C82.2341 15.2365 82.7464 15.89 83.6032 15.89C84.4555 15.89 84.9822 15.2271 84.9822 14.1549C84.9822 13.0878 84.45 12.4154 83.6032 12.4154C82.7519 12.4154 82.2341 13.0733 82.2341 14.1505H82.2341Z" fill="white"/>
<path d="M90.1582 14.1506C90.126 13.8141 90.1645 13.4746 90.2713 13.1539C90.3781 12.8331 90.5508 12.5382 90.7783 12.2881C91.0058 12.0379 91.2832 11.8381 91.5925 11.7013C91.9019 11.5645 92.2364 11.4939 92.5747 11.4939C92.9129 11.4939 93.2475 11.5645 93.5568 11.7013C93.8662 11.8381 94.1435 12.0379 94.371 12.2881C94.5985 12.5382 94.7712 12.8331 94.878 13.1539C94.9848 13.4746 95.0233 13.8141 94.9911 14.1506C95.0239 14.4874 94.9859 14.8274 94.8794 15.1486C94.7729 15.4699 94.6003 15.7653 94.3727 16.016C94.1451 16.2666 93.8676 16.4669 93.5579 16.6039C93.2483 16.741 92.9133 16.8118 92.5747 16.8118C92.236 16.8118 91.9011 16.741 91.5914 16.6039C91.2817 16.4669 91.0042 16.2666 90.7766 16.016C90.5491 15.7653 90.3765 15.4699 90.27 15.1486C90.1635 14.8274 90.1254 14.4874 90.1582 14.1506ZM93.951 14.1506C93.951 13.0407 93.452 12.3916 92.5763 12.3916C91.6973 12.3916 91.2029 13.0407 91.2029 14.1506C91.2029 15.2694 91.6974 15.9134 92.5763 15.9134C93.452 15.9134 93.951 15.2649 93.951 14.1506Z" fill="white"/>
<path d="M96.3478 11.5926H97.3213V12.406H97.3969C97.5251 12.1139 97.7413 11.869 98.0154 11.7055C98.2895 11.542 98.6078 11.468 98.926 11.4938C99.1753 11.4751 99.4256 11.5126 99.6585 11.6037C99.8913 11.6948 100.101 11.8371 100.271 12.0199C100.441 12.2028 100.568 12.4217 100.642 12.6603C100.717 12.8989 100.736 13.1511 100.7 13.3982V16.7128H99.6883V13.652C99.6883 12.8291 99.3305 12.4199 98.5826 12.4199C98.4133 12.4121 98.2443 12.4408 98.0872 12.5043C97.9301 12.5678 97.7886 12.6645 97.6724 12.7877C97.5562 12.911 97.468 13.0579 97.414 13.2183C97.3599 13.3788 97.3412 13.5491 97.3591 13.7175V16.7129H96.3478V11.5926Z" fill="white"/>
<path d="M106.413 10.3179V11.616H107.524V12.4671H106.413V15.1C106.413 15.6364 106.635 15.8712 107.138 15.8712C107.267 15.8708 107.396 15.863 107.524 15.8479V16.6896C107.342 16.7221 107.158 16.7393 106.974 16.7412C105.849 16.7412 105.401 16.3459 105.401 15.3587V12.4671H104.588V11.6159H105.401V10.3179H106.413Z" fill="white"/>
<path d="M108.905 9.59375H109.908V12.4154H109.988C110.122 12.1205 110.344 11.8742 110.624 11.7101C110.903 11.546 111.227 11.472 111.55 11.4982C111.798 11.4847 112.046 11.5261 112.276 11.6193C112.506 11.7126 112.713 11.8555 112.882 12.0379C113.05 12.2202 113.176 12.4374 113.251 12.6741C113.326 12.9108 113.348 13.161 113.315 13.407V16.7128H112.302V13.6563C112.302 12.8385 111.921 12.4243 111.207 12.4243C111.033 12.41 110.858 12.4339 110.695 12.4942C110.531 12.5546 110.383 12.6499 110.26 12.7735C110.137 12.8972 110.042 13.0461 109.983 13.21C109.924 13.3739 109.901 13.5488 109.917 13.7224V16.7128H108.905L108.905 9.59375Z" fill="white"/>
<path d="M119.21 15.3303C119.073 15.7983 118.775 16.2031 118.369 16.4739C117.964 16.7447 117.475 16.8642 116.99 16.8116C116.653 16.8206 116.317 16.7559 116.007 16.6223C115.697 16.4887 115.42 16.2892 115.194 16.0377C114.969 15.7863 114.801 15.4889 114.703 15.1661C114.604 14.8434 114.577 14.5031 114.623 14.1688C114.578 13.8335 114.606 13.4924 114.704 13.1687C114.803 12.845 114.97 12.5462 115.194 12.2926C115.418 12.0389 115.694 11.8363 116.003 11.6985C116.312 11.5607 116.647 11.4909 116.986 11.4937C118.411 11.4937 119.272 12.4671 119.272 14.0749V14.4275H115.653V14.4842C115.637 14.6721 115.661 14.8612 115.723 15.0394C115.784 15.2177 115.882 15.3811 116.011 15.5192C116.139 15.6573 116.295 15.7671 116.469 15.8414C116.642 15.9158 116.829 15.9531 117.018 15.951C117.26 15.98 117.505 15.9365 117.722 15.826C117.939 15.7155 118.118 15.5429 118.237 15.3303L119.21 15.3303ZM115.653 13.6802H118.241C118.254 13.5084 118.231 13.3357 118.173 13.1735C118.115 13.0112 118.023 12.8628 117.905 12.7379C117.786 12.613 117.642 12.5143 117.483 12.4481C117.324 12.382 117.152 12.3498 116.98 12.3538C116.805 12.3516 116.632 12.3844 116.47 12.4503C116.308 12.5162 116.16 12.6138 116.037 12.7374C115.913 12.861 115.815 13.0081 115.75 13.1701C115.684 13.332 115.651 13.5054 115.653 13.6802H115.653Z" fill="white"/>
</g>
<defs>
<clipPath id="clip0_244_1499">
<rect width="154" height="47" fill="white" transform="translate(0 0.000244141)"/>
</clipPath>
</defs>
</svg>
