<svg width="203" height="62" viewBox="0 0 203 62" fill="none" xmlns="http://www.w3.org/2000/svg">
<g clip-path="url(#clip0_180_2504)">
<path d="M186.834 0.000247276H16.1748C15.5527 0.000247276 14.9381 0.000247276 14.3177 0.00334727C13.7983 0.00644726 13.2831 0.0154527 12.7587 0.0230322C11.6196 0.03528 10.4832 0.126845 9.35929 0.296932C8.23699 0.470721 7.14984 0.798364 6.13461 1.26878C5.12063 1.74317 4.19412 2.3596 3.38871 3.0957C2.57906 3.82972 1.90416 4.67816 1.38996 5.60838C0.874333 6.53675 0.516797 7.53158 0.329698 8.55851C0.140821 9.58415 0.0391845 10.6216 0.0257007 11.6616C0.00995796 12.1368 0.00829547 12.6136 0 13.0889V48.9159C0.00829547 49.3972 0.00995796 49.8634 0.0257007 50.3449C0.0391886 51.3848 0.140825 52.4222 0.329698 53.4478C0.51628 54.4753 0.873837 55.4707 1.38996 56.3994C1.90393 57.3267 2.57893 58.1717 3.38871 58.9016C4.19107 59.641 5.11817 60.2578 6.13461 60.7286C7.14983 61.2003 8.23686 61.5299 9.35929 61.7063C10.4834 61.875 11.6197 61.9666 12.7587 61.9804C13.2831 61.9909 13.7983 61.9969 14.3177 61.9969C14.9381 62 15.5527 62 16.1748 62H186.834C187.444 62 188.064 62 188.673 61.9969C189.19 61.9969 189.72 61.9909 190.237 61.9804C191.374 61.9674 192.508 61.8758 193.63 61.7063C194.756 61.5286 195.847 61.1991 196.867 60.7286C197.883 60.2575 198.809 59.6407 199.611 58.9016C200.418 58.1688 201.095 57.3244 201.615 56.3994C202.127 55.4701 202.481 54.4747 202.665 53.4478C202.854 52.4221 202.96 51.3849 202.98 50.3449C202.987 49.8634 202.987 49.3972 202.987 48.9159C203 48.3528 203 47.7928 203 47.2205V14.7812C203 14.2136 203 13.6505 202.987 13.0889C202.987 12.6136 202.987 12.1368 202.98 11.6615C202.96 10.6215 202.854 9.58423 202.665 8.55845C202.481 7.53211 202.127 6.53736 201.615 5.60831C200.568 3.74379 198.907 2.22608 196.867 1.26864C195.847 0.799374 194.756 0.471818 193.63 0.296792C192.508 0.125956 191.374 0.0343592 190.237 0.0228152C189.72 0.0152512 189.19 0.00616826 188.673 0.00314577C188.064 4.57764e-05 187.444 0.000247276 186.834 0.000247276Z" fill="#A6A6A6"/>
<path d="M13.9067 60.997C13.3874 60.997 12.8806 60.9909 12.3653 60.9803C11.2979 60.9675 10.2329 60.882 9.17921 60.7244C8.19668 60.5687 7.24487 60.2791 6.35517 59.865C5.47364 59.4544 4.66961 58.916 3.97388 58.2704C3.26809 57.6325 2.68048 56.8925 2.23435 56.08C1.7833 55.2621 1.47115 54.3855 1.30877 53.4806C1.13341 52.5083 1.03853 51.5251 1.02496 50.5396C1.01415 50.2087 1 49.1073 1 49.1073V12.873C1 12.873 1.01507 11.7885 1.02504 11.4699C1.03804 10.4859 1.13236 9.50429 1.3072 8.53348C1.46988 7.62611 1.78227 6.74694 2.23357 5.9264C2.67806 5.11439 3.2624 4.37391 3.96395 3.73366C4.6647 3.08732 5.4713 2.54615 6.35434 2.12987C7.24199 1.71716 8.192 1.42955 9.17254 1.27667C10.2297 1.11757 11.2984 1.03155 12.3695 1.01934L13.9076 1.00018H189.084L190.641 1.0201C191.702 1.03171 192.761 1.11696 193.808 1.27513C194.799 1.42993 195.759 1.71954 196.657 2.13446C198.426 2.97339 199.865 4.30066 200.773 5.93023C201.217 6.7451 201.525 7.6171 201.685 8.51664C201.862 9.49541 201.961 10.4848 201.982 11.4768C201.987 11.921 201.987 12.3982 201.987 12.873C202 13.4612 202 14.0211 202 14.5856V47.4131C202 47.983 202 48.539 201.987 49.0996C201.987 49.6097 201.987 50.077 201.98 50.5579C201.96 51.5322 201.863 52.5039 201.689 53.4652C201.53 54.3766 201.219 55.2601 200.768 56.0847C200.319 56.8884 199.735 57.622 199.037 58.2582C198.341 58.9072 197.535 59.4488 196.652 59.862C195.756 60.2793 194.798 60.57 193.808 60.7244C192.755 60.8828 191.69 60.9683 190.622 60.9803C190.123 60.9909 189.6 60.997 189.092 60.997L187.245 61.0002L13.9067 60.997Z" fill="black"/>
<path d="M37.1533 30.4512C37.1695 29.1992 37.502 27.9716 38.12 26.8827C38.7381 25.7938 39.6215 24.8789 40.6882 24.2231C40.0106 23.2554 39.1166 22.459 38.0774 21.8971C37.0382 21.3353 35.8822 21.0235 34.7014 20.9866C32.1826 20.7222 29.7406 22.4938 28.4571 22.4938C27.1487 22.4938 25.1724 21.0128 23.0443 21.0566C21.6678 21.1011 20.3263 21.5014 19.1505 22.2185C17.9747 22.9355 17.0046 23.945 16.3349 25.1484C13.4339 30.1711 15.5978 37.5526 18.3767 41.6125C19.7671 43.6006 21.392 45.8212 23.5182 45.7425C25.5988 45.6562 26.3758 44.4158 28.8873 44.4158C31.3754 44.4158 32.1045 45.7425 34.2738 45.6924C36.5064 45.6562 37.913 43.6956 39.2545 41.6887C40.2535 40.2722 41.0222 38.7066 41.5322 37.0499C40.2351 36.5014 39.1282 35.5831 38.3496 34.4096C37.5709 33.2362 37.1548 31.8595 37.1533 30.4512Z" fill="white"/>
<path d="M33.0559 18.3165C34.2732 16.8552 34.8729 14.9769 34.7277 13.0806C32.8679 13.2759 31.15 14.1648 29.9163 15.57C29.3131 16.2565 28.8511 17.0551 28.5567 17.9203C28.2624 18.7855 28.1414 19.7001 28.2007 20.6121C29.1309 20.6217 30.0512 20.42 30.8922 20.0224C31.7332 19.6248 32.473 19.0415 33.0559 18.3165Z" fill="white"/>
<path d="M63.4534 40.7097H56.3533L54.6482 45.7443H51.6409L58.366 27.1173H61.4905L68.2156 45.7443H65.157L63.4534 40.7097ZM57.0886 38.3864H62.7166L59.9422 30.2155H59.8646L57.0886 38.3864Z" fill="white"/>
<path d="M82.7395 38.9548C82.7395 43.175 80.4808 45.8864 77.0721 45.8864C76.2086 45.9316 75.3498 45.7327 74.5941 45.3125C73.8385 44.8923 73.2164 44.2677 72.7991 43.5104H72.7346V50.237H69.947V32.1637H72.6453V34.4225H72.6966C73.133 33.6688 73.7656 33.0476 74.527 32.6248C75.2885 32.202 76.1503 31.9936 77.0208 32.0217C80.4675 32.0217 82.7395 34.7463 82.7395 38.9548ZM79.8743 38.9548C79.8743 36.2053 78.4534 34.3976 76.2854 34.3976C74.1556 34.3976 72.7229 36.2433 72.7229 38.9548C72.7229 41.6911 74.1556 43.5236 76.2854 43.5236C78.4534 43.5236 79.8743 41.7292 79.8743 38.9548Z" fill="white"/>
<path d="M97.6868 38.9548C97.6868 43.175 95.428 45.8864 92.0193 45.8864C91.1559 45.9316 90.2971 45.7327 89.5414 45.3125C88.7857 44.8923 88.1636 44.2678 87.7464 43.5104H87.6819V50.237H84.8943V32.1638H87.5925V34.4226H87.6438C88.0802 33.6689 88.7128 33.0476 89.4743 32.6248C90.2357 32.202 91.0975 31.9936 91.968 32.0217C95.4148 32.0217 97.6868 34.7463 97.6868 38.9548ZM94.8216 38.9548C94.8216 36.2053 93.4007 34.3977 91.2327 34.3977C89.1028 34.3977 87.6702 36.2434 87.6702 38.9548C87.6702 41.6911 89.1028 43.5236 91.2327 43.5236C93.4007 43.5236 94.8216 41.7292 94.8216 38.9548H94.8216Z" fill="white"/>
<path d="M107.566 40.5544C107.772 42.4016 109.567 43.6144 112.019 43.6144C114.368 43.6144 116.059 42.4015 116.059 40.736C116.059 39.2902 115.039 38.4245 112.625 37.8312L110.211 37.2496C106.791 36.4235 105.203 34.8238 105.203 32.2281C105.203 29.0143 108.004 26.8067 111.981 26.8067C115.917 26.8067 118.615 29.0143 118.706 32.2281H115.892C115.723 30.3692 114.187 29.2472 111.941 29.2472C109.696 29.2472 108.159 30.3824 108.159 32.0348C108.159 33.3517 109.14 34.1266 111.541 34.7198L113.594 35.2237C117.415 36.1275 119.003 37.6627 119.003 40.3873C119.003 43.8721 116.227 46.0547 111.812 46.0547C107.681 46.0547 104.892 43.9234 104.712 40.5542L107.566 40.5544Z" fill="white"/>
<path d="M125.019 28.9499V32.1638H127.602V34.3713H125.019V41.8581C125.019 43.0212 125.536 43.5632 126.672 43.5632C126.978 43.5578 127.284 43.5363 127.589 43.4987V45.693C127.078 45.7884 126.559 45.8316 126.04 45.8219C123.291 45.8219 122.219 44.7892 122.219 42.1554V34.3713H120.244V32.1638H122.218V28.9499H125.019Z" fill="white"/>
<path d="M129.098 38.9548C129.098 34.6818 131.614 31.9968 135.538 31.9968C139.476 31.9968 141.981 34.6818 141.981 38.9548C141.981 43.2395 139.489 45.9128 135.538 45.9128C131.589 45.9128 129.098 43.2394 129.098 38.9548ZM139.14 38.9548C139.14 36.0236 137.797 34.2937 135.538 34.2937C133.28 34.2937 131.938 36.0368 131.938 38.9548C131.938 41.8976 133.28 43.6145 135.538 43.6145C137.797 43.6145 139.14 41.8976 139.14 38.9548H139.14Z" fill="white"/>
<path d="M144.279 32.1638H146.938V34.4753H147.002C147.182 33.7533 147.605 33.1153 148.2 32.6685C148.795 32.2217 149.525 31.9933 150.269 32.0216C150.59 32.0205 150.91 32.0554 151.224 32.1257V34.7331C150.818 34.6092 150.395 34.5523 149.971 34.5646C149.566 34.5482 149.163 34.6196 148.788 34.7739C148.413 34.9283 148.076 35.1619 147.8 35.4587C147.524 35.7555 147.316 36.1086 147.189 36.4936C147.063 36.8786 147.021 37.2864 147.067 37.6891V45.7443H144.279L144.279 32.1638Z" fill="white"/>
<path d="M164.076 41.7556C163.701 44.2209 161.301 45.9128 158.229 45.9128C154.278 45.9128 151.826 43.2658 151.826 39.0192C151.826 34.7595 154.291 31.9968 158.112 31.9968C161.869 31.9968 164.232 34.5778 164.232 38.6955V39.6506H154.64V39.819C154.596 40.3188 154.658 40.8223 154.823 41.2961C154.989 41.7698 155.253 42.203 155.598 42.5668C155.944 42.9307 156.363 43.2168 156.828 43.4063C157.292 43.5957 157.792 43.6842 158.293 43.6657C158.952 43.7274 159.613 43.5749 160.178 43.2307C160.743 42.8865 161.182 42.3692 161.429 41.7555L164.076 41.7556ZM154.653 37.7023H161.443C161.468 37.2529 161.4 36.8032 161.243 36.3814C161.086 35.9596 160.843 35.5748 160.53 35.2511C160.217 34.9275 159.841 34.672 159.425 34.5007C159.009 34.3293 158.562 34.2459 158.112 34.2556C157.658 34.2528 157.208 34.3401 156.788 34.5122C156.368 34.6843 155.986 34.9379 155.664 35.2583C155.343 35.5788 155.088 35.9597 154.914 36.3792C154.741 36.7987 154.652 37.2484 154.653 37.7023V37.7023Z" fill="white"/>
<path d="M56.7393 13.0967C57.3237 13.0547 57.9101 13.143 58.4563 13.3552C59.0025 13.5673 59.4948 13.898 59.8976 14.3235C60.3005 14.7489 60.604 15.2585 60.7861 15.8154C60.9682 16.3723 61.0244 16.9627 60.9507 17.5439C60.9507 20.4033 59.4053 22.0469 56.7393 22.0469H53.5064V13.0967H56.7393ZM54.8965 20.7812H56.584C57.0016 20.8061 57.4195 20.7377 57.8073 20.5807C58.1951 20.4238 58.5431 20.1824 58.8258 19.874C59.1086 19.5657 59.319 19.1982 59.4418 18.7983C59.5646 18.3983 59.5966 17.9761 59.5357 17.5622C59.5922 17.1499 59.5569 16.7303 59.4322 16.3333C59.3075 15.9363 59.0966 15.5718 58.8145 15.2659C58.5324 14.96 58.1861 14.7203 57.8005 14.5639C57.4149 14.4076 56.9995 14.3384 56.584 14.3615H54.8965V20.7812Z" fill="white"/>
<path d="M62.521 18.6667C62.4786 18.2228 62.5293 17.7749 62.6701 17.3518C62.8109 16.9287 63.0385 16.5397 63.3384 16.2098C63.6383 15.8798 64.0039 15.6161 64.4117 15.4357C64.8194 15.2553 65.2604 15.1621 65.7063 15.1621C66.1522 15.1621 66.5932 15.2553 67.001 15.4357C67.4088 15.6161 67.7743 15.8798 68.0742 16.2098C68.3742 16.5397 68.6018 16.9287 68.7426 17.3518C68.8833 17.7749 68.9341 18.2228 68.8916 18.6667C68.9349 19.111 68.8847 19.5595 68.7443 19.9833C68.6039 20.4071 68.3764 20.7968 68.0765 21.1274C67.7765 21.458 67.4106 21.7222 67.0024 21.903C66.5943 22.0838 66.1528 22.1772 65.7063 22.1772C65.2599 22.1772 64.8184 22.0838 64.4102 21.903C64.002 21.7222 63.6362 21.458 63.3362 21.1274C63.0362 20.7968 62.8087 20.4071 62.6683 19.9833C62.5279 19.5595 62.4777 19.111 62.521 18.6667ZM67.5205 18.6667C67.5205 17.2026 66.8628 16.3464 65.7085 16.3464C64.5498 16.3464 63.898 17.2026 63.898 18.6667C63.898 20.1425 64.5499 20.9921 65.7085 20.9921C66.8628 20.9921 67.5205 20.1366 67.5205 18.6667H67.5205Z" fill="white"/>
<path d="M77.3599 22.0468H75.9771L74.5811 17.0722H74.4756L73.0855 22.0468H71.7159L69.854 15.2924H71.2061L72.4161 20.4464H72.5157L73.9043 15.2924H75.1831L76.5718 20.4464H76.6773L77.8814 15.2924H79.2144L77.3599 22.0468Z" fill="white"/>
<path d="M80.7803 15.2924H82.0635V16.3654H82.1631C82.3321 15.98 82.6171 15.6569 82.9784 15.4412C83.3397 15.2255 83.7593 15.1279 84.1787 15.162C84.5074 15.1373 84.8374 15.1869 85.1443 15.307C85.4512 15.4271 85.7271 15.6148 85.9516 15.8561C86.1762 16.0973 86.3435 16.386 86.4413 16.7008C86.5391 17.0155 86.5649 17.3482 86.5166 17.6742V22.0467H85.1836V18.009C85.1836 16.9235 84.712 16.3837 83.7261 16.3837C83.503 16.3733 83.2802 16.4113 83.0731 16.495C82.8661 16.5788 82.6795 16.7063 82.5263 16.8689C82.3732 17.0315 82.2569 17.2252 82.1856 17.4369C82.1143 17.6486 82.0897 17.8732 82.1133 18.0954V22.0468H80.7803L80.7803 15.2924Z" fill="white"/>
<path d="M88.6407 12.6557H89.9737V22.0468H88.6407V12.6557Z" fill="white"/>
<path d="M91.8267 18.6667C91.7842 18.2228 91.8351 17.7749 91.9758 17.3518C92.1166 16.9287 92.3443 16.5396 92.6443 16.2096C92.9442 15.8797 93.3098 15.616 93.7176 15.4356C94.1254 15.2552 94.5664 15.162 95.0124 15.162C95.4583 15.162 95.8993 15.2552 96.3071 15.4356C96.7149 15.616 97.0805 15.8797 97.3804 16.2096C97.6804 16.5396 97.908 16.9287 98.0488 17.3518C98.1896 17.7749 98.2404 18.2228 98.198 18.6667C98.2412 19.111 98.191 19.5595 98.0506 19.9833C97.9101 20.4071 97.6826 20.7968 97.3826 21.1274C97.0826 21.458 96.7167 21.7222 96.3085 21.903C95.9003 22.0838 95.4588 22.1772 95.0124 22.1772C94.5659 22.1772 94.1244 22.0838 93.7162 21.903C93.308 21.7222 92.9421 21.458 92.6421 21.1274C92.3421 20.7968 92.1145 20.4071 91.9741 19.9833C91.8337 19.5595 91.7835 19.111 91.8267 18.6667ZM96.8262 18.6667C96.8262 17.2026 96.1685 16.3464 95.0142 16.3464C93.8555 16.3464 93.2037 17.2026 93.2037 18.6667C93.2037 20.1425 93.8555 20.9921 95.0142 20.9921C96.1685 20.9921 96.8262 20.1367 96.8262 18.6667H96.8262Z" fill="white"/>
<path d="M99.6013 20.1366C99.6013 18.9208 100.507 18.2199 102.114 18.1203L103.943 18.0148V17.4318C103.943 16.7184 103.471 16.3156 102.56 16.3156C101.816 16.3156 101.301 16.5888 101.153 17.0663H99.8621C99.9983 15.9062 101.09 15.162 102.622 15.162C104.315 15.162 105.27 16.005 105.27 17.4318V22.0468H103.987V21.0976H103.882C103.668 21.4381 103.367 21.7157 103.011 21.902C102.654 22.0883 102.255 22.1767 101.853 22.1581C101.569 22.1876 101.283 22.1573 101.012 22.0693C100.74 21.9812 100.491 21.8374 100.279 21.6469C100.066 21.4564 99.8966 21.2237 99.78 20.9635C99.6633 20.7034 99.6025 20.4217 99.6013 20.1366ZM103.943 19.5595V18.9948L102.294 19.1003C101.364 19.1625 100.942 19.4789 100.942 20.0744C100.942 20.6823 101.469 21.036 102.194 21.036C102.407 21.0576 102.621 21.0361 102.825 20.973C103.029 20.9098 103.218 20.8063 103.382 20.6685C103.545 20.5308 103.679 20.3616 103.775 20.1711C103.872 19.9805 103.929 19.7726 103.943 19.5595Z" fill="white"/>
<path d="M107.022 18.6667C107.022 16.5324 108.119 15.1803 109.826 15.1803C110.248 15.1609 110.667 15.262 111.034 15.4718C111.401 15.6817 111.7 15.9916 111.897 16.3653H111.997V12.6557H113.33V22.0468H112.053V20.9796H111.947C111.735 21.3509 111.425 21.6569 111.051 21.8646C110.677 22.0724 110.253 22.1738 109.826 22.1581C108.108 22.1582 107.022 20.8061 107.022 18.6667ZM108.399 18.6667C108.399 20.0993 109.075 20.9614 110.204 20.9614C111.327 20.9614 112.022 20.0869 112.022 18.6725C112.022 17.2648 111.32 16.3779 110.204 16.3779C109.082 16.3779 108.399 17.2458 108.399 18.6667H108.399Z" fill="white"/>
<path d="M118.845 18.6667C118.803 18.2228 118.853 17.7749 118.994 17.3518C119.135 16.9287 119.362 16.5397 119.662 16.2098C119.962 15.8798 120.328 15.6161 120.736 15.4357C121.143 15.2553 121.584 15.1621 122.03 15.1621C122.476 15.1621 122.917 15.2553 123.325 15.4357C123.733 15.6161 124.098 15.8798 124.398 16.2098C124.698 16.5397 124.926 16.9287 125.067 17.3518C125.207 17.7749 125.258 18.2228 125.216 18.6667C125.259 19.111 125.209 19.5595 125.068 19.9833C124.928 20.4071 124.7 20.7968 124.4 21.1274C124.1 21.458 123.735 21.7222 123.326 21.903C122.918 22.0838 122.477 22.1772 122.03 22.1772C121.584 22.1772 121.142 22.0838 120.734 21.903C120.326 21.7222 119.96 21.458 119.66 21.1274C119.36 20.7968 119.133 20.4071 118.992 19.9833C118.852 19.5595 118.802 19.111 118.845 18.6667ZM123.844 18.6667C123.844 17.2026 123.187 16.3464 122.032 16.3464C120.874 16.3464 120.222 17.2026 120.222 18.6667C120.222 20.1425 120.874 20.9921 122.032 20.9921C123.187 20.9921 123.844 20.1366 123.844 18.6667Z" fill="white"/>
<path d="M127.004 15.2924H128.287V16.3654H128.387C128.556 15.98 128.841 15.6569 129.202 15.4412C129.564 15.2255 129.983 15.1279 130.403 15.162C130.731 15.1373 131.061 15.1869 131.368 15.307C131.675 15.4271 131.951 15.6148 132.176 15.8561C132.4 16.0973 132.567 16.386 132.665 16.7008C132.763 17.0155 132.789 17.3482 132.741 17.6742V22.0467H131.408V18.009C131.408 16.9235 130.936 16.3837 129.95 16.3837C129.727 16.3733 129.504 16.4113 129.297 16.495C129.09 16.5788 128.903 16.7063 128.75 16.8689C128.597 17.0315 128.481 17.2252 128.41 17.4369C128.338 17.6486 128.314 17.8732 128.337 18.0954V22.0468H127.004V15.2924Z" fill="white"/>
<path d="M140.273 13.6108V15.3232H141.736V16.446H140.273V19.9191C140.273 20.6266 140.564 20.9364 141.228 20.9364C141.398 20.9359 141.567 20.9256 141.736 20.9057V22.016C141.497 22.0589 141.254 22.0816 141.011 22.0841C139.529 22.0841 138.938 21.5627 138.938 20.2604V16.4459H137.866V15.3231H138.938V13.6108H140.273Z" fill="white"/>
<path d="M143.557 12.6557H144.878V16.3778H144.984C145.161 15.9889 145.454 15.664 145.822 15.4475C146.191 15.2309 146.617 15.1333 147.043 15.1679C147.37 15.1501 147.697 15.2047 148 15.3277C148.304 15.4508 148.576 15.6393 148.798 15.8798C149.021 16.1203 149.187 16.4069 149.286 16.7191C149.384 17.0313 149.413 17.3614 149.369 17.6859V22.0468H148.035V18.0148C148.035 16.9359 147.532 16.3895 146.591 16.3895C146.362 16.3708 146.131 16.4023 145.915 16.4818C145.7 16.5614 145.504 16.6872 145.342 16.8503C145.18 17.0134 145.056 17.2099 144.978 17.4261C144.9 17.6423 144.87 17.873 144.89 18.1019V22.0468H143.557L143.557 12.6557Z" fill="white"/>
<path d="M157.142 20.2231C156.961 20.8404 156.568 21.3744 156.033 21.7316C155.498 22.0888 154.855 22.2465 154.215 22.1772C153.77 22.1889 153.328 22.1037 152.919 21.9274C152.51 21.7511 152.145 21.488 151.848 21.1563C151.551 20.8246 151.33 20.4322 151.2 20.0065C151.07 19.5807 151.034 19.1318 151.095 18.6908C151.036 18.2485 151.072 17.7986 151.202 17.3716C151.332 16.9446 151.552 16.5505 151.847 16.2158C152.142 15.8812 152.506 15.614 152.914 15.4322C153.321 15.2504 153.763 15.1582 154.209 15.162C156.089 15.162 157.222 16.446 157.222 18.567V19.0322H152.453V19.1069C152.432 19.3547 152.463 19.6042 152.544 19.8394C152.626 20.0745 152.755 20.2901 152.924 20.4722C153.094 20.6544 153.299 20.7992 153.528 20.8973C153.756 20.9954 154.003 21.0446 154.252 21.0419C154.571 21.0802 154.894 21.0227 155.18 20.8769C155.466 20.7311 155.702 20.5035 155.859 20.223L157.142 20.2231ZM152.453 18.0463H155.864C155.881 17.8196 155.85 17.5919 155.774 17.3778C155.698 17.1638 155.577 16.968 155.421 16.8033C155.264 16.6385 155.075 16.5083 154.865 16.421C154.655 16.3337 154.429 16.2914 154.202 16.2966C153.971 16.2937 153.743 16.337 153.529 16.4239C153.315 16.5108 153.121 16.6396 152.958 16.8026C152.795 16.9657 152.667 17.1598 152.58 17.3734C152.493 17.587 152.45 17.8158 152.453 18.0463H152.453Z" fill="white"/>
</g>
<defs>
<clipPath id="clip0_180_2504">
<rect width="203" height="62.0001" fill="white"/>
</clipPath>
</defs>
</svg>
