<svg width="16" height="16" viewBox="0 0 16 16" fill="none" xmlns="http://www.w3.org/2000/svg">
<path d="M9.15174 2.29612L10.3249 4.66192C10.4849 4.99125 10.9115 5.30713 11.2715 5.36762L13.3979 5.72383C14.7578 5.95235 15.0778 6.94707 14.0979 7.92833L12.4447 9.59513C12.1647 9.8774 12.0115 10.4218 12.0981 10.8117L12.5714 12.875C12.9447 14.5082 12.0847 15.14 10.6516 14.2864L8.65848 13.0968C8.29854 12.8817 7.70528 12.8817 7.33861 13.0968L5.34552 14.2864C3.91901 15.14 3.05244 14.5015 3.42574 12.875L3.89902 10.8117C3.98567 10.4218 3.83236 9.8774 3.55238 9.59513L1.89924 7.92833C0.92601 6.94707 1.23931 5.95235 2.59916 5.72383L4.72559 5.36762C5.07888 5.30713 5.5055 4.99125 5.66548 4.66192L6.83868 2.29612C7.47861 1.01241 8.51848 1.01241 9.15174 2.29612Z" fill="#FFD600"/>
</svg>
