<svg width="24" height="24" viewBox="0 0 24 24" fill="none" xmlns="http://www.w3.org/2000/svg">
<path d="M8.55725 22.2336C7.29657 22.2336 6.09261 21.9973 4.96912 21.5279C3.8275 21.0511 2.80481 20.3414 2.01105 19.4757L0.749268 18.0992L2.59511 18.3811C4.32367 18.6452 5.43205 18.4689 6.10455 18.2308C5.56526 17.9758 4.90649 17.6094 4.23907 17.1044C2.15607 15.5277 0.979294 13.3463 0.836334 10.7961L0.738281 9.0462L1.52847 9.8548C1.40034 9.01022 1.3781 7.93274 1.63751 6.65118L2.04909 4.61789L2.54539 5.7466C2.66061 4.87263 2.94983 3.8748 3.60764 2.92133L4.46512 1.67877L4.791 3.15273C5.15547 4.80067 5.74736 6.16985 6.55032 7.2222C7.1797 8.04686 7.94202 8.68201 8.81612 9.11006C9.63281 9.5101 10.403 9.65594 10.9389 9.7058C10.9124 9.495 10.8993 9.28214 10.8993 9.06804C10.8993 6.25458 13.1884 3.96544 16.0019 3.96544C17.173 3.96544 18.3171 4.37221 19.2233 5.11104C20.0145 5.7558 20.5962 6.62825 20.8886 7.59738L23.2383 8.33072L21.1043 10.067V10.3504C21.1043 13.4708 19.8666 16.3925 17.6186 18.5773C15.4446 20.6903 12.4876 21.9796 9.29265 22.2074C9.04546 22.2249 8.80019 22.2336 8.55725 22.2336Z" fill="#121C03"/>
</svg>
